<svg xmlns="http://www.w3.org/2000/svg" width="24" height="24"><path fill="none" d="M0 0h24v24H0z"/><linearGradient id="a" gradientUnits="userSpaceOnUse" x1="-280.1451" y1="392.8836" x2="-280.3951" y2="392.3003" gradientTransform="matrix(24 0 0 -24 6739 9433)"><stop offset="0" stop-color="#37aee2"/><stop offset="1" stop-color="#1e96c8"/></linearGradient><path fill="url(#a)" d="M24 12c0 6.63-5.37 12-12 12S0 18.63 0 12 5.37 0 12 0s12 5.37 12 12z"/><g transform="translate(4 7)"><path fill="#C8DAEA" d="M5.797 10.516c-.39 0-.32-.15-.459-.521l-1.139-3.77 7.072-4.43.829.221-.69 1.884-5.613 6.616z"/><path fill="#A9C9DD" d="M5.764 10.516c.298 0 .427-.141.596-.302.258-.251 3.578-3.519 3.578-3.519l-2.037-.502-1.889 1.206-.248 3.016v.101z"/><linearGradient id="b" gradientUnits="userSpaceOnUse" x1="-273.9231" y1="366.5722" x2="-273.7315" y2="366.2066" gradientTransform="matrix(13.0435 0 0 -10.9565 3581.8323 4021.7517)"><stop offset="0" stop-color="#eff7fc"/><stop offset="1" stop-color="#fff"/></linearGradient><path fill="url(#b)" d="M6.023 7.463l4.837 3.575c.55.3.949.15 1.089-.511l1.969-9.293c.2-.811-.31-1.172-.839-.931L1.526 4.769c-.789.32-.78.761-.14.951l2.968.931 6.866-4.336c.32-.2.62-.09.38.13L6.023 7.463z"/></g></svg>