<svg xmlns="http://www.w3.org/2000/svg" width="24" height="24"><path fill="none" d="M0 0h24v24H0z"/><path fill="#2FFC8D" d="M16.206 1.026c-.124-.061-.223 0-.223.149v17.784l7.332 3.892c.363.193.66 0 .66-.438V5.295c0-.088-.041-.167-.115-.202l-7.654-4.067z"/><path fill="#03E370" d="M7.992 14.717l7.86-13.577c.074-.123.231-.175.355-.105l7.596 4.032c.091.053.132.175.074.272L15.984 18.96l-7.992-4.243z"/><path fill="#10C767" d="M.882 1.386c-.486-.263-.651-.07-.362.429l7.472 12.902 7.992 4.251L8.041 5.251c-.033-.061-.082-.105-.14-.14L.882 1.386z"/><path fill="#00AB6C" d="M7.992 22.422c0 .429-.297.631-.66.438L.445 19.196C.198 19.065 0 18.723 0 18.433V1.438c0-.289.198-.421.445-.289l7.447 3.962c.058.035.099.096.099.167v17.144z"/></svg>