<svg width="235" height="316" xmlns="http://www.w3.org/2000/svg"><g fill="none" fill-rule="evenodd"><text font-family="Roboto-Medium, Roboto" font-size="19" font-weight="400" letter-spacing="-.1" fill-opacity=".88" fill="#01060D" transform="translate(-501 -43)"><tspan x="399" y="288">April 2017</tspan></text><path d="M-133 804H77c60.751322 0 110-49.248678 110-110S137.751322 584 77 584h-420c-87.26099 0-158-70.73901-158-158s70.73901-158 158-158H77c60.751322 0 110-49.248678 110-110S137.751322 48 77 48h-554c-13.254834 0-24-10.745166-24-24s10.745166-24 24-24H77c87.26099 0 158 70.73901 158 158S164.26099 316 77 316h-420c-60.751323 0-110 49.248678-110 110s49.248677 110 110 110H77c87.26099 0 158 70.73901 158 158S164.26099 852 77 852h-420c-60.751323 0-110 49.248678-110 110 0 60.75132 49.248677 110 110 110h302c13.254834 0 24 10.74517 24 24s-10.745166 24-24 24h-302c-87.26099 0-158-70.73901-158-158s70.73901-158 158-158h210z" fill="#D9DEE5" fill-rule="nonzero"/></g></svg>