<?xml version="1.0" encoding="utf-8"?>
<!-- Generator: Adobe Illustrator 18.0.0, SVG Export Plug-In . SVG Version: 6.00 Build 0)  -->
<!DOCTYPE svg PUBLIC "-//W3C//DTD SVG 1.1//EN" "http://www.w3.org/Graphics/SVG/1.1/DTD/svg11.dtd">
<svg version="1.1" id="Layer_1" xmlns="http://www.w3.org/2000/svg" xmlns:xlink="http://www.w3.org/1999/xlink" x="0px" y="0px"
	 width="68px" height="68px" viewBox="0 0 68 68" enable-background="new 0 0 68 68" xml:space="preserve">
<g>
	<path fill="none" d="M0,0h68v68H0V0z"/>
	<g>
		<path id="a" fill="currentColor" d="M40.383,41.04L21.632,30.52c0.176-0.254,0.315-0.514,0.417-0.778l26.178-4.041
			c0.067,0.04,0.133,0.08,0.203,0.12c0.497,0.28,1.038,0.52,1.608,0.723L43.45,40.67C42.418,40.69,41.39,40.814,40.383,41.04
			 M61.303,18.514c-3.577-2.018-9.36-2.019-12.915,0c-1.267,0.719-2.077,1.597-2.437,2.52l-26.179,4.042
			c-0.067-0.04-0.132-0.08-0.202-0.12c-3.578-2.017-9.36-2.018-12.916,0c-3.555,2.018-3.536,5.29,0.042,7.308
			c2.68,1.511,6.595,1.89,9.886,1.139l18.75,10.52c-1.294,1.859-0.606,4.06,2.062,5.564c3.578,2.017,9.361,2.017,12.916,0
			c3.556-2.019,3.536-5.29-0.042-7.308c-0.515-0.287-1.053-0.529-1.609-0.723l6.588-14.126c2.219-0.048,4.41-0.55,6.099-1.509
			C64.901,23.803,64.882,20.531,61.303,18.514"/>
	</g>
	<g>
		<path id="a_1_" fill="#FFFFFF" fill-opacity="0.5" d="M40.383,41.04L21.632,30.52c0.176-0.254,0.315-0.514,0.417-0.778
			l26.178-4.041c0.067,0.04,0.133,0.08,0.203,0.12c0.497,0.28,1.038,0.52,1.608,0.723L43.45,40.67
			C42.418,40.69,41.39,40.814,40.383,41.04 M61.303,18.514c-3.577-2.018-9.36-2.019-12.915,0c-1.267,0.719-2.077,1.597-2.437,2.52
			l-26.179,4.042c-0.067-0.04-0.132-0.08-0.202-0.12c-3.578-2.017-9.36-2.018-12.916,0c-3.555,2.018-3.536,5.29,0.042,7.308
			c2.68,1.511,6.595,1.89,9.886,1.139l18.75,10.52c-1.294,1.859-0.606,4.06,2.062,5.564c3.578,2.017,9.361,2.017,12.916,0
			c3.556-2.019,3.536-5.29-0.042-7.308c-0.515-0.287-1.053-0.529-1.609-0.723l6.588-14.126c2.219-0.048,4.41-0.55,6.099-1.509
			C64.901,23.803,64.882,20.531,61.303,18.514"/>
	</g>
</g>
</svg>
