<svg width="94" height="86" xmlns="http://www.w3.org/2000/svg" xmlns:xlink="http://www.w3.org/1999/xlink"><defs><path id="a" d="M0 0h94v86H0z"/><linearGradient x1="71.072049%" y1="21.926978%" x2="22.501628%" y2="69.345388%" id="c"><stop stop-opacity="0" offset="0%"/><stop stop-opacity=".7" offset="100%"/></linearGradient><radialGradient cx="26.991328%" cy="87.253473%" fx="26.991328%" fy="87.253473%" r="103.032542%" gradientTransform="matrix(.15029 -.96527 .64628 .30405 -.33455 .867777)" id="e"><stop stop-opacity=".5" offset="0%"/><stop stop-opacity="0" offset="100%"/></radialGradient><path id="d" d="M0 58l47 27 46-26.5-47-27z"/><linearGradient x1="71.382561%" y1="20.375526%" x2="22.399066%" y2="79.579948%" id="g"><stop stop-color="#A0A0A0" stop-opacity=".01" offset="0%"/><stop stop-opacity=".05" offset="100%"/></linearGradient><path id="f" d="M1 58l46.5 26.5L48 30 1 3z"/><linearGradient x1="8.68927%" y1="0%" y2="89.658981%" id="i"><stop stop-color="#888" offset="0%"/><stop stop-color="#EAEAEA" stop-opacity="0" offset="100%"/></linearGradient><path id="h" d="M0 3l47 27 4.5-2.5-47-27z"/><linearGradient x1="50%" y1="0%" x2="50%" y2="100%" id="k"><stop stop-color="#FFF" offset="0%"/><stop offset="100%"/></linearGradient><path id="j" d="M51.5 82.5v-55L47 30v55z"/><path id="l" d="M0 58l47 27V30L0 3z"/><radialGradient cx="47.222246%" fx="47.222246%" fy="50%" r="152.452935%" gradientTransform="matrix(.34418 -.57805 .64013 .14447 -.010376 .700731)" id="n"><stop stop-color="#FFF" offset="0%"/><stop stop-color="#CCC" stop-opacity="0" offset="100%"/></radialGradient><path d="M37.243579 66.68088l.084647-30.195205-13.138815-7.586495-.037034 12.943069-13.170558 9.678865 13.1203 7.575915.050258-17.25478 13.091202 24.83863zm.097873-34.50427c2.060628 1.190349 3.742989 4.108028 3.735053 6.472856l-.084647 30.195204c-.00529 2.370119-1.700877 3.335625-3.761505 2.145275l-26.26176-15.16241c-2.076499-1.198285-3.75886-4.11332-3.75357-6.483438l.087293-30.195204c.00529-2.367473 1.700878-3.33298 3.777376-2.132049l26.26176 15.159765z" id="m"/></defs><g fill="none" fill-rule="evenodd"><mask id="b" fill="#fff"><use xlink:href="#a"/></mask><g opacity=".3" mask="url(#b)"><use fill-opacity=".4" fill="url(#c)" style="mix-blend-mode:multiply" xlink:href="#d"/><use fill-opacity=".1" fill="url(#e)" style="mix-blend-mode:multiply" xlink:href="#d"/><use fill-opacity=".15" fill="#000" style="mix-blend-mode:multiply" xlink:href="#d"/></g><g mask="url(#b)"><use fill="#0085E9" xlink:href="#f"/><use fill="url(#g)" style="mix-blend-mode:multiply" xlink:href="#f"/></g><g mask="url(#b)"><use fill="#0085E9" xlink:href="#h"/><use fill-opacity=".11" fill="#ECEEF2" xlink:href="#h"/><use fill-opacity=".12" fill="url(#i)" style="mix-blend-mode:screen" xlink:href="#h"/></g><g mask="url(#b)"><use fill="#0085E9" xlink:href="#j"/><use fill-opacity=".1" fill="url(#k)" style="mix-blend-mode:multiply" xlink:href="#j"/><use fill-opacity=".2" fill="#3B404C" style="mix-blend-mode:multiply" xlink:href="#j"/></g><g mask="url(#b)"><use fill="#0085E9" xlink:href="#l"/><use fill="url(#g)" style="mix-blend-mode:multiply" xlink:href="#l"/></g><g mask="url(#b)"><use fill-opacity=".73" fill="#FFF" style="mix-blend-mode:lighten" xlink:href="#m"/><use fill-opacity=".6" fill="url(#n)" style="mix-blend-mode:screen" xlink:href="#m"/></g></g></svg>