<svg width="108" height="80" xmlns="http://www.w3.org/2000/svg" xmlns:xlink="http://www.w3.org/1999/xlink"><defs><path id="a" d="M0 0h108v80H0z"/><linearGradient x1="71.382561%" y1="20.375526%" x2="22.399066%" y2="79.579948%" id="d"><stop stop-color="#A0A0A0" stop-opacity=".01" offset="0%"/><stop stop-opacity=".05" offset="100%"/></linearGradient><path id="c" d="M0 32.5L54 64l54-31.5L54 1z"/><linearGradient x1="0%" y1="6.818945%" x2="98.936323%" y2="91.901058%" id="f"><stop stop-color="#FFF" stop-opacity=".5" offset="0%"/><stop stop-opacity=".5" offset="100%"/></linearGradient><path id="e" d="M0 35.186747L54 66v-4L0 31z"/><linearGradient x1="97.900048%" y1="12.115739%" x2="4.558698%" y2="95.274631%" id="h"><stop stop-opacity="0" offset="0%"/><stop offset="100%"/></linearGradient><path id="g" d="M54 66l54-30.813253V31L54 62z"/><path id="i" d="M0 31l54 31 54-31L54 0z"/><radialGradient cx="47.222246%" fx="47.222246%" fy="50%" r="152.452935%" gradientTransform="matrix(.4152 -.6973 .27538 .48869 .138468 .584938)" id="k"><stop stop-color="#FFF" offset="0%"/><stop stop-color="#CCC" stop-opacity="0" offset="100%"/></radialGradient><path d="M66.651685 38.839708l-15.02785-8.676227 28.096467 1.082874L53.41627 16.059648 40.347653 23.653l11.276182 6.51048 1.961881 16.26958 13.06597-7.593353zm16.796456-9.761748c2.059843 1.194073 2.070433 3.142716.023828 4.334142L57.337384 48.598809c-2.049253 1.191425-5.417016 1.191425-7.479506.002647L23.553845 33.412102c-2.06249-1.188778-2.073081-3.142716-.023829-4.334142l26.131938-15.186707c2.046605-1.188778 5.419664-1.188778 7.479506.002648L83.44814 29.07796z" id="j"/></defs><g fill="none" fill-rule="evenodd"><mask id="b" fill="#fff"><use xlink:href="#a"/></mask><path fill="#D9DEE5" style="mix-blend-mode:multiply" opacity=".7" mask="url(#b)" d="M0 48.186747L54 79l54-30.813253L54 17z"/><g mask="url(#b)"><use fill="#0085E9" xlink:href="#c"/><use fill="url(#d)" style="mix-blend-mode:multiply" xlink:href="#c"/><use fill="#0085E9" xlink:href="#e"/><use fill-opacity=".1" fill="url(#f)" style="mix-blend-mode:multiply" xlink:href="#e"/><use fill-opacity=".24" fill="#3B404C" style="mix-blend-mode:multiply" xlink:href="#e"/><g><use fill="#0085E9" xlink:href="#g"/><use fill-opacity=".09" fill="url(#h)" style="mix-blend-mode:multiply" xlink:href="#g"/><use fill-opacity=".32" fill="#3B404C" style="mix-blend-mode:multiply" xlink:href="#g"/></g><g><use fill="#0085E9" xlink:href="#i"/><use fill="url(#d)" style="mix-blend-mode:multiply" xlink:href="#i"/></g></g><g mask="url(#b)"><use fill-opacity=".77" fill="#FFF" style="mix-blend-mode:lighten" xlink:href="#j"/><use fill-opacity=".3" fill="url(#k)" style="mix-blend-mode:screen" xlink:href="#j"/></g></g></svg>