<svg width="94" height="86" xmlns="http://www.w3.org/2000/svg" xmlns:xlink="http://www.w3.org/1999/xlink"><defs><path id="a" d="M0 0h94v86H0z"/><linearGradient x1="71.072049%" y1="21.926978%" x2="22.501628%" y2="69.345388%" id="c"><stop stop-opacity="0" offset="0%"/><stop stop-opacity=".7" offset="100%"/></linearGradient><radialGradient cx="26.991328%" cy="87.253473%" fx="26.991328%" fy="87.253473%" r="103.032542%" gradientTransform="matrix(.15029 -.96527 .64628 .30405 -.33455 .867777)" id="e"><stop stop-opacity=".5" offset="0%"/><stop stop-opacity="0" offset="100%"/></radialGradient><path id="d" d="M0 58l47 27 46-26.5-47-27z"/><linearGradient x1="71.382561%" y1="20.375526%" x2="22.399066%" y2="79.579948%" id="g"><stop stop-color="#A0A0A0" stop-opacity=".01" offset="0%"/><stop stop-opacity=".05" offset="100%"/></linearGradient><path id="f" d="M1 58l46.5 26.5L48 30 1 3z"/><linearGradient x1="8.68927%" y1="0%" y2="89.658981%" id="i"><stop stop-color="#888" offset="0%"/><stop stop-color="#EAEAEA" stop-opacity="0" offset="100%"/></linearGradient><path id="h" d="M0 3l47 27 4.5-2.5-47-27z"/><linearGradient x1="50%" y1="0%" x2="50%" y2="100%" id="k"><stop stop-color="#FFF" offset="0%"/><stop offset="100%"/></linearGradient><path id="j" d="M51.5 82.5v-55L47 30v55z"/><path id="l" d="M0 58l47 27V30L0 3z"/><radialGradient cx="47.222246%" fx="47.222246%" fy="50%" r="152.452935%" gradientTransform="matrix(.4194 -.70436 .61893 .22186 -.035291 .721686)" id="n"><stop stop-color="#FFF" offset="0%"/><stop stop-color="#CCC" stop-opacity="0" offset="100%"/></radialGradient><path d="M30.51102 56.116584l-.019733 7.819316 5.244133 3.03521-.012333 4.027158L7.71902 54.788216l.0296-10.072842-1.748867-1.011737.024667-8.079053c.002467-1.103263.794267-1.555947 1.7538-1.001842l5.258933 3.04758c.959534.554104 1.7464 1.922052 1.741467 3.025315l-.019733 8.079053-1.748867-1.011737-.017267 6.040736 13.983534 8.098843.024666-7.947948c-5.776933-4.455105-10.172533-12.798842-10.1528-19.782052.0222-7.806948 5.5056-10.955948 12.279067-7.035158 6.771 3.92079 12.234667 13.409842 12.212467 21.211842-.0222 7.242947-4.763134 10.438947-10.828667 7.767368zM8.000015 29.914368c.002345-1.72683 1.130387-2.404771 2.50702-1.537519 1.37898.864695 2.49764 2.962475 2.49295 4.689306-.00469 1.744738-1.130387 2.425238-2.509366 1.557985-1.376633-.867253-2.495295-2.962474-2.490604-4.709772z" id="m"/></defs><g fill="none" fill-rule="evenodd"><mask id="b" fill="#fff"><use xlink:href="#a"/></mask><g opacity=".3" mask="url(#b)"><use fill-opacity=".4" fill="url(#c)" style="mix-blend-mode:multiply" xlink:href="#d"/><use fill-opacity=".1" fill="url(#e)" style="mix-blend-mode:multiply" xlink:href="#d"/><use fill-opacity=".15" fill="#000" style="mix-blend-mode:multiply" xlink:href="#d"/></g><g mask="url(#b)"><use fill="#54C2BA" xlink:href="#f"/><use fill="url(#g)" style="mix-blend-mode:multiply" xlink:href="#f"/></g><g mask="url(#b)"><use fill="#54C2BA" xlink:href="#h"/><use fill-opacity=".08" fill="#ECEEF2" xlink:href="#h"/><use fill-opacity=".2" fill="url(#i)" style="mix-blend-mode:screen" xlink:href="#h"/></g><g mask="url(#b)"><use fill="#54C2BA" xlink:href="#j"/><use fill-opacity=".1" fill="url(#k)" style="mix-blend-mode:multiply" xlink:href="#j"/><use fill-opacity=".11" fill="#3B404C" style="mix-blend-mode:multiply" xlink:href="#j"/></g><g mask="url(#b)"><use fill="#54C2BA" xlink:href="#l"/><use fill="url(#g)" style="mix-blend-mode:multiply" xlink:href="#l"/></g><g mask="url(#b)"><use fill-opacity=".73" fill="#FFF" style="mix-blend-mode:lighten" xlink:href="#m"/><use fill-opacity=".6" fill="url(#n)" style="mix-blend-mode:screen" xlink:href="#m"/></g></g></svg>