<svg width="108" height="80" xmlns="http://www.w3.org/2000/svg" xmlns:xlink="http://www.w3.org/1999/xlink"><defs><path id="a" d="M0 0h108v80H0z"/><linearGradient x1="71.382561%" y1="20.375526%" x2="22.399066%" y2="79.579948%" id="d"><stop stop-color="#A0A0A0" stop-opacity=".01" offset="0%"/><stop stop-opacity=".05" offset="100%"/></linearGradient><path id="c" d="M0 32.5L54 64l54-31.5L54 1z"/><linearGradient x1="0%" y1="6.818945%" x2="98.936323%" y2="91.901058%" id="f"><stop stop-color="#FFF" stop-opacity=".5" offset="0%"/><stop stop-opacity=".5" offset="100%"/></linearGradient><path id="e" d="M0 35.186747L54 66v-4L0 31z"/><linearGradient x1="97.900048%" y1="12.115739%" x2="4.558698%" y2="95.274631%" id="h"><stop stop-opacity="0" offset="0%"/><stop offset="100%"/></linearGradient><path id="g" d="M54 66l54-30.813253V31L54 62z"/><path id="i" d="M0 31l54 31 54-31L54 0z"/><radialGradient cx="47.222246%" fx="47.222246%" fy="50%" r="152.452935%" gradientTransform="matrix(.41525 -.6974 .2755 .48863 .138387 .585013)" id="k"><stop stop-color="#FFF" offset="0%"/><stop stop-color="#CCC" stop-opacity="0" offset="100%"/></radialGradient><path d="M46.75819 34.701693c4.034356 2.329193 10.539145 2.329193 14.54782 0 3.9907-2.31892 3.967588-6.086202-.066768-8.415394-4.018948-2.31892-10.5186-2.31892-14.5093 0-4.008676 2.329192-3.988132 6.096474.028248 8.415394m27.64728 7.562813c-5.14374.785813-10.852444.017976-14.884232-2.308648-.593212-.341546-1.117087-.701069-1.628123-1.08884-.074473.444267-.205441.916783-.41345 1.381594-1.468907 3.210022-5.73952 5.521238-10.867852 6.314756-3.754442-2.185384-5.472446-5.423654-4.034356-8.613132.241394-.464811.516171-.909078.84231-1.327665-.719045.190033-1.486883.351818-2.285536.490491-5.51867.852582-11.11438-.1284-14.884231-2.308648 1.37389-2.9789 5.36459-5.451902 10.862715-6.312188.80379-.123264 1.617851-.200305 2.403665-.236257-.639437-.274778-1.278873-.588076-1.869517-.929623-4.031788-2.326624-5.374861-5.629095-4.01638-8.605427 5.125764-.79095 10.829331-.02568 14.863687 2.303512.590644.341546 1.132496.706205 1.594739 1.086271.095017-.45197.223417-.927054.433995-1.389297 1.466338-3.192046 5.75236-5.510966 10.862715-6.314756 3.754442 2.185383 5.472446 5.423654 4.021516 8.623404-.228554.454539-.503332.898806-.82947 1.314825.721613-.187466 1.486883-.34925 2.285536-.472515 5.50583-.862854 11.096405.123264 14.886799 2.290671-1.371321 2.98147-5.362021 5.472446-10.865283 6.314756-.801222.123265-1.602443.20801-2.398529.254234.670253.274778 1.291713.577804 1.882357.91935 4.034356 2.329192 5.374861 5.631663 4.036924 8.613132" id="j"/></defs><g fill="none" fill-rule="evenodd"><mask id="b" fill="#fff"><use xlink:href="#a"/></mask><path fill="#D9DEE5" style="mix-blend-mode:multiply" opacity=".7" mask="url(#b)" d="M0 48.186747L54 79l54-30.813253L54 17z"/><g mask="url(#b)"><use fill="#ED1C24" xlink:href="#c"/><use fill="url(#d)" style="mix-blend-mode:multiply" xlink:href="#c"/><use fill="#ED1C24" xlink:href="#e"/><use fill-opacity=".1" fill="url(#f)" style="mix-blend-mode:multiply" xlink:href="#e"/><use fill-opacity=".14" fill="#3B404C" style="mix-blend-mode:multiply" xlink:href="#e"/><g><use fill="#ED1C24" xlink:href="#g"/><use fill-opacity=".09" fill="url(#h)" style="mix-blend-mode:multiply" xlink:href="#g"/><use fill-opacity=".22" fill="#3B404C" style="mix-blend-mode:multiply" xlink:href="#g"/></g><g><use fill="#ED1C24" xlink:href="#i"/><use fill="url(#d)" style="mix-blend-mode:multiply" xlink:href="#i"/></g></g><g mask="url(#b)"><use fill-opacity=".77" fill="#FFF" style="mix-blend-mode:lighten" xlink:href="#j"/><use fill-opacity=".3" fill="url(#k)" style="mix-blend-mode:screen" xlink:href="#j"/></g></g></svg>