<svg xmlns="http://www.w3.org/2000/svg" xmlns:xlink="http://www.w3.org/1999/xlink" width="122" height="122"><defs><linearGradient id="b" x1="100%" x2="15.68%" y1="0%" y2="80.787%"><stop offset="0%" stop-opacity="0"/><stop offset="100%" stop-opacity=".3"/></linearGradient><path id="c" d="M82.053 93.94c-18.683 18.746-49.077 18.746-67.881.002-18.813-18.75-18.904-49.135-.222-67.881 18.683-18.744 49.068-18.751 67.881 0 18.805 18.744 18.904 49.137.222 67.879z"/><filter id="a" width="150%" height="150%" x="-25%" y="-25%" filterUnits="objectBoundingBox"><feGaussianBlur in="SourceGraphic" stdDeviation="8"/></filter><radialGradient id="e" r="76.63%" fx="50%" fy="50%" gradientTransform="rotate(-40.661 .659 .441) scale(1 .76483)"><stop offset="0%" stop-color="#DAD5B5" stop-opacity="0"/><stop offset="99.972%" stop-opacity=".2"/></radialGradient><linearGradient id="f" x1="50%" x2="50%" y1="100%" y2="0%"><stop offset="0%" stop-color="#F2EEDA" stop-opacity=".076"/><stop offset="100%" stop-opacity=".3"/></linearGradient><radialGradient id="g" cy="61.43%" r="48.411%" fx="50%" fy="61.43%" gradientTransform="matrix(1 0 0 .83714 0 .1)"><stop offset="0%" stop-color="#FFF" stop-opacity=".3"/><stop offset="100%" stop-color="#FFF" stop-opacity="0"/></radialGradient><circle id="d" cx="48" cy="48" r="48"/><radialGradient id="i" cy="71.245%" r="71.245%" fx="50%" fy="71.245%" gradientTransform="matrix(0 -1 1.03662 0 -.239 1.212)"><stop offset="0%" stop-color="#FFF"/><stop offset="100%" stop-color="#CCC" stop-opacity="0"/></radialGradient><path id="h" d="M66.88 65.248c-.835-2.592-3.2-4.448-6.08-4.448h-3.2v-9.6c0-1.76-1.443-3.2-3.2-3.2H35.2v-6.4h6.4c1.757 0 3.2-1.44 3.2-3.2V32h6.4c3.517 0 6.4-2.88 6.4-6.4v-1.312c9.373 3.808 16 12.992 16 23.712 0 6.656-2.56 12.704-6.72 17.248zM44.8 73.376C32.157 71.808 22.4 61.056 22.4 48c0-1.984.256-3.872.672-5.728L38.4 57.6v3.2c0 3.52 2.88 6.4 6.4 6.4v6.176zM48 16c-17.664 0-32 14.336-32 32s14.336 32 32 32c17.66 0 32-14.336 32-32S65.66 16 48 16z"/></defs><g xmlns="http://www.w3.org/2000/svg" fill="none" fill-rule="evenodd"><g filter="url(#a)" opacity=".4" style="mix-blend-mode:screen" transform="translate(13)"><use xmlns:xlink="http://www.w3.org/1999/xlink" fill="url(#b)" fill-opacity=".2" style="mix-blend-mode:lighten" xlink:href="#c"/><use xmlns:xlink="http://www.w3.org/1999/xlink" fill="url(#b)" fill-opacity=".2" style="mix-blend-mode:lighten" xlink:href="#c"/><use xmlns:xlink="http://www.w3.org/1999/xlink" fill="#898E96" fill-opacity=".2" style="mix-blend-mode:lighten" xlink:href="#c"/><use xmlns:xlink="http://www.w3.org/1999/xlink" fill="#39BCED" style="mix-blend-mode:overlay" xlink:href="#c"/></g><g style="mix-blend-mode:screen" transform="translate(13)"><use xmlns:xlink="http://www.w3.org/1999/xlink" fill="#39BCED" xlink:href="#d"/><use xmlns:xlink="http://www.w3.org/1999/xlink" fill="url(#e)" fill-opacity=".2" style="mix-blend-mode:multiply" xlink:href="#d"/><use xmlns:xlink="http://www.w3.org/1999/xlink" fill="url(#f)" fill-opacity=".2" style="mix-blend-mode:multiply" xlink:href="#d"/><use xmlns:xlink="http://www.w3.org/1999/xlink" fill="url(#g)" fill-opacity=".2" style="mix-blend-mode:overlay" xlink:href="#d"/></g><g opacity=".7" style="mix-blend-mode:lighten" transform="translate(13)"><use xmlns:xlink="http://www.w3.org/1999/xlink" fill="#FFF" fill-opacity=".7" style="mix-blend-mode:overlay" xlink:href="#h"/><use xmlns:xlink="http://www.w3.org/1999/xlink" fill="url(#i)" fill-opacity=".5" style="mix-blend-mode:screen" xlink:href="#h"/></g></g></svg>