<svg xmlns="http://www.w3.org/2000/svg" xmlns:xlink="http://www.w3.org/1999/xlink" width="122" height="122"><defs><linearGradient id="b" x1="100%" x2="15.68%" y1="0%" y2="80.787%"><stop offset="0%" stop-opacity="0"/><stop offset="100%" stop-opacity=".3"/></linearGradient><path id="c" d="M82.053 93.94c-18.683 18.746-49.077 18.746-67.881.002-18.813-18.75-18.904-49.135-.222-67.881 18.683-18.744 49.068-18.751 67.881 0 18.805 18.744 18.904 49.137.222 67.879z"/><filter id="a" width="150%" height="150%" x="-25%" y="-25%" filterUnits="objectBoundingBox"><feGaussianBlur in="SourceGraphic" stdDeviation="8"/></filter><radialGradient id="e" r="76.63%" fx="50%" fy="50%" gradientTransform="rotate(-40.661 .659 .441) scale(1 .76483)"><stop offset="0%" stop-color="#DAD5B5" stop-opacity="0"/><stop offset="99.972%" stop-opacity=".2"/></radialGradient><linearGradient id="f" x1="50%" x2="50%" y1="100%" y2="0%"><stop offset="0%" stop-color="#F2EEDA" stop-opacity=".076"/><stop offset="100%" stop-opacity=".3"/></linearGradient><radialGradient id="g" cy="61.43%" r="48.411%" fx="50%" fy="61.43%" gradientTransform="matrix(1 0 0 .83714 0 .1)"><stop offset="0%" stop-color="#FFF" stop-opacity=".3"/><stop offset="100%" stop-color="#FFF" stop-opacity="0"/></radialGradient><circle id="d" cx="48" cy="48" r="48"/><radialGradient id="i" cy="71.245%" r="71.245%" fx="50%" fy="71.245%" gradientTransform="matrix(0 -.60606 1.03662 0 -.239 1.015)"><stop offset="0%" stop-color="#FFF"/><stop offset="100%" stop-color="#CCC" stop-opacity="0"/></radialGradient><path id="h" d="M37.377 48.565c1.885 0 3.29-.519 4.205-1.56.918-1.043 1.373-2.579 1.373-4.605h12.921l.077.21c.09 4.308-1.206 7.96-3.872 10.959-2.665 2.998-6.18 4.863-10.54 5.596V69h-8.33v-9.797c-5.562-.845-9.812-3.332-12.774-7.471C17.483 47.593 16 42.458 16 36.317v-.968c0-6.111 1.483-11.234 4.457-15.373 2.97-4.14 7.22-6.643 12.755-7.516V3h8.33v9.5c4.501.792 8.049 2.74 10.645 5.853 2.596 3.11 3.868 7.071 3.811 11.885l-.122.21h-12.92c0-2.166-.472-3.932-1.415-5.3-.946-1.363-2.377-2.047-4.29-2.047-2.666 0-4.535 1.112-5.604 3.336-1.072 2.224-1.605 5.193-1.605 8.912v.968c0 3.83.533 6.828 1.605 8.994 1.069 2.17 2.975 3.254 5.73 3.254"/></defs><g xmlns="http://www.w3.org/2000/svg" fill="none" fill-rule="evenodd"><path d="M13 0h174v202H13z"/><g filter="url(#a)" opacity=".4" style="mix-blend-mode:screen" transform="translate(13)"><use xmlns:xlink="http://www.w3.org/1999/xlink" fill="url(#b)" fill-opacity=".2" style="mix-blend-mode:lighten" xlink:href="#c"/><use xmlns:xlink="http://www.w3.org/1999/xlink" fill="url(#b)" fill-opacity=".2" style="mix-blend-mode:lighten" xlink:href="#c"/><use xmlns:xlink="http://www.w3.org/1999/xlink" fill="#898E96" fill-opacity=".2" style="mix-blend-mode:lighten" xlink:href="#c"/><use xmlns:xlink="http://www.w3.org/1999/xlink" fill="#FFD105" fill-opacity=".6" style="mix-blend-mode:overlay" xlink:href="#c"/></g><g style="mix-blend-mode:screen" transform="translate(13)"><use xmlns:xlink="http://www.w3.org/1999/xlink" fill="#FFD105" xlink:href="#d"/><use xmlns:xlink="http://www.w3.org/1999/xlink" fill="url(#e)" fill-opacity=".2" style="mix-blend-mode:multiply" xlink:href="#d"/><use xmlns:xlink="http://www.w3.org/1999/xlink" fill="url(#f)" fill-opacity=".2" style="mix-blend-mode:multiply" xlink:href="#d"/><use xmlns:xlink="http://www.w3.org/1999/xlink" fill="url(#g)" fill-opacity=".2" style="mix-blend-mode:overlay" xlink:href="#d"/></g><g opacity=".84" style="mix-blend-mode:lighten" transform="translate(25 12)"><use xmlns:xlink="http://www.w3.org/1999/xlink" fill="#FFF" fill-opacity=".7" style="mix-blend-mode:overlay" xlink:href="#h"/><use xmlns:xlink="http://www.w3.org/1999/xlink" fill="url(#i)" fill-opacity=".5" style="mix-blend-mode:screen" xlink:href="#h"/></g></g></svg>