<svg xmlns="http://www.w3.org/2000/svg" xmlns:xlink="http://www.w3.org/1999/xlink" width="122" height="122"><defs><linearGradient id="b" x1="100%" x2="15.68%" y1="0%" y2="80.787%"><stop offset="0%" stop-opacity="0"/><stop offset="100%" stop-opacity=".3"/></linearGradient><path id="c" d="M121.053 109.94c-18.683 18.746-49.077 18.746-67.881.002-18.813-18.75-18.904-49.135-.222-67.881 18.683-18.744 49.068-18.751 67.881 0 18.805 18.744 18.904 49.137.222 67.879z"/><filter id="a" width="150%" height="150%" x="-25%" y="-25%" filterUnits="objectBoundingBox"><feGaussianBlur in="SourceGraphic" stdDeviation="8"/></filter><radialGradient id="e" r="76.673%" fx="50%" fy="50%" gradientTransform="rotate(-40.661 .659 .441) scale(1 .76483)"><stop offset="0%" stop-color="#DAD5B5" stop-opacity="0"/><stop offset="99.972%" stop-opacity=".2"/></radialGradient><linearGradient id="f" x1="50%" x2="50%" y1="100%" y2="0%"><stop offset="0%" stop-color="#F2EEDA" stop-opacity=".076"/><stop offset="100%" stop-opacity=".3"/></linearGradient><radialGradient id="g" cy="61.43%" r="48.411%" fx="50%" fy="61.43%" gradientTransform="matrix(1 0 0 .83714 0 .1)"><stop offset="0%" stop-color="#FFF" stop-opacity=".3"/><stop offset="25.827%" stop-color="#FFF" stop-opacity=".3"/><stop offset="100%" stop-color="#FFF" stop-opacity="0"/></radialGradient><circle id="d" cx="48" cy="48" r="48"/><radialGradient id="i" cy="71.245%" r="71.245%" fx="50%" fy="71.245%" gradientTransform="matrix(0 -1 .99343 0 -.208 1.212)"><stop offset="0%" stop-color="#FFF"/><stop offset="100%" stop-color="#CCC" stop-opacity="0"/></radialGradient><path id="h" d="M27 48.5C27 42.149 32.372 37 39 37c6.627 0 12 5.149 12 11.5S45.627 60 39 60c-6.628 0-12-5.149-12-11.5"/><radialGradient id="k" cy="71.245%" r="71.245%" fx="50%" fy="71.245%" gradientTransform="matrix(0 -1 1.03662 0 -.239 1.212)"><stop offset="0%" stop-color="#FFF"/><stop offset="100%" stop-color="#CCC" stop-opacity="0"/></radialGradient><path id="j" d="M45 19.5a7.5 7.5 0 1 1 15 0 7.5 7.5 0 0 1-15 0"/><path id="l" d="M0 18.5C0 8.282 8.283 0 18.5 0S37 8.282 37 18.5C37 28.717 28.717 37 18.5 37S0 28.717 0 18.5"/></defs><g xmlns="http://www.w3.org/2000/svg" fill="none" fill-rule="evenodd"><g xmlns="http://www.w3.org/2000/svg" filter="url(#a)" opacity=".4" style="mix-blend-mode:screen" transform="translate(-27 -18)"><use xmlns:xlink="http://www.w3.org/1999/xlink" fill="url(#b)" fill-opacity=".2" style="mix-blend-mode:lighten" xlink:href="#c"/><use xmlns:xlink="http://www.w3.org/1999/xlink" fill="url(#b)" fill-opacity=".2" style="mix-blend-mode:lighten" xlink:href="#c"/><use xmlns:xlink="http://www.w3.org/1999/xlink" fill="#898E96" fill-opacity=".2" style="mix-blend-mode:lighten" xlink:href="#c"/><use xmlns:xlink="http://www.w3.org/1999/xlink" fill="#E5018C" style="mix-blend-mode:overlay" xlink:href="#c"/></g><g style="mix-blend-mode:screen" transform="translate(13)"><use xmlns:xlink="http://www.w3.org/1999/xlink" fill="#E5018C" xlink:href="#d"/><use xmlns:xlink="http://www.w3.org/1999/xlink" fill="url(#e)" fill-opacity=".2" style="mix-blend-mode:multiply" xlink:href="#d"/><use xmlns:xlink="http://www.w3.org/1999/xlink" fill="url(#f)" fill-opacity=".2" style="mix-blend-mode:multiply" xlink:href="#d"/><use xmlns:xlink="http://www.w3.org/1999/xlink" fill="url(#g)" fill-opacity=".2" style="mix-blend-mode:overlay" xlink:href="#d"/></g><g xmlns="http://www.w3.org/2000/svg" opacity=".7"><g style="mix-blend-mode:lighten" transform="translate(32 20)"><use xmlns:xlink="http://www.w3.org/1999/xlink" fill="#FFF" fill-opacity=".7" style="mix-blend-mode:overlay" xlink:href="#h"/><use xmlns:xlink="http://www.w3.org/1999/xlink" fill="url(#i)" fill-opacity=".5" style="mix-blend-mode:screen" xlink:href="#h"/></g><g style="mix-blend-mode:lighten" transform="translate(32 20)"><use xmlns:xlink="http://www.w3.org/1999/xlink" fill="#FFF" fill-opacity=".7" style="mix-blend-mode:overlay" xlink:href="#j"/><use xmlns:xlink="http://www.w3.org/1999/xlink" fill="url(#k)" fill-opacity=".5" style="mix-blend-mode:screen" xlink:href="#j"/></g><g style="mix-blend-mode:lighten" transform="translate(32 20)"><use xmlns:xlink="http://www.w3.org/1999/xlink" fill="#FFF" fill-opacity=".7" style="mix-blend-mode:overlay" xlink:href="#l"/><use xmlns:xlink="http://www.w3.org/1999/xlink" fill="url(#k)" fill-opacity=".5" style="mix-blend-mode:screen" xlink:href="#l"/></g></g></g></svg>