<svg xmlns="http://www.w3.org/2000/svg" xmlns:xlink="http://www.w3.org/1999/xlink" width="122" height="122"><defs><linearGradient id="b" x1="100%" x2="15.68%" y1="0%" y2="80.787%"><stop offset="0%" stop-opacity="0"/><stop offset="100%" stop-opacity=".3"/></linearGradient><path id="c" d="M82.053 93.94c-18.683 18.746-49.077 18.746-67.881.002-18.813-18.75-18.904-49.135-.222-67.881 18.683-18.744 49.068-18.751 67.881 0 18.805 18.744 18.904 49.137.222 67.879z"/><filter id="a" width="150%" height="150%" x="-25%" y="-25%" filterUnits="objectBoundingBox"><feGaussianBlur in="SourceGraphic" stdDeviation="8"/></filter><radialGradient id="e" r="76.63%" fx="50%" fy="50%" gradientTransform="rotate(-40.661 .659 .441) scale(1 .76483)"><stop offset="0%" stop-color="#DAD5B5" stop-opacity="0"/><stop offset="99.972%" stop-opacity=".2"/></radialGradient><linearGradient id="f" x1="50%" x2="50%" y1="100%" y2="0%"><stop offset="0%" stop-color="#F2EEDA" stop-opacity=".076"/><stop offset="100%" stop-opacity=".3"/></linearGradient><radialGradient id="g" cy="61.43%" r="48.411%" fx="50%" fy="61.43%" gradientTransform="matrix(1 0 0 .83714 0 .1)"><stop offset="0%" stop-color="#FFF" stop-opacity=".3"/><stop offset="100%" stop-color="#FFF" stop-opacity="0"/></radialGradient><circle id="d" cx="48" cy="48" r="48"/><radialGradient id="i" cy="71.245%" r="71.245%" fx="50%" fy="71.245%" gradientTransform="matrix(0 -1 .57929 0 .087 1.212)"><stop offset="0%" stop-color="#FFF"/><stop offset="100%" stop-color="#CCC" stop-opacity="0"/></radialGradient><path id="h" d="M32 53.649c-3.3 0-6-2.773-6-6.163 0-3.389 2.7-6.162 6-6.162s6 2.773 6 6.162c0 3.39-2.7 6.163-6 6.163zm18.01-11.982C47.474 34.288 40.612 29 32.544 29 22.315 29 14 37.518 14 48s8.315 19 18.545 19c8.068 0 14.93-5.288 17.464-12.667h13.446V67h12.363V54.333H82V41.667H50.01z"/></defs><g fill="none" fill-rule="evenodd" transform="translate(13, 0)"><path d="M0 0h174v202H0z"/><g filter="url(#a)" opacity=".4" style="mix-blend-mode:screen"><use fill="url(#b)" fill-opacity=".2" style="mix-blend-mode:lighten" xlink:href="#c"/><use fill="url(#b)" fill-opacity=".2" style="mix-blend-mode:lighten" xlink:href="#c"/><use fill="#898E96" fill-opacity=".2" style="mix-blend-mode:lighten" xlink:href="#c"/><use fill="#8967AC" style="mix-blend-mode:overlay" xlink:href="#c"/></g><g style="mix-blend-mode:screen"><use fill="#8967AC" xlink:href="#d"/><use fill="url(#e)" fill-opacity=".2" style="mix-blend-mode:multiply" xlink:href="#d"/><use fill="url(#f)" fill-opacity=".2" style="mix-blend-mode:multiply" xlink:href="#d"/><use fill="url(#g)" fill-opacity=".2" style="mix-blend-mode:overlay" xlink:href="#d"/></g><g opacity=".7" style="mix-blend-mode:lighten"><use fill="#FFF" fill-opacity=".7" style="mix-blend-mode:overlay" xlink:href="#h"/><use fill="url(#i)" fill-opacity=".5" style="mix-blend-mode:screen" xlink:href="#h"/></g></g></svg>