<svg xmlns="http://www.w3.org/2000/svg" xmlns:xlink="http://www.w3.org/1999/xlink" width="122" height="122"><defs><linearGradient id="b" x1="100%" x2="15.68%" y1="0%" y2="80.787%"><stop offset="0%" stop-opacity="0"/><stop offset="100%" stop-opacity=".3"/></linearGradient><path id="c" d="M82.053 93.94c-18.683 18.746-49.077 18.746-67.881.002-18.813-18.75-18.904-49.135-.222-67.881 18.683-18.744 49.068-18.751 67.881 0 18.805 18.744 18.904 49.137.222 67.879z"/><filter id="a" width="150%" height="150%" x="-25%" y="-25%" filterUnits="objectBoundingBox"><feGaussianBlur in="SourceGraphic" stdDeviation="8"/></filter><radialGradient id="e" r="76.673%" fx="50%" fy="50%" gradientTransform="rotate(-40.661 .659 .441) scale(1 .76483)"><stop offset="0%" stop-color="#DAD5B5" stop-opacity="0"/><stop offset="99.972%" stop-opacity=".2"/></radialGradient><linearGradient id="f" x1="50%" x2="50%" y1="100%" y2="0%"><stop offset="0%" stop-color="#F2EEDA" stop-opacity=".076"/><stop offset="100%" stop-opacity=".3"/></linearGradient><radialGradient id="g" cy="61.43%" r="48.411%" fx="50%" fy="61.43%" gradientTransform="matrix(1 0 0 .83714 0 .1)"><stop offset="0%" stop-color="#FFF" stop-opacity=".3"/><stop offset="25.827%" stop-color="#FFF" stop-opacity=".3"/><stop offset="100%" stop-color="#FFF" stop-opacity="0"/></radialGradient><circle id="d" cx="48" cy="48" r="48"/><radialGradient id="i" cy="71.245%" r="71.245%" fx="50%" fy="71.245%" gradientTransform="matrix(0 -.72727 1.03662 0 -.239 1.076)"><stop offset="0%" stop-color="#FFF"/><stop offset="100%" stop-color="#CCC" stop-opacity="0"/></radialGradient><path id="h" d="M43.5 41.61v7.89h-15v-7.89l-2.271-1.98C21.6 36.528 19.5 31.479 19.5 26.1c0-9.108 7.037-15.6 16.5-15.6 9.463 0 16.5 6.492 16.5 15.6 0 5.379-2.1 10.428-6.729 13.53L43.5 41.61zM12 26.1c0 7.854 4.297 14.751 10.5 18.942V52.5c0 1.818 1.329 3 3.214 3h20.572c1.889 0 3.214-1.182 3.214-3v-7.458C55.703 40.851 60 33.954 60 26.1 60 13.362 49.234 3 36 3S12 13.362 12 26.1zm13.5 39.6V63h21v2.7c0 1.815-1.114 3.3-3 3.3h-15c-1.883 0-3-1.485-3-3.3zM33 30V15h6v15h-6zm0 9v-6h6v6h-6z"/></defs><g xmlns="http://www.w3.org/2000/svg" fill="none" fill-rule="evenodd"><path d="M13 0h174v202H13z"/><g filter="url(#a)" opacity=".4" style="mix-blend-mode:screen" transform="translate(13)"><use xmlns:xlink="http://www.w3.org/1999/xlink" fill="url(#b)" fill-opacity=".2" style="mix-blend-mode:lighten" xlink:href="#c"/><use xmlns:xlink="http://www.w3.org/1999/xlink" fill="url(#b)" fill-opacity=".2" style="mix-blend-mode:lighten" xlink:href="#c"/><use xmlns:xlink="http://www.w3.org/1999/xlink" fill="#898E96" fill-opacity=".2" style="mix-blend-mode:lighten" xlink:href="#c"/><use xmlns:xlink="http://www.w3.org/1999/xlink" fill="#0085E9" fill-opacity=".6" style="mix-blend-mode:overlay" xlink:href="#c"/></g><g style="mix-blend-mode:screen" transform="translate(13)"><use xmlns:xlink="http://www.w3.org/1999/xlink" fill="#0085E9" xlink:href="#d"/><use xmlns:xlink="http://www.w3.org/1999/xlink" fill="url(#e)" fill-opacity=".2" style="mix-blend-mode:multiply" xlink:href="#d"/><use xmlns:xlink="http://www.w3.org/1999/xlink" fill="url(#f)" fill-opacity=".2" style="mix-blend-mode:multiply" xlink:href="#d"/><use xmlns:xlink="http://www.w3.org/1999/xlink" fill="url(#g)" fill-opacity=".2" style="mix-blend-mode:overlay" xlink:href="#d"/></g><path d="M64 28h72v72H64z"/><g opacity=".7" style="mix-blend-mode:lighten" transform="translate(25 12)"><use xmlns:xlink="http://www.w3.org/1999/xlink" fill="#FFF" fill-opacity=".7" style="mix-blend-mode:overlay" xlink:href="#h"/><use xmlns:xlink="http://www.w3.org/1999/xlink" fill="url(#i)" fill-opacity=".5" style="mix-blend-mode:screen" xlink:href="#h"/></g></g></svg>