<svg width="108" height="80" xmlns="http://www.w3.org/2000/svg" xmlns:xlink="http://www.w3.org/1999/xlink"><defs><path id="a" d="M0 0h108v80H0z"/><linearGradient x1="71.382561%" y1="20.375526%" x2="22.399066%" y2="79.579948%" id="d"><stop stop-color="#A0A0A0" stop-opacity=".01" offset="0%"/><stop stop-opacity=".05" offset="100%"/></linearGradient><path id="c" d="M0 32.5L54 64l54-31.5L54 1z"/><linearGradient x1="0%" y1="6.818945%" x2="98.936323%" y2="91.901058%" id="f"><stop stop-color="#FFF" stop-opacity=".5" offset="0%"/><stop stop-opacity=".5" offset="100%"/></linearGradient><path id="e" d="M0 35.186747L54 66v-4L0 31z"/><linearGradient x1="97.900048%" y1="12.115739%" x2="4.558698%" y2="95.274631%" id="h"><stop stop-opacity="0" offset="0%"/><stop offset="100%"/></linearGradient><path id="g" d="M54 66l54-30.813253V31L54 62z"/><path id="i" d="M0 31l54 31 54-31L54 0z"/><radialGradient cx="47.222246%" fx="47.222246%" fy="50%" r="152.452935%" gradientTransform="matrix(.45501 -.76418 .36755 .43975 .07358 .640989)" id="k"><stop stop-color="#FFF" offset="0%"/><stop stop-color="#CCC" stop-opacity="0" offset="100%"/></radialGradient><path d="M40.4085 34.522733c1.47.791 1.46 2.072 0 2.865334-1.4575.788666-3.8275.798-5.2975.007-1.485-.798-1.475-2.081334-.015-2.872334 1.46-.791 3.8275-.802666 5.3125 0zm40.10065-1.708973l3.4741 2.017733-27.6311 16.169-8.68035-5.0468-1.7248 1.008867-6.9629-4.045333c-.95305-.555-.9604-1.4652-.01225-2.0202l5.19155-3.036467c.94815-.555 2.5088-.555 3.46185 0l6.9629 4.0478-1.7248 1.008867 5.20625 3.0266 13.81555-8.083267-6.84775-3.9812c-6.67625 2.7898-16.0181 2.4346-22.0402-1.0656-6.72525-3.909667-6.75955-10.236667-.0784-14.146333 6.6836-3.909667 17.51995-3.902267 24.2452.009866 6.2426 3.626 6.7081 9.336334 1.4308 13.246l6.7424 3.919534 5.17195-3.029067z" id="j"/></defs><g fill="none" fill-rule="evenodd"><mask id="b" fill="#fff"><use xlink:href="#a"/></mask><path fill="#D9DEE5" style="mix-blend-mode:multiply" opacity=".7" mask="url(#b)" d="M0 48.186747L54 79l54-30.813253L54 17z"/><g mask="url(#b)"><use fill="#54C2BA" xlink:href="#c"/><use fill="url(#d)" style="mix-blend-mode:multiply" xlink:href="#c"/><use fill="#54C2BA" xlink:href="#e"/><use fill-opacity=".1" fill="url(#f)" style="mix-blend-mode:multiply" xlink:href="#e"/><use fill-opacity=".14" fill="#3B404C" style="mix-blend-mode:multiply" xlink:href="#e"/><g><use fill="#54C2BA" xlink:href="#g"/><use fill-opacity=".09" fill="url(#h)" style="mix-blend-mode:multiply" xlink:href="#g"/><use fill-opacity=".17" fill="#3B404C" style="mix-blend-mode:multiply" xlink:href="#g"/></g><g><use fill="#54C2BA" xlink:href="#i"/><use fill="url(#d)" style="mix-blend-mode:multiply" xlink:href="#i"/></g></g><g mask="url(#b)"><use fill-opacity=".77" fill="#FFF" style="mix-blend-mode:lighten" xlink:href="#j"/><use fill-opacity=".3" fill="url(#k)" style="mix-blend-mode:screen" xlink:href="#j"/></g></g></svg>