<svg width="94" height="86" xmlns="http://www.w3.org/2000/svg" xmlns:xlink="http://www.w3.org/1999/xlink"><defs><path id="a" d="M0 0h94v86H0z"/><linearGradient x1="71.072049%" y1="21.926978%" x2="22.501628%" y2="69.345388%" id="c"><stop stop-opacity="0" offset="0%"/><stop stop-opacity=".7" offset="100%"/></linearGradient><radialGradient cx="26.991328%" cy="87.253473%" fx="26.991328%" fy="87.253473%" r="103.032542%" gradientTransform="matrix(.15029 -.96527 .64628 .30405 -.33455 .867777)" id="e"><stop stop-opacity=".5" offset="0%"/><stop stop-opacity="0" offset="100%"/></radialGradient><path id="d" d="M0 58l47 27 46-26.5-47-27z"/><linearGradient x1="71.382561%" y1="20.375526%" x2="22.399066%" y2="79.579948%" id="g"><stop stop-color="#A0A0A0" stop-opacity=".01" offset="0%"/><stop stop-opacity=".05" offset="100%"/></linearGradient><path id="f" d="M1 58l46.5 26.5L48 30 1 3z"/><linearGradient x1="8.68927%" y1="0%" y2="89.658981%" id="i"><stop stop-color="#888" offset="0%"/><stop stop-color="#EAEAEA" stop-opacity="0" offset="100%"/></linearGradient><path id="h" d="M0 3l47 27 4.5-2.5-47-27z"/><linearGradient x1="50%" y1="0%" x2="50%" y2="100%" id="k"><stop stop-color="#FFF" offset="0%"/><stop offset="100%"/></linearGradient><path id="j" d="M51.5 82.5v-55L47 30v55z"/><path id="l" d="M0 58l47 27V30L0 3z"/><radialGradient cx="47.222246%" fx="47.222246%" fy="50%" r="152.452935%" gradientTransform="matrix(.41313 -.69384 .62089 .2146 -.03331 .720346)" id="n"><stop stop-color="#FFF" offset="0%"/><stop stop-color="#CCC" stop-opacity="0" offset="100%"/></radialGradient><path d="M22.987233 51.502796c3.630613 2.077202 6.58803.423731 6.601958-3.735278.011607-4.154403-2.92724-9.186204-6.557853-11.268012-3.649184-2.088715-6.606601-.432942-6.618208 3.723764-.013928 4.154403 2.92724 9.19081 6.574103 11.279526m11.04737-.442153c3.14777 3.901085 4.90272 8.67957 4.905042 12.57605-.376061.027634-.76605.020726-1.167646-.018424-.039464-.004605-.08357-.018422-.125354-.023028-.352847-.043755-.712659-.10363-1.079434-.200351-.174103-.043755-.352848-.122053-.52695-.177322-.243743-.080601-.485165-.149688-.73123-.251015-.176423-.073692-.352847-.175019-.524628-.257923-.253028-.122053-.508378-.232591-.761407-.377673-.257671-.145081-.517664-.322403-.773014-.492817-.160174-.108235-.32267-.198048-.482844-.308586-.264635-.19114-.531592-.416822-.798549-.633293-.155531-.128962-.313384-.237198-.468915-.373068-.25535-.225682-.5107-.481302-.76373-.727711-.157852-.156596-.318026-.292466-.473557-.455971-.406239-.42373-.803192-.877399-1.193181-1.358702-.457309-.568812-.889083-1.151442-1.288357-1.750192.090533.642505.132317 1.257375.132317 1.865336-.013928 4.156706-2.0103 6.65073-4.965397 6.904047-2.943489-3.631648-4.93522-8.410133-4.923612-12.566839.002321-.60796.064998-1.165259.139282-1.731768-.385347.13587-.81712.244105-1.27675.283254-.394632.03224-.79855.02303-1.204788-.018423-.16946-.018423-.343562-.071389-.5107-.099024-.246065-.043754-.487487-.075995-.738194-.145081-.194995-.050664-.39231-.138173-.589626-.209563-.225173-.078298-.448024-.142779-.670875-.237197-.201958-.08751-.406238-.204957-.610518-.306283-.22053-.110539-.44106-.209563-.656946-.336222-.297135-.172716-.589627-.373067-.88444-.573418-.129996-.085206-.262314-.163504-.389989-.25562-.276242-.20035-.550163-.43064-.819441-.654019-.148568-.124356-.3041-.232591-.450345-.361553-.35749-.315495-.712659-.658625-1.058542-1.015572-.046427-.04836-.095176-.089812-.143924-.13587C7.761407 46.21998 7.37374 45.784735 7 45.324158c.025535-3.878056 1.801378-6.634609 4.965397-6.920166.45963-.025332.947117.002302 1.422996.069086-.473558-.472091-.961044-1.00636-1.418353-1.575173-3.16634-3.894177-4.91897-8.670358-4.907363-12.555324.371418-.034543.759086-.027634 1.156039.011515.232136.025332.473558.082904.712659.131264.164817.029938.32499.04836.489807.092116.250708.06448.506058.163504.759086.25562.16946.057572.336598.10363.503736.172716.23678.099024.473559.230288.710338.347736.192673.094418.380703.175019.575698.285557.329634.188837.666231.409913 1.000508.6379.08589.057571.16946.103629.25535.163504.34124.246408.68248.520452 1.0214.808312.083569.069087.167138.124356.250707.198048.297135.260226.591948.552692.88444.842856.11839.122053.243743.227985.366775.352341.406239.42373.805513.879702 1.195503 1.361004.46195.56651.889082 1.167563 1.272107 1.759404-.071962-.633293-.127675-1.259678-.127675-1.867639.013928-4.156706 2.02423-6.641518 4.979325-6.894835 2.94349 3.631648 4.91897 8.400921 4.907363 12.557627-.002321.607961-.046427 1.17447-.139282 1.713346.401596-.122053.831049-.230289 1.293-.274043.39231-.029938.79855-.02303 1.20943.020725.116069.013818.234458.046058.348205.066784.297135.046058.591948.089813.891404.172716.176424.050664.355169.126659.533914.188837.243743.082904.489807.154293.73355.260226.190352.0806.378383.188836.568735.283254.232136.117448.464272.22338.696409.354645.269278.156596.536235.34313.805513.520452.155531.105932.315706.198047.47588.310889.225172.163505.44338.356947.666231.534269.199637.161202.403917.313192.601233.485909.125354.11284.246065.241802.371418.356946.682482.635596 1.348713 1.331067 1.968517 2.097928-.023214 3.88036-1.799057 6.636912-4.963076 6.92247-.45963.023028-.93551.006908-1.409068-.062178.471237.474394.947117.999451 1.406747 1.54984" id="m"/></defs><g fill="none" fill-rule="evenodd"><mask id="b" fill="#fff"><use xlink:href="#a"/></mask><g opacity=".3" mask="url(#b)"><use fill-opacity=".4" fill="url(#c)" style="mix-blend-mode:multiply" xlink:href="#d"/><use fill-opacity=".1" fill="url(#e)" style="mix-blend-mode:multiply" xlink:href="#d"/><use fill-opacity=".15" fill="#000" style="mix-blend-mode:multiply" xlink:href="#d"/></g><g mask="url(#b)"><use fill="#ED1C24" xlink:href="#f"/><use fill="url(#g)" style="mix-blend-mode:multiply" xlink:href="#f"/></g><g mask="url(#b)"><use fill="#ED1C24" xlink:href="#h"/><use fill-opacity=".13" fill="#ECEEF2" xlink:href="#h"/><use fill-opacity=".2" fill="url(#i)" style="mix-blend-mode:screen" xlink:href="#h"/></g><g mask="url(#b)"><use fill="#ED1C24" xlink:href="#j"/><use fill-opacity=".1" fill="url(#k)" style="mix-blend-mode:multiply" xlink:href="#j"/><use fill-opacity=".2" fill="#3B404C" style="mix-blend-mode:multiply" xlink:href="#j"/></g><g mask="url(#b)"><use fill="#ED1C24" xlink:href="#l"/><use fill="url(#g)" style="mix-blend-mode:multiply" xlink:href="#l"/></g><g mask="url(#b)"><use fill-opacity=".73" fill="#FFF" style="mix-blend-mode:lighten" xlink:href="#m"/><use fill-opacity=".6" fill="url(#n)" style="mix-blend-mode:screen" xlink:href="#m"/></g></g></svg>