<svg width="108" height="80" xmlns="http://www.w3.org/2000/svg" xmlns:xlink="http://www.w3.org/1999/xlink"><defs><path id="a" d="M0 0h108v80H0z"/><linearGradient x1="71.382561%" y1="20.375526%" x2="22.399066%" y2="79.579948%" id="d"><stop stop-color="#A0A0A0" stop-opacity=".01" offset="0%"/><stop stop-opacity=".05" offset="100%"/></linearGradient><path id="c" d="M0 32.5L54 64l54-31.5L54 1z"/><linearGradient x1="0%" y1="6.818945%" x2="98.936323%" y2="91.901058%" id="f"><stop stop-color="#FFF" stop-opacity=".5" offset="0%"/><stop stop-opacity=".5" offset="100%"/></linearGradient><path id="e" d="M0 35.186747L54 66v-4L0 31z"/><linearGradient x1="97.900048%" y1="12.115739%" x2="4.558698%" y2="95.274631%" id="h"><stop stop-opacity="0" offset="0%"/><stop offset="100%"/></linearGradient><path id="g" d="M54 66l54-30.813253V31L54 62z"/><path id="i" d="M0 31l54 31 54-31L54 0z"/><radialGradient cx="47.222246%" fx="47.222246%" fy="50%" r="152.452935%" gradientTransform="matrix(.41124 -.69066 .26777 .49305 .144142 .579618)" id="k"><stop stop-color="#FFF" offset="0%"/><stop stop-color="#CCC" stop-opacity="0" offset="100%"/></radialGradient><path d="M33 41.000977L38.383178 38 42 40.001466 36.614274 43 33 41.000977zm35-20.001465L73.386228 18 77 20.000488 71.613772 23 68 20.999512zm9 8.010887L84 29v3l-7-.007799v-2.981802zm-10.914761-4.590644c6.1335 3.574909 6.164833 9.38809.0705 12.965636-6.094333 3.574909-16.013945 3.567-22.150056-.010545-4.102055-2.391182-5.467666-5.781546-4.086389-8.834455l-8.919555-5.19891L42.04735 16.8613l8.919556 5.196273c5.19611-.806728 11.016277-.029 15.118333 2.362181zm5.609711 14.044172l5.467667 3.184728-3.676445 2.156545-5.467666-3.184727 3.676444-2.156546zM53 43.008141L57.965087 43 58 46.991859 53.034913 47 53 43.008141z" id="j"/></defs><g fill="none" fill-rule="evenodd"><mask id="b" fill="#fff"><use xlink:href="#a"/></mask><path fill="#D9DEE5" style="mix-blend-mode:multiply" opacity=".7" mask="url(#b)" d="M0 48.186747L54 79l54-30.813253L54 17z"/><g mask="url(#b)"><use fill="#39BCED" xlink:href="#c"/><use fill="url(#d)" style="mix-blend-mode:multiply" xlink:href="#c"/><use fill="#39BCED" xlink:href="#e"/><use fill-opacity=".1" fill="url(#f)" style="mix-blend-mode:multiply" xlink:href="#e"/><use fill-opacity=".14" fill="#3B404C" style="mix-blend-mode:multiply" xlink:href="#e"/><g><use fill="#39BCED" xlink:href="#g"/><use fill-opacity=".09" fill="url(#h)" style="mix-blend-mode:multiply" xlink:href="#g"/><use fill-opacity=".11" fill="#3B404C" style="mix-blend-mode:multiply" xlink:href="#g"/></g><g><use fill="#39BCED" xlink:href="#i"/><use fill="url(#d)" style="mix-blend-mode:multiply" xlink:href="#i"/></g></g><g mask="url(#b)"><use fill-opacity=".77" fill="#FFF" style="mix-blend-mode:lighten" xlink:href="#j"/><use fill-opacity=".3" fill="url(#k)" style="mix-blend-mode:screen" xlink:href="#j"/></g></g></svg>