<svg width="94" height="86" xmlns="http://www.w3.org/2000/svg" xmlns:xlink="http://www.w3.org/1999/xlink"><defs><path id="a" d="M0 0h94v86H0z"/><linearGradient x1="71.072049%" y1="21.926978%" x2="22.501628%" y2="69.345388%" id="c"><stop stop-opacity="0" offset="0%"/><stop stop-opacity=".7" offset="100%"/></linearGradient><radialGradient cx="26.991328%" cy="87.253473%" fx="26.991328%" fy="87.253473%" r="103.032542%" gradientTransform="matrix(.15029 -.96527 .64628 .30405 -.33455 .867777)" id="e"><stop stop-opacity=".5" offset="0%"/><stop stop-opacity="0" offset="100%"/></radialGradient><path id="d" d="M0 58l47 27 46-26.5-47-27z"/><linearGradient x1="71.382561%" y1="20.375526%" x2="22.399066%" y2="79.579948%" id="g"><stop stop-color="#A0A0A0" stop-opacity=".01" offset="0%"/><stop stop-opacity=".05" offset="100%"/></linearGradient><path id="f" d="M1 58l46.5 26.5L48 30 1 3z"/><linearGradient x1="8.68927%" y1="0%" y2="89.658981%" id="i"><stop stop-color="#888" offset="0%"/><stop stop-color="#EAEAEA" stop-opacity="0" offset="100%"/></linearGradient><path id="h" d="M0 3l47 27 4.5-2.5-47-27z"/><linearGradient x1="50%" y1="0%" x2="50%" y2="100%" id="k"><stop stop-color="#FFF" offset="0%"/><stop offset="100%"/></linearGradient><path id="j" d="M51.5 82.5v-55L47 30v55z"/><path id="l" d="M0 58l47 27V30L0 3z"/><radialGradient cx="47.222246%" fx="47.222246%" fy="50%" r="152.452935%" gradientTransform="matrix(.43662 -.7333 .61337 .24264 -.040645 .724958)" id="n"><stop stop-color="#FFF" offset="0%"/><stop stop-color="#CCC" stop-opacity="0" offset="100%"/></radialGradient><path d="M37.306327 54.649617l.011745-3.826519 4.991622 2.88457-.007047 3.826519-4.99632-2.88457zM22.25606 65.03407l.014094-5.635248 3.33088 1.92148-.016443 5.635248-3.328531-1.92148zM9.856635 50.38548l2.994973-1.721816 2.332556 4.054371L12.18919 54.4422l-2.332555-4.05672zm19.145043-12.405766c2.97853 3.720813 4.977528 8.566797 4.963434 12.825532-.018792 6.325853-4.517124 8.88861-10.018479 5.712764-5.520147-3.18759-9.987942-10.927541-9.96915-17.253394.009396-4.258734 2.029535-6.786257 5.01981-7.06109l.025839-9.203376 10.004385 5.776187-.02584 9.203377zm3.668196 24.85264l2.332555-1.348326 3.00437 5.170146-2.360744 1.345976-2.976181-5.167797zM10.652476 35.428935l-.011745 3.826519-5.010414-2.893966.011745-3.82417 5.010414 2.891617z" id="m"/></defs><g fill="none" fill-rule="evenodd"><mask id="b" fill="#fff"><use xlink:href="#a"/></mask><g opacity=".3" mask="url(#b)"><use fill-opacity=".4" fill="url(#c)" style="mix-blend-mode:multiply" xlink:href="#d"/><use fill-opacity=".1" fill="url(#e)" style="mix-blend-mode:multiply" xlink:href="#d"/><use fill-opacity=".15" fill="#000" style="mix-blend-mode:multiply" xlink:href="#d"/></g><g mask="url(#b)"><use fill="#39BCED" xlink:href="#f"/><use fill="url(#g)" style="mix-blend-mode:multiply" xlink:href="#f"/></g><g mask="url(#b)"><use fill="#39BCED" xlink:href="#h"/><use fill-opacity=".13" fill="#ECEEF2" xlink:href="#h"/><use fill-opacity=".2" fill="url(#i)" style="mix-blend-mode:screen" xlink:href="#h"/></g><g mask="url(#b)"><use fill="#39BCED" xlink:href="#j"/><use fill-opacity=".1" fill="url(#k)" style="mix-blend-mode:multiply" xlink:href="#j"/><use fill-opacity=".14" fill="#3B404C" style="mix-blend-mode:multiply" xlink:href="#j"/></g><g mask="url(#b)"><use fill="#39BCED" xlink:href="#l"/><use fill="url(#g)" style="mix-blend-mode:multiply" xlink:href="#l"/></g><g mask="url(#b)"><use fill-opacity=".73" fill="#FFF" style="mix-blend-mode:lighten" xlink:href="#m"/><use fill-opacity=".6" fill="url(#n)" style="mix-blend-mode:screen" xlink:href="#m"/></g></g></svg>