<svg width="108" height="80" xmlns="http://www.w3.org/2000/svg" xmlns:xlink="http://www.w3.org/1999/xlink"><defs><path id="a" d="M0 0h108v80H0z"/><linearGradient x1="71.382561%" y1="20.375526%" x2="22.399066%" y2="79.579948%" id="d"><stop stop-color="#A0A0A0" stop-opacity=".01" offset="0%"/><stop stop-opacity=".05" offset="100%"/></linearGradient><path id="c" d="M0 32.5L54 64l54-31.5L54 1z"/><linearGradient x1="0%" y1="6.818945%" x2="98.936323%" y2="91.901058%" id="f"><stop stop-color="#FFF" stop-opacity=".5" offset="0%"/><stop stop-opacity=".5" offset="100%"/></linearGradient><path id="e" d="M0 35.186747L54 66v-4L0 31z"/><linearGradient x1="97.900048%" y1="12.115739%" x2="4.558698%" y2="95.274631%" id="h"><stop stop-opacity="0" offset="0%"/><stop offset="100%"/></linearGradient><path id="g" d="M54 66l54-30.813253V31L54 62z"/><path id="i" d="M0 31l54 31 54-31L54 0z"/><radialGradient cx="47.222246%" fx="47.222246%" fy="50%" r="152.452935%" gradientTransform="matrix(.44409 -.74583 .339 .45416 .093013 .625119)" id="k"><stop stop-color="#FFF" offset="0%"/><stop stop-color="#CCC" stop-opacity="0" offset="100%"/></radialGradient><path d="M60.195479 26.266347c1.568119.978204 4.074976.978204 5.632428 0 1.557452-.975327 1.56812-2.55484 0-3.533044-1.581453-.983958-4.112313-.97245-5.667098.002878-1.557451.975327-1.54945 2.54333.03467 3.530166m-22.00848 12.006725c1.563573.976865 4.08873.965373 5.644313-.011492 1.552919-.973992 1.563573-2.551342 0-3.528207-1.579555-.98261-4.107376-.973991-5.662959.002873-1.555582.973992-1.566237 2.551342.018646 3.536826m-1.998416-8.01072c1.563731.976793 4.091808.985412 5.644884.014364 1.571723-.988286 1.545084-2.56552-.018648-3.539442-1.566395-.976794-4.091808-.988286-5.663532-.002873-1.55574.976794-1.526436 2.55403.037296 3.52795m9.990946-5.992745c1.562915.973859 4.105646.973859 5.660573 0 1.554927-.97673 1.544277-2.565354-.018637-3.539212-1.565578-.973859-4.10831-.973859-5.660574 0-1.554927.973858-1.546939 2.562482.018638 3.539212m26.786272 14.904058c1.642347.963635 1.631175 2.524212 0 3.487847-9.778667 5.784652-25.707757 5.784652-35.547873 0-9.845702-5.784652-9.895978-15.170854-.11731-20.958349 9.78146-5.784652 24.813963-6.304844 33.570353-1.162616 5.47449 3.217802 5.508007 8.43678.083793 11.643212l-3.491383 2.063714c-1.628382.963634-1.639554 2.524211.002793 3.487846.768104.45197 1.76245.68222 2.703727.713488 1.011105.031268 2.011037.26436 2.7959.724858" id="j"/></defs><g fill="none" fill-rule="evenodd"><mask id="b" fill="#fff"><use xlink:href="#a"/></mask><path fill="#D9DEE5" style="mix-blend-mode:multiply" opacity=".7" mask="url(#b)" d="M0 48.186747L54 79l54-30.813253L54 17z"/><g mask="url(#b)"><use fill="#FFD105" xlink:href="#c"/><use fill="url(#d)" style="mix-blend-mode:multiply" xlink:href="#c"/><use fill="#FFD105" xlink:href="#e"/><use fill-opacity=".1" fill="url(#f)" style="mix-blend-mode:multiply" xlink:href="#e"/><use fill-opacity=".09" fill="#3B404C" style="mix-blend-mode:multiply" xlink:href="#e"/><g><use fill="#FFD105" xlink:href="#g"/><use fill-opacity=".09" fill="url(#h)" style="mix-blend-mode:multiply" xlink:href="#g"/><use fill-opacity=".12" fill="#3B404C" style="mix-blend-mode:multiply" xlink:href="#g"/></g><g><use fill="#FFD105" xlink:href="#i"/><use fill="url(#d)" style="mix-blend-mode:multiply" xlink:href="#i"/></g></g><g mask="url(#b)"><use fill-opacity=".77" fill="#FFF" style="mix-blend-mode:lighten" xlink:href="#j"/><use fill-opacity=".3" fill="url(#k)" style="mix-blend-mode:screen" xlink:href="#j"/></g></g></svg>