<svg width="94" height="86" xmlns="http://www.w3.org/2000/svg" xmlns:xlink="http://www.w3.org/1999/xlink"><defs><path id="a" d="M0 0h94v86H0z"/><linearGradient x1="71.072049%" y1="21.926978%" x2="22.501628%" y2="69.345388%" id="c"><stop stop-opacity="0" offset="0%"/><stop stop-opacity=".7" offset="100%"/></linearGradient><radialGradient cx="26.991328%" cy="87.253473%" fx="26.991328%" fy="87.253473%" r="103.032542%" gradientTransform="matrix(.15029 -.96527 .64628 .30405 -.33455 .867777)" id="e"><stop stop-opacity=".5" offset="0%"/><stop stop-opacity="0" offset="100%"/></radialGradient><path id="d" d="M0 58l47 27 46-26.5-47-27z"/><linearGradient x1="71.382561%" y1="20.375526%" x2="22.399066%" y2="79.579948%" id="g"><stop stop-color="#A0A0A0" stop-opacity=".01" offset="0%"/><stop stop-opacity=".05" offset="100%"/></linearGradient><path id="f" d="M1 58l46.5 26.5L48 30 1 3z"/><linearGradient x1="8.68927%" y1="0%" y2="89.658981%" id="i"><stop stop-color="#888" offset="0%"/><stop stop-color="#EAEAEA" stop-opacity="0" offset="100%"/></linearGradient><path id="h" d="M0 3l47 27 4.5-2.5-47-27z"/><linearGradient x1="50%" y1="0%" x2="50%" y2="100%" id="k"><stop stop-color="#FFF" offset="0%"/><stop offset="100%"/></linearGradient><path id="j" d="M51.5 82.5v-55L47 30v55z"/><path id="l" d="M0 58l47 27V30L0 3z"/><radialGradient cx="47.222246%" fx="47.222246%" fy="50%" r="152.452935%" gradientTransform="matrix(.43603 -.7323 .61356 .2419 -.040462 .724855)" id="n"><stop stop-color="#FFF" offset="0%"/><stop stop-color="#CCC" stop-opacity="0" offset="100%"/></radialGradient><path d="M13.304806 38.172483c1.611455.931793 2.910484.19184 2.913225-1.658045.005481-1.871809-1.282587-4.105373-2.894041-5.031685-1.627898-.942756-2.926928-.202802-2.929669 1.669007-.00548 1.849884 1.282587 4.080707 2.910485 5.020722m21.38192 12.346265c1.611456.931793 2.926929.200061 2.93241-1.649823.005481-1.869068-1.304511-4.113594-2.913225-5.042647-1.608714-.929053-2.926928-.202802-2.93241 1.669007-.00548 1.849884 1.304512 4.09441 2.913226 5.023463m-5.799045-12.288713c1.605974.929053 2.905004.167175 2.910485-1.68271.005481-1.852624-1.285327-4.105372-2.894041-5.037165-1.625158-.937275-2.924188-.175397-2.929669 1.674487-.00548 1.849885 1.285327 4.105373 2.913225 5.045388m-9.72902-5.615426c1.608714.929053 2.924187.178137 2.929668-1.674488.005481-1.847143-1.30451-4.116335-2.910484-5.042647-1.611455-.931794-2.929669-.180878-2.93515 1.669007-.005481 1.852624 1.30451 4.116335 2.915966 5.048128m4.894656-8.37518c9.657766 5.577059 17.47661 18.1042 17.446464 27.978472-.016443 6.174502-4.387651 8.66568-9.759167 5.560615l-3.431193-1.97595c-1.627898-.940016-2.926928-.202803-2.932409 1.647081-.00274.86876.295982 1.819738.728992 2.636428.471377.874242.748175 1.822479.745435 2.704942-.005482 1.852625-1.30177 2.592578-2.910485 1.663525-9.663247-5.577058-17.47387-19.109989-17.440983-30.212035.030147-11.093824 7.89284-15.577395 17.553346-10.003077" id="m"/></defs><g fill="none" fill-rule="evenodd"><mask id="b" fill="#fff"><use xlink:href="#a"/></mask><g opacity=".3" mask="url(#b)"><use fill-opacity=".4" fill="url(#c)" style="mix-blend-mode:multiply" xlink:href="#d"/><use fill-opacity=".1" fill="url(#e)" style="mix-blend-mode:multiply" xlink:href="#d"/><use fill-opacity=".15" fill="#000" style="mix-blend-mode:multiply" xlink:href="#d"/></g><g mask="url(#b)"><use fill="#FFD105" xlink:href="#f"/><use fill="url(#g)" style="mix-blend-mode:multiply" xlink:href="#f"/></g><g mask="url(#b)"><use fill="#FFD105" xlink:href="#h"/><use fill-opacity=".13" fill="#ECEEF2" xlink:href="#h"/><use fill-opacity=".4" fill="url(#i)" style="mix-blend-mode:screen" xlink:href="#h"/></g><g mask="url(#b)"><use fill="#FFD105" xlink:href="#j"/><use fill-opacity=".1" fill="url(#k)" style="mix-blend-mode:multiply" xlink:href="#j"/><use fill-opacity=".07" fill="#3B404C" style="mix-blend-mode:multiply" xlink:href="#j"/></g><g mask="url(#b)"><use fill="#FFD105" xlink:href="#l"/><use fill="url(#g)" style="mix-blend-mode:multiply" xlink:href="#l"/></g><g mask="url(#b)"><use fill-opacity=".73" fill="#FFF" style="mix-blend-mode:lighten" xlink:href="#m"/><use fill-opacity=".6" fill="url(#n)" style="mix-blend-mode:screen" xlink:href="#m"/></g></g></svg>