<svg width="108" height="87" xmlns="http://www.w3.org/2000/svg" xmlns:xlink="http://www.w3.org/1999/xlink"><defs><linearGradient x1="0%" y1="21.658954%" y2="15.252451%" id="b"><stop stop-color="#8A939C" stop-opacity=".386238" offset="0%"/><stop stop-color="#E1E7EC" stop-opacity=".790393" offset="17.028061%"/><stop stop-color="#EDF2F7" stop-opacity=".88035" offset="44.296078%"/><stop stop-color="#6A7179" stop-opacity=".693076" offset="85.945472%"/><stop stop-color="#3E454C" stop-opacity=".613989" offset="100%"/></linearGradient><path d="M107.989429 36.256712c-.022497 7.932007-5.249413 15.850552-15.689746 21.90239-21.014151 12.178466-55.20433 12.178466-76.357966 0C5.292907 52.02799-.022498 43.982305 0 35.950083l.0105-3.65713C-.0135 40.325175 5.303406 46.873605 15.952215 53.006215c21.152136 12.178465 55.342315 12.178465 76.357966-.001496 10.440333-6.050343 15.665749-12.47313 15.689746-20.405137l-.010499 3.65713z" id="a"/><linearGradient x1="100%" y1="0%" x2="0%" y2="100%" id="d"><stop stop-opacity="0" offset="0%"/><stop stop-opacity=".1" offset="100%"/></linearGradient><path d="M92.0601 9.89096c21.155817 12.1055 21.266816 31.734758.248998 43.838773-21.017818 12.106989-55.211521 12.106989-76.365838.001487-21.164816-12.109961-21.266815-31.733273-.248997-43.84026 21.017817-12.105502 55.20102-12.109962 76.365837 0" id="c"/><radialGradient cx="65.142822%" fx="65.142822%" fy="50%" r="145.7971%" gradientTransform="matrix(.50527 .5252 -.2126 .58019 .428585 -.132223)" id="f"><stop stop-color="#FFF" offset="0%"/><stop stop-color="#CCC" stop-opacity="0" offset="100%"/></radialGradient><linearGradient x1="89.746094%" y1="100%" x2="15.41748%" y2="50%" id="g"><stop stop-color="#FFF" stop-opacity="0" offset="0%"/><stop stop-color="#FFF" stop-opacity=".2" offset="100%"/></linearGradient><path d="M80.62478 31.967554c-2.122718 0-4.170049.134002-6.110252.393885l-6.673665-5.766157c4.01134-.820256 8.276614-1.287234 12.772013-1.287234l.011904 6.659506zm-26.843844-.313078l4.535076 6.915328c-3.523314 2.785623-5.673805 6.2575-5.653966 10.029866H41.453305c-.063483-6.691992 4.749332-12.70991 12.327631-16.945194zm-4.30495-6.598596c-11.76025 5.461607-19.314744 13.952477-19.239358 23.54379l-11.236514-.016243c-.039677-12.40942 10.327912-23.348877 26.250276-29.967776l4.225596 6.44023zm32.214517 17.66231c2.03146 1.823242 1.694206 4.312435-.976054 5.896098-3.118609 1.855728-8.19726 1.839486-11.3119 0-.987957-.580676-1.571208-1.287234-1.97988-2.034398L49.139524 18.589662l-.230126-.373582c-.130934-.377643.019838-.767467.495962-1.051714.785604-.462917 2.019557-.47916 2.80516-.016243l29.428402 25.480731.05158.089335zM80.57439 18.663566c-6.864114 0-13.32749.808074-19.275067 2.278038l-6.447506-5.575306C62.668178 13.214142 71.321723 12 80.510907 12l.063483 6.663567z" id="e"/></defs><g fill="none" fill-rule="evenodd"><path d="M92.0601 28.080799c21.155817 12.105501 21.266816 31.734759.248998 43.838774-21.017818 12.106988-55.211521 12.106988-76.365838.001487-21.164816-12.109962-21.266815-31.733273-.248997-43.840261 21.017817-12.105502 55.20102-12.109962 76.365837 0" fill="#D9DEE5" style="mix-blend-mode:multiply" opacity=".4"/><g transform="translate(0 .18984)"><use fill="#D9DEE5" xlink:href="#a"/><use fill-opacity=".4" fill="url(#b)" xlink:href="#a"/></g><g transform="translate(0 .18984)"><use fill="#FFF" xlink:href="#c"/><use fill-opacity=".2" fill="url(#d)" style="mix-blend-mode:multiply" xlink:href="#c"/></g><g><use fill="#BA30D6" xlink:href="#e"/><use fill-opacity=".3" fill="url(#f)" style="mix-blend-mode:screen" xlink:href="#e"/><use fill="url(#g)" style="mix-blend-mode:screen" xlink:href="#e"/></g></g></svg>