<svg width="108" height="87" xmlns="http://www.w3.org/2000/svg" xmlns:xlink="http://www.w3.org/1999/xlink"><defs><linearGradient x1="0%" y1="21.658954%" y2="15.252451%" id="b"><stop stop-color="#8A939C" stop-opacity=".386238" offset="0%"/><stop stop-color="#E1E7EC" stop-opacity=".790393" offset="17.028061%"/><stop stop-color="#EDF2F7" stop-opacity=".88035" offset="44.296078%"/><stop stop-color="#6A7179" stop-opacity=".693076" offset="85.945472%"/><stop stop-color="#3E454C" stop-opacity=".613989" offset="100%"/></linearGradient><path d="M107.989429 36.256712c-.022497 7.932007-5.249413 15.850552-15.689746 21.90239-21.014151 12.178466-55.20433 12.178466-76.357966 0C5.292907 52.02799-.022498 43.982305 0 35.950083l.0105-3.65713C-.0135 40.325175 5.303406 46.873605 15.952215 53.006215c21.152136 12.178465 55.342315 12.178465 76.357966-.001496 10.440333-6.050343 15.665749-12.47313 15.689746-20.405137l-.010499 3.65713z" id="a"/><linearGradient x1="100%" y1="0%" x2="0%" y2="100%" id="d"><stop stop-opacity="0" offset="0%"/><stop stop-opacity=".1" offset="100%"/></linearGradient><path d="M92.0601 9.89096c21.155817 12.1055 21.266816 31.734758.248998 43.838773-21.017818 12.106989-55.211521 12.106989-76.365838.001487-21.164816-12.109961-21.266815-31.733273-.248997-43.84026 21.017817-12.105502 55.20102-12.109962 76.365837 0" id="c"/><radialGradient cx="47.222246%" fx="47.222246%" fy="50%" r="145.7971%" gradientTransform="matrix(.57856 .60138 -.2969 .54472 .347467 -.056347)" id="f"><stop stop-color="#FFF" offset="0%"/><stop stop-color="#CCC" stop-opacity="0" offset="100%"/></radialGradient><linearGradient x1="0%" y1="100%" y2="0%" id="g"><stop stop-color="#FFF" stop-opacity="0" offset="0%"/><stop stop-color="#FFF" stop-opacity=".2" offset="100%"/></linearGradient><path d="M73.305267 40.942003c4.800856 2.763509 4.800856 7.236128.057244 9.988217-4.747428 2.752088-12.494437 2.767314-17.295292 0-4.774142-2.752089-4.774142-7.224708-.026714-9.976797 4.743612-2.752089 12.49062-2.763508 17.264762-.01142zm7.44934-20.963835c2.995765 1.728144 2.988133 4.518298.01145 6.246442-2.953786 1.712918-7.785172 1.724338-10.780937 0-2.976683-1.712918-2.988131-4.518297-.038162-6.231216 2.976683-1.724337 7.834783-1.724337 10.80765-.015226zM56.221397 14.09753c7.189834 4.141455 7.201283 10.833256.083957 14.959485-7.140223 4.141456-18.699676 4.141456-25.88951 0-7.189835-4.137649-7.224182-10.81803-.083958-14.959485 7.117325-4.122423 18.699676-4.13765 25.88951 0z" id="e"/></defs><g fill="none" fill-rule="evenodd"><path d="M92.0601 28.080799c21.155817 12.105501 21.266816 31.734759.248998 43.838774-21.017818 12.106988-55.211521 12.106988-76.365838.001487-21.164816-12.109962-21.266815-31.733273-.248997-43.840261 21.017817-12.105502 55.20102-12.109962 76.365837 0" fill="#D9DEE5" style="mix-blend-mode:multiply" opacity=".4"/><g transform="translate(0 .18984)"><use fill="#D9DEE5" xlink:href="#a"/><use fill-opacity=".4" fill="url(#b)" xlink:href="#a"/></g><g transform="translate(0 .18984)"><use fill="#FFF" xlink:href="#c"/><use fill-opacity=".2" fill="url(#d)" style="mix-blend-mode:multiply" xlink:href="#c"/></g><g><use fill="#E5018C" xlink:href="#e"/><use fill-opacity=".3" fill="url(#f)" style="mix-blend-mode:screen" xlink:href="#e"/><use fill="url(#g)" style="mix-blend-mode:screen" xlink:href="#e"/></g></g></svg>