<svg width="176" height="174" xmlns="http://www.w3.org/2000/svg"><g fill="none" fill-rule="evenodd"><path d="M151.927243 125.832661c-.017372 11.716234-.030994 20.383605-.030994 20.383605 0 6.490446-5.302438 11.783734-11.796107 11.783734H39.796914C33.302437 158 28 152.706712 28 146.216266c0 0 .009114-10.208545.021556-23.443772C15.552021 110.898543 7.999353 82.342997 7.999353 66.005541 7.999353 29.552217 45.48631 0 91.739351 0c46.238574 0 83.739998 29.552217 83.739998 66.005541 0 17.8308-8.981284 47.950925-23.552106 59.82712zM126.125007 169H56.861221C54.721589 169 53 167.404597 53 165.413354V158h77v7.413354C129.986227 167.404597 128.264638 169 126.125007 169z" fill="#CDD2D9" opacity=".4"/><path d="M118.125007 174H48.861221C46.721589 174 45 172.404597 45 170.413354V163h77v7.413354C121.986227 172.404597 120.264638 174 118.125007 174" fill="#FEC722"/><path d="M81.291978 65c-33.476377 0-58.254174 1.683275-61.204008 3.712396-.014527.243462-.08797 82.50387-.08797 82.50387C20 157.706712 25.302437 163 31.796914 163h100.303228c6.493669 0 11.796107-5.293288 11.796107-11.783734 0 0 .129131-82.16125.099269-82.50387C139.921438 66.738095 114.108173 65 81.291978 65" fill="#FFDB2B"/><path d="M-.000647 71.005541c0 16.545325 7.746083 45.621631 20.500553 57.212026.02974-21.615822.045012-58.54265.058677-58.671057 2.93864-2.020816 27.615664-3.696535 60.955085-3.696535 32.683533 0 58.39101 1.731095 62.449324 3.696535.014468.18298-.014468 38.972522-.04019 61.28977 14.573438-11.873694 23.556547-41.998127 23.556547-59.830739C167.479349 34.552217 129.977925 5 83.739351 5 37.486309 5-.000647 34.552217-.000647 71.005541z" fill="#464F5D"/><path d="M80.187153 84H21c0 16.015292 13.433867 29 30.00233 29C66.562042 113 81.256642 101.540898 83 86.886196h-2.812847V84zM85.992582 84v2.886196H84C85.486144 101.540898 98.095312 113 113.428403 113 129.759807 113 143 100.015292 143 84H85.992582zM83.149964 84c0 .675646-.04904 1.344145-.149964 2h1c-.08742-.655855-.1258-1.324354-.1258-2h-.724236z" fill="#556080"/><path d="M81 84v2h1.884002C82.961517 85.344145 83 84.675646 83 84h-2zM86 84h-2c0 .675646.04165 1.344145.134797 2H86v-2z" fill="#556080"/><path d="M95 128.009434C95 134.624466 89.624466 140 82.990566 140 76.375534 140 71 134.624466 71 128.009434 71 121.375534 76.375534 116 82.990566 116 89.624466 116 95 121.375534 95 128.009434" fill="#F29C1F"/><path d="M82.500397 117.789052c-4.784806 0-8.69294 3.908026-8.69294 8.710155 0 4.785468 3.908134 8.693494 8.69294 8.693494 4.803053 0 8.710393-3.908026 8.710393-8.693494 0-4.802129-3.90734-8.710155-8.710393-8.710155m0 23.210948C74.514349 141 68 134.485829 68 126.499207 68 118.499891 74.514349 112 82.500397 112 90.500725 112 97 118.499891 97 126.499207 97 134.485829 90.500725 141 82.500397 141" fill="#F0C419"/><path d="M127.097388 144.131943c.567193-.573198.902612-1.355358.902612-2.135866 0-.797027-.335419-1.577535-.902612-2.154863-1.062568-1.121619-3.132208-1.121619-4.194776 0-.570457.577328-.902612 1.357836-.902612 2.154863 0 .780508.332155 1.562668.902612 2.135866.522306.543465 1.309031.868057 2.110446.868057.772034 0 1.544069-.324592 2.08433-.868057M125.013058 136c.771218 0 1.513057-.339494 2.08433-.868147.567193-.577387.902612-1.37367.902612-2.154259 0-.781414-.335419-1.577697-.902612-2.136913-1.092763-1.120908-3.102829-1.120908-4.194776 0-.570457.559216-.902612 1.355499-.902612 2.136913 0 .780589.332155 1.576872.902612 2.154259.551686.528653 1.309031.868147 2.110446.868147M133.987349 136c.817031 0 1.558971-.339494 2.125425-.868147.571351-.577387.887226-1.37367.887226-2.154259 0-.781414-.315875-1.577697-.887226-2.136913-1.107605-1.120908-3.102435-1.120908-4.210856 0-.566453.559216-.901918 1.355499-.901918 2.136913 0 .780589.335465 1.576872.901918 2.154259.571351.528653 1.313291.868147 2.085431.868147M131.867878 139.840681c-.57308.577388-.867878 1.358803-.867878 2.155086 0 .781414.294798 1.562829.867878 2.136086.577209.544347 1.359207.868147 2.139554.868147.796862 0 1.547481-.3238 2.120561-.868147.577209-.573257.872007-1.354672.872007-2.136086 0-.796283-.294798-1.577698-.872007-2.155086-1.120561-1.120908-3.139554-1.120908-4.260115 0M124.872127 149.830572c-.577289.560311-.872127 1.312634-.872127 2.1411 0 .811913.294838 1.565064.872127 2.140272.573159.547897 1.324707.888056 2.150585.888056.751548 0 1.532002-.309537 2.109291-.888056.573985-.575208.867997-1.358154.867997-2.140272 0-.782945-.294012-1.580789-.867997-2.1411-1.120716-1.122277-3.169718-1.092482-4.259876 0M115.864191 149.840149c-.570646.559273-.864191 1.355638-.864191 2.137133 0 .780669.293545 1.562165.864191 2.136307.574757.546882 1.322187.886411 2.100863.886411.822256 0 1.569686-.339529 2.140332-.886411.574757-.574142.894614-1.355638.894614-2.136307 0-.781495-.319857-1.57786-.894614-2.137133-1.085378-1.120199-3.155818-1.120199-4.241195 0M117.107114 144.131943c.571545-.573198.892886-1.355358.892886-2.135866 0-.797027-.321341-1.577535-.892886-2.154863-1.079314-1.121619-3.134914-1.121619-4.218316 0-.568275.577328-.888798 1.357836-.888798 2.154863 0 .780508.320523 1.562668.888798 2.135866.54211.543465 1.3148.868057 2.133279.868057.773508 0 1.547015-.324592 2.085037-.868057M106.906357 149.840149c-.572522.559273-.906357 1.355638-.906357 2.137133 0 .780669.333835 1.562165.906357 2.136307.555297.546882 1.315653.886411 2.121941.886411.77512 0 1.55188-.339529 2.094874-.886411.569241-.574142.876828-1.355638.876828-2.136307 0-.781495-.307587-1.57786-.876828-2.137133-1.067943-1.120199-3.148052-1.120199-4.216815 0M98.863599 149.840149C98.293344 150.399422 98 151.195787 98 151.977282c0 .780669.293344 1.562165.863599 2.136307.574363.577448 1.352506.886411 2.099425.886411.821693 0 1.568611-.339529 2.138866-.886411.574363-.574142.89811-1.325898.89811-2.136307 0-.826931-.323747-1.57786-.89811-2.137133-1.084634-1.120199-3.123254-1.120199-4.238291 0M90.901918 149.840149C90.335465 150.399422 90 151.195787 90 151.977282c0 .780669.335465 1.562165.901918 2.136307.566454.546882 1.312475.886411 2.11155.886411.771323 0 1.532852-.308963 2.099306-.886411.551761-.574142.887226-1.355638.887226-2.136307 0-.781495-.335465-1.57786-.887226-2.137133-1.107605-1.120199-3.147327-1.120199-4.210856 0M36.872007 139.849216c-.57721.576432-.872007 1.356554-.872007 2.15152 0 .780122.294798 1.560244.872007 2.132553.57308.543447 1.355078.866711 2.150289.866711.781172 0 1.532617-.323264 2.109-.866711.573906-.572309.868704-1.352431.868704-2.132553 0-.794966-.294798-1.575088-.868704-2.15152-1.119735-1.145444-3.138728-1.119055-4.25929 0M36.872007 130.840149c-.57721.559273-.872007 1.325072-.872007 2.137133 0 .810409.294798 1.577034.872007 2.154482.57308.558447 1.355078.868236 2.150289.868236.781172 0 1.532617-.309789 2.109-.868236.573906-.577448.868704-1.344073.868704-2.154482 0-.812061-.294798-1.57786-.868704-2.137133-1.150289-1.120199-3.112303-1.120199-4.25929 0M30.007432 136c.766309 0 1.547481-.309757 2.120561-.868147.578035-.577387.872007-1.343934.872007-2.154259 0-.781414-.293972-1.577697-.872007-2.136913-1.150289-1.120908-3.109-1.120908-4.25929 0-.573905.559216-.868703 1.32411-.868703 2.136913 0 .810325.294798 1.576872.868704 2.154259.576383.55839 1.358381.868147 2.138728.868147M32.127993 139.840681c-1.090008-1.120908-3.169281-1.120908-4.25929 0-.574731.577388-.868703 1.32824-.868703 2.155086 0 .807847.293972 1.562829.868704 2.136086.546655.544347 1.327002.868147 2.138728.868147.796036 0 1.577209-.3238 2.120561-.868147.57721-.573257.872007-1.354672.872007-2.136086 0-.796283-.294798-1.577698-.872007-2.155086M34.906357 149.840149C34.333014 150.399422 34 151.195787 34 151.977282c0 .780669.333014 1.562165.906357 2.136307.554477.546882 1.315653.886411 2.12112.886411.77594 0 1.521532-.308963 2.094874-.886411.570062-.574142.877649-1.355638.877649-2.136307 0-.781495-.307587-1.57786-.877649-2.137133-1.067942-1.120199-3.148052-1.120199-4.215994 0M41.864894 149.840149C41.294328 150.399422 41 151.195787 41 151.977282c0 .780669.294327 1.562165.864894 2.136307.574678.546882 1.322007.886411 2.099754.886411.822965 0 1.570293-.339529 2.14086-.886411.574678-.574142.894492-1.355638.894492-2.136307 0-.781495-.319814-1.57786-.894492-2.137133-1.085228-1.120199-3.155385-1.120199-4.240614 0M51.108407 139.840681c-1.082706-1.120908-3.162816-1.120908-4.230758 0-.570882.577388-.877649 1.358803-.877649 2.155086 0 .781414.306767 1.562829.877649 2.136086.542994.544347 1.318113.868147 2.094873.868147.801367 0 1.592071-.3238 2.135885-.868147.554477-.573257.891593-1.354672.891593-2.136086 0-.796283-.337116-1.577698-.891593-2.155086M51.872007 149.830572c-.57721.560311-.872007 1.312634-.872007 2.1411 0 .811913.294798 1.565064.872007 2.140272.57308.547897 1.324525.888056 2.150289.888056.751445 0 1.532617-.309537 2.109-.888056.574732-.575208.868704-1.358154.868704-2.140272 0-.782945-.293972-1.580789-.868704-2.1411-1.119735-1.122277-3.169281-1.092482-4.25929 0M63.907177 149.840149C63.333835 150.399422 63 151.195787 63 151.977282c0 .780669.333835 1.562165.907177 2.136307.554477.546882 1.315653.886411 2.121121.886411.77512 0 1.55188-.339529 2.094874-.886411.56924-.574142.876828-1.355638.876828-2.136307 0-.781495-.307587-1.57786-.876828-2.137133-1.067943-1.120199-3.148052-1.120199-4.215995 0M72.86419 149.840149c-.570645.559273-.86419 1.355638-.86419 2.137133 0 .780669.293545 1.562165.86419 2.136307.574758.546882 1.322188.886411 2.100864.886411.822256 0 1.570509-.339529 2.141154-.886411.574757-.574142.893792-1.355638.893792-2.136307 0-.781495-.319035-1.57786-.893792-2.137133-1.085377-1.120199-3.15664-1.120199-4.242017 0M81.872127 149.830572c-.577289.560311-.872127 1.312634-.872127 2.1411 0 .811913.294838 1.565064.872127 2.140272.573159.547897 1.324707.888056 2.150585.888056.751548 0 1.532002-.309537 2.10929-.888056.573986-.575208.867998-1.358154.867998-2.140272 0-.782945-.294012-1.580789-.867997-2.1411-1.11989-1.122277-3.169718-1.092482-4.259876 0" fill="#556080"/><path d="M144.131181 50.501609l-33.642322-33.664574c-1.119377-1.116047-3.078287-1.116047-4.197664 0l-8.418105 8.413091c-1.16412 1.164076-1.16412 3.050203 0 4.214279 1.159238 1.16082 3.047373 1.16082 4.207425 0l6.303817-6.319383 4.207426 4.210208-6.315206 6.323454c-1.159238 1.160819-1.159238 3.03555 0 4.198812.584094.58041 1.353665.871021 2.10778.871021.769572 0 1.524501-.290612 2.104527-.871021l6.314392-6.307987 4.196037 4.198812-6.299749 6.320197c-1.163306 1.164076-1.163306 3.037993 0 4.198812.580026.58448 1.334141.874278 2.089069.874278.769572 0 1.527755-.289798 2.106967-.874278l6.31602-6.303916 4.196037 4.214279-6.300563 6.303916c-1.162493 1.16489-1.162493 3.050203 0 4.214279.580026.58041 1.334954.870207 2.104526.870207.754115 0 1.509044-.289798 2.092324-.870207l6.315206-6.319383 4.211493 4.210208-6.319273 6.3088c-1.159239 1.160006-1.159239 3.04939 0 4.21428.584093.58041 1.352851.870207 2.10778.870207s1.523687-.289798 2.103713-.870207l8.408343-8.413905c.56457-.565757.868819-1.309789.868819-2.109175 0-.780663-.304249-1.540161-.868819-2.105104" fill="#ECF0F1"/><path d="M36.645531 84l-6.782195 6.872272c-1.151115 1.170692-1.151115 3.076144 0 4.246015C30.4397 95.707737 31.205224 96 31.957813 96c.750165 0 1.51488-.292262 2.091245-.881713L45 84h-8.354469zM53.993913 84L41.839535 96.885188c-1.11938 1.17377-1.11938 3.065437 0 4.236743.551556.585653 1.273537.878069 1.99242.878069.732051 0 1.450933-.292416 2.003264-.878069L62 84h-8.006087zM99.555712 84l-6.716455 6.928097c-1.166728 1.204352-1.10877 3.10652.122636 4.25012.598904.544298 1.362443.821783 2.111702.821783.809738 0 1.619476-.321817 2.233499-.937539L108 84h-8.444288zM116.997233 84l-12.16876 12.885188c-1.104631 1.17377-1.104631 3.065437 0 4.236743.552316.585653 1.284347.878069 2.007083.878069.718862 0 1.450893-.292416 2.003209-.878069L125 84h-8.002767z" fill="#8697CB"/></g></svg>