<svg width="133" height="155" xmlns="http://www.w3.org/2000/svg"><g fill="none" fill-rule="evenodd"><path d="M50 17.675856H19.873143c-6.525 0-11.872857 5.339774-11.872857 11.886663l.181143 97.53294C8.181429 133.642349 13.529286 139 20.054286 139H121c6.539286 0 11.891429-5.357651 11.891429-11.904541l-.181143-97.53294c0-6.54689-5.352143-11.886663-11.891429-11.886663H92V3.910283C92 1.758509 90.259082 0 88.087988 0H53.91129C51.758962 0 50 1.758509 50 3.910283v13.765573zM105.139349 150H35.875612C33.736189 150 32 148.386596 32 146.413187V139h77v7.413187C109 148.386596 107.278772 150 105.139349 150z" fill="#CDD2D9" opacity=".5"/><path d="M97.13935 155H27.875611C25.736189 155 24 153.386596 24 151.413187V144h77v7.413187C101 153.386596 99.278772 155 97.13935 155" fill="#FEC722"/><path d="M12.054286 144c-6.525 0-11.872857-5.357651-11.872857-11.904541l-.181143-97.53294c0-6.54689 5.347857-11.886663 11.872857-11.886663h100.945714c6.539286 0 11.891429 5.339774 11.891429 11.886663l.181143 97.53294C124.891429 138.642349 119.539286 144 113 144H12.054286z" fill="#FFDB2B"/><path d="M45.91129 5h34.176698C82.259082 5 84 6.758509 84 8.910283V23H42V8.910283C42 6.758509 43.758962 5 45.91129 5" fill="#FEC722"/><path d="M11.971233 75.041826c-6.011962-10.118948-2.611895-23.144713 7.593338-29.095273 10.215301-5.96197 23.353164-2.590176 29.350743 7.529484 6.011962 10.131071 11.66148 38.42975 1.460562 44.376745-10.204514 5.951273-32.403468-12.694148-38.404643-22.810956M113.036276 75.041826c6.001707-10.118948 2.60062-23.144713-7.604798-29.095273-10.201823-5.96197-23.34085-2.590176-29.338241 7.529484-6.01681 10.131071-11.677617 38.42975-1.46141 44.376745 10.201822 5.951273 32.406339-12.694148 38.404449-22.810956" fill="#81CCB8"/><path d="M19.941265 73c-.76045 0-1.506058-.286407-2.082049-.863464-1.145621-1.146336-1.145621-2.998434 0-4.148306l15.121357-15.127948c1.145622-1.147043 2.996567-1.147043 4.15703 0 1.149863 1.149871 1.149863 3.00197 0 4.149012l-15.11853 15.127242c-.572457.577057-1.3322.863464-2.077808.863464M28.917996 78c-.74326 0-1.497037-.283988-2.065-.852665-1.137328-1.14016-1.137328-2.99064 0-4.127993l9.165936-9.166852c1.152053-1.136653 2.987764-1.136653 4.128598 0 1.136627 1.140159 1.136627 2.99134 0 4.127993l-9.167339 9.166852C30.41223 77.716012 29.658451 78 28.917996 78M37.858283 84c-.725487 0-1.450287-.282501-2.011422-.839943-1.129148-1.114195-1.129148-2.928114 0-4.045747l3.269164-3.278663c1.114706-1.114196 2.930144-1.114196 4.04485 0 1.118833 1.117632 1.118833 2.932238 0 4.046434l-3.280166 3.277976C39.3237 83.7175 38.598212 84 37.858283 84" fill="#14A085"/><path d="M67.996753 123H56.003247C54.34937 123 53 121.655694 53 120c0-1.65209 1.349369-3 3.003247-3h11.993506C69.654239 117 71 118.34791 71 120c0 1.655694-1.34576 3-3.003247 3" fill="#546A79"/><path d="M104.059795 73c-.76045 0-1.509591-.286407-2.082049-.863464l-15.11853-15.127242c-1.145621-1.147042-1.145621-2.99914 0-4.149012 1.149155-1.147043 3.011409-1.147043 4.160564 0l15.117823 15.127949c1.149863 1.14987 1.149863 3.00197 0 4.148305-.572457.577057-1.3322.863464-2.077808.863464M95.086838 78c-.753435 0-1.492852-.283988-2.061256-.852665l-9.162462-9.166852c-1.150827-1.136653-1.150827-2.987834 0-4.127993 1.139613-1.136653 2.971685-1.136653 4.112 0l9.16176 9.166852c1.150827 1.137354 1.150827 2.987834 0 4.127993C96.56497 77.716012 95.826255 78 95.086838 78M86.135824 84c-.72646 0-1.467378-.282501-2.028577-.839943l-3.270098-3.277976c-1.116199-1.114196-1.116199-2.928802 0-4.046434 1.119642-1.114196 2.92305-1.114196 4.03925 0l3.28387 3.278663c1.119642 1.117633 1.119642 2.931552 0 4.045747C87.602513 83.7175 86.876053 84 86.135824 84" fill="#14A085"/></g></svg>