<?xml version="1.0" encoding="utf-8"?>
<!-- Generator: Adobe Illustrator 18.0.0, SVG Export Plug-In . SVG Version: 6.00 Build 0)  -->
<!DOCTYPE svg PUBLIC "-//W3C//DTD SVG 1.1//EN" "http://www.w3.org/Graphics/SVG/1.1/DTD/svg11.dtd">
<svg version="1.1" id="Layer_1" xmlns="http://www.w3.org/2000/svg" xmlns:xlink="http://www.w3.org/1999/xlink" x="0px" y="0px"
	 width="1110px" height="1274.25px" viewBox="0 13.75 1110 1274.25" enable-background="new 0 13.75 1110 1274.25"
	 xml:space="preserve">
<filter  height="115.3%" width="116.2%" y="-7.6%" x="-8.1%" id="b" filterUnits="objectBoundingBox">
	<feGaussianBlur  stdDeviation="30" in="SourceGraphic"></feGaussianBlur>
</filter>
<g>
	<g filter="url(#b)">
		
			<linearGradient id="SVGID_1_" gradientUnits="userSpaceOnUse" x1="498.2475" y1="30.5348" x2="497.8871" y2="29.5539" gradientTransform="matrix(1110 0 0 1178.916 -552282 -34853.4063)">
			<stop  offset="0" style="stop-color:#000000;stop-opacity:0.12"/>
			<stop  offset="1" style="stop-color:#000000;stop-opacity:0.013"/>
		</linearGradient>
		<path fill="url(#SVGID_1_)" d="M0,959.962C0,1107.443,247.915,1227,553.733,1227s553.733-119.557,553.733-267.038
			c0-2.911,0.845-306.87,2.534-911.878H0V959.962L0,959.962z"/>
	</g>
	<g>
		<path id="c" fill="#CDD2D9" fill-opacity="0.06" d="M0,925.617c0,147.48,247.915,267.037,553.733,267.037
			s553.733-119.557,553.733-267.037c0-2.912,0.845-306.871,2.534-911.879H0V925.617L0,925.617z"/>
	</g>
	<g>
		
			<linearGradient id="c_2_" gradientUnits="userSpaceOnUse" x1="497.6737" y1="30.3805" x2="498.3524" y2="29.725" gradientTransform="matrix(1110 0 0 1178.916 -552282 -34887.7813)">
			<stop  offset="0" style="stop-color:#000000;stop-opacity:0.02"/>
			<stop  offset="1" style="stop-color:#000000;stop-opacity:0.013"/>
		</linearGradient>
		<path id="c_1_" fill="url(#c_2_)" d="M0,925.617c0,147.48,247.915,267.037,553.733,267.037s553.733-119.557,553.733-267.037
			c0-2.912,0.845-306.871,2.534-911.879H0V925.617L0,925.617z"/>
	</g>
	<g>
		<g>
			<path id="e" fill="#CDD2D9" fill-opacity="0.06" d="M0,911.878c0,147.481,247.915,267.038,553.733,267.038
				s553.733-119.557,553.733-267.038c0-2.911,0.845-306.87,2.534-911.878H0V911.878L0,911.878z"/>
		</g>
		<g>
			
				<linearGradient id="e_2_" gradientUnits="userSpaceOnUse" x1="497.6737" y1="30.3805" x2="498.3524" y2="29.725" gradientTransform="matrix(1110 0 0 1178.916 -552282 -34901.5313)">
				<stop  offset="0" style="stop-color:#000000;stop-opacity:0.02"/>
				<stop  offset="1" style="stop-color:#000000;stop-opacity:0.013"/>
			</linearGradient>
			<path id="e_1_" fill="url(#e_2_)" d="M0,911.878c0,147.481,247.915,267.038,553.733,267.038s553.733-119.557,553.733-267.038
				c0-2.911,0.845-306.87,2.534-911.878H0V911.878L0,911.878z"/>
		</g>
	</g>
</g>
</svg>
