<svg width="736" height="458" xmlns="http://www.w3.org/2000/svg" xmlns:xlink="http://www.w3.org/1999/xlink"><defs><path id="a" d="M0 0h482v256H0z"/><linearGradient x1="100%" y1="50%" x2="1.280843%" y2="78.47776%" id="d"><stop stop-opacity=".29" offset="0%"/><stop stop-opacity=".5" offset="100%"/></linearGradient><path id="c" d="M243.390992 21.45102l-.027008 9.54958L46.541191 61.627088l.027008-9.550314z"/><linearGradient x1="-2.739293%" y1="45.241389%" y2="43.839575%" id="f"><stop stop-opacity=".237121" offset="0%"/><stop stop-opacity="0" offset="21.864828%"/><stop stop-opacity=".185773" offset="59.881268%"/><stop stop-opacity=".227723" offset="100%"/></linearGradient><path d="M247.300443 23.886397l-.027008 9.550314c-.735053-.335356-1.448208-.69341-2.124136-1.084415-.745272-.432008-1.421929-.883054-2.042381-1.356067l.027008-9.549581c.620452.47228 1.297109.923326 2.042381 1.355335.675928.391004 1.389083.74979 2.124136 1.084414zm37.667269-1.060975c-.01022 3.450941-2.270124 6.896025-6.785554 9.528347-3.926366 2.288912-9.023154 3.58933-14.159036 3.90272l.027008-9.549582c5.135882-.313389 10.23267-1.61454 14.159036-3.90272 4.51543-2.633054 6.775334-6.078137 6.784824-9.529079l-.026278 9.550314z" id="e"/><linearGradient x1="127.175672%" y1="50%" x2="50%" y2="100%" id="h"><stop stop-opacity=".345675" offset="0%"/><stop stop-opacity=".5" offset="100%"/></linearGradient><path id="g" d="M43.796604 52.719665h2.919774v6.589958h-2.919774z"/><linearGradient x1="100%" y1="3.814404%" x2="3.996382%" y2="93.354075%" id="j"><stop stop-opacity=".2" offset="0%"/><stop stop-opacity=".5" offset="100%"/></linearGradient><path id="i" d="M264.155566 26.703976l-.027008 9.549581-51.981459 114.113913.027008-9.550314z"/><linearGradient x1="0%" y1="50%" y2="50%" id="l"><stop stop-opacity=".1" offset="0%"/><stop stop-color="#FFF" stop-opacity=".1" offset="36.091659%"/><stop stop-opacity=".4" offset="100%"/></linearGradient><path d="M221.772862 151.828237l-.026278 9.549582c-.010219 3.451674-2.272314 6.898954-6.789933 9.532008-9.093635 5.301988-23.884478 5.301988-33.032859.002929-4.603753-2.665272-6.900155-6.166736-6.890665-9.661611l.027008-9.550314c-.01022 3.495607 2.287642 6.996339 6.890665 9.662344 9.148381 5.298326 23.939224 5.298326 33.032859-.002929 4.518349-2.633787 6.779714-6.080335 6.789203-9.532009" id="k"/><linearGradient x1="0%" y1="6.818945%" x2="98.936323%" y2="91.901058%" id="n"><stop stop-color="#FFF" stop-opacity=".5" offset="0%"/><stop stop-opacity=".5" offset="100%"/></linearGradient><path id="m" d="M176.878424 146.458912l-.027008 9.550314L32.281204 72.293307l.026278-9.549581z"/><linearGradient x1="0%" y1="-20.148995%" y2="89.374185%" id="p"><stop stop-opacity=".407269" offset="0%"/><stop stop-color="#FFF" stop-opacity=".637596" offset="32.728432%"/><stop stop-color="#FFF" stop-opacity=".520041" offset="47.180571%"/><stop stop-opacity=".8" offset="100%"/></linearGradient><path d="M0 59.875625l.027008-9.550314c-.01022 3.495606 2.290562 6.99707 6.897235 9.665272 6.95271 4.026464 17.163889 4.990062 25.6524 2.89592l-.026277 9.549582c-8.489972 2.094142-18.70042 1.131276-25.65313-2.895189C2.30949 66.883658.00945 63.39999 0 59.918717v-.043092z" id="o"/><linearGradient x1="8.120757%" y1="30.024486%" y2="51.324353%" id="r"><stop stop-color="#FFF" stop-opacity=".5" offset="0%"/><stop stop-opacity=".5" offset="100%"/></linearGradient><radialGradient cx="15.892704%" cy="32.786117%" fx="15.892704%" fy="32.786117%" r="89.671376%" gradientTransform="matrix(.58147 0 0 .6261 .066516 .122587)" id="s"><stop stop-color="#FFF" stop-opacity=".5" offset="0%"/><stop stop-opacity=".5" offset="100%"/></radialGradient><path d="M189.222496 139.631695c1.915372-.473013 3.920526-.791528 5.949769-.950419l52.128178-114.426569c-.735053-.334623-1.448208-.69341-2.124136-1.084414-.745272-.432009-1.421929-.883055-2.042381-1.355335L46.568199 52.445084c-.25767 1.233786-.803668 2.451464-1.646752 3.614226l144.301049 83.572385m25.658241 2.898849c9.14838 5.297594 9.196556 13.891632.102922 19.192887-9.093635 5.301255-23.884478 5.301255-33.032859.002929-6.952711-4.027197-8.644719-9.956695-5.072376-14.899163L32.576644 63.255544c-8.488512 2.094142-18.69969 1.130544-25.652401-2.89592-9.15349-5.301256-9.202396-13.895293-.108762-19.196549 9.093635-5.301255 23.884478-5.301255 33.037968 0 .78761.456172 1.505874.941632 2.158443 1.443933L238.43382 12.001046c.568626-2.931067 2.773055-5.776464 6.635186-8.027301 9.088525-5.298327 23.879368-5.298327 33.032858.002929 9.148381 5.297594 9.195827 13.892364.107302 19.19069-3.926366 2.28818-8.917719 3.58933-14.0536 3.90272l-51.981459 114.11318c.945276.401987 1.849676.850104 2.70663 1.34728" id="q"/></defs><g fill="none" fill-rule="evenodd"><path fill="#D9DEE5" opacity=".5" style="mix-blend-mode:multiply" d="M0 246.5L368 458l368-211.5L368 34z"/><path fill="#BDC2C9" d="M368 423.013389V429l368-211.013389V212z"/><path fill="#D9DEE5" d="M0 217.971973L368 429v-5.971973L0 212z"/><path fill="#FFF" d="M0 212.5L368 424l368-211.5L368 0z"/><g transform="translate(115 94)"><mask id="b" fill="#fff"><use xlink:href="#a"/></mask><g fill-opacity=".6" mask="url(#b)" fill="#A3A8AF"><path d="M172.217726 45.033792c7.689656 4.449213 9.236934 11.551854 3.093095 17.019703-5.192398 4.620448-14.427141 6.784317-23.261009 5.953749L125.05606 92.025675c2.422048 1.928968 3.843002 4.116254 4.306674 6.347446l43.184309 6.826761c5.565526-4.286758 15.25664-6.400866 24.740378-4.899256 4.070823.643233 7.598383 1.871157 10.389178 3.486192 5.751725 3.32886 8.365084 8.300563 6.108059 13.168353-3.356694 7.227044-16.177412 11.488921-28.636685 9.51751-4.068632-.643965-7.594001-1.871157-10.383336-3.484729-3.688202-2.134597-6.086154-4.944627-6.734564-7.969067l-43.208405-6.829688c-1.124496.85984-2.449065 1.658942-3.964215 2.368035-1.566262.733974-3.255197 1.327446-5.008389 1.791394l3.602039 40.786402c3.308501.681286 6.286956 1.783344 8.735291 3.200067 3.973707 2.298516 6.548366 5.426869 6.858698 8.930624.659363 7.48463-9.248617 13.840857-22.141624 14.199429-6.847745.190994-13.157337-1.351595-17.667736-3.960385-3.975897-2.300712-6.552016-5.431992-6.861618-8.936478-.506023-5.707872 5.144206-10.757143 13.575007-12.99419l-3.60788-40.831773c-3.161003-.655673-6.10879-1.713825-8.598746-3.155428l-41.021479 8.81793c-.346841 5.26295-5.993419 10.142449-15.006183 12.127764-8.858695 1.951653-18.505266.562737-24.827272-3.094691-2.27601-1.31647-4.121206-2.929309-5.342818-4.784368-4.611165-7.002387 1.422415-14.836075 13.4757-17.48804 8.859425-1.952385 18.501616-.559811 24.82143 3.097618.315444.181481.622125.369548.919313.562737l40.053244-8.820857c-.016795-2.171918.857976-4.332128 2.589992-6.282318L70.431827 82.935524c-8.075198 1.431358-17.11863.228314-23.33768-3.370572-.602408-.348326-1.17926-.719338-1.724714-1.112303-8.113898-5.840324-6.548365-14.37725 3.49032-19.066487 9.359606-4.375303 22.790765-3.855009 31.139055.974729.600948.348326 1.17561.718606 1.720333 1.11084 6.140918 4.4236 6.731644 10.390521 2.301566 15.065122l14.678328 10.574198c3.723251-.722997 7.672131-.873743 11.474973-.4859l26.855746-23.899152c-5.718136-4.438236-6.384802-10.647376-.882072-15.545901 7.036864-6.264023 21.515849-8.012242 32.329268-3.906233 1.374222.521758 2.622851 1.112303 3.740776 1.759927M473.547477 70.212556c5.729819 3.315688 8.347559 8.261047 6.130695 13.11347-3.296089 7.235093-16.083218 11.532096-28.557094 9.589956-4.109523-.63811-7.672862-1.87189-10.485563-3.499364-3.602039-2.084105-5.974434-4.813639-6.687102-7.759779l-70.159806-10.900571c-.882803.796175-1.919676 1.55137-3.115001 2.24656-7.053659 4.108935-17.537031 5.029513-26.159873 2.766122l-34.524957 20.106344c3.930626 4.995851 2.380428 11.084248-4.673231 15.192452-9.096737 5.298076-23.892625 5.298076-33.044127.002927-9.156612-5.297344-9.204075-13.88696-.107338-19.184303 6.762312-3.938432 16.677594-4.944627 25.079918-3.02444l35.145621-20.467843c-3.335519-4.87218-1.634901-10.631277 5.132522-14.571904.898137-.523222 1.85834-.99595 2.859433-1.416723l-10.461466-22.394615c-5.090171-.40321-9.813056-1.772368-13.423127-3.861595-2.811241-1.626743-4.949244-3.689627-6.060597-6.073029-3.381521-7.231434 3.974437-14.671426 16.43079-16.61137 8.35267-1.298907 16.876936.203434 22.606026 3.519122 2.811241 1.626012 4.949974 3.69109 6.063518 6.073761 2.595834 5.556394-1.144942 11.226213-8.65059 14.439452l10.51185 22.494137c4.807587.404674 9.452341 1.68309 13.167559 3.832324 3.389554 1.961898 5.531938 4.373107 6.419122 6.903597l71.220045 11.067417c5.505651-4.375303 15.274895-6.568443 24.860131-5.082201 4.108792.638843 7.66994 1.872621 10.482642 3.500096M361.929231 182.062595c2.812701 1.627475 4.952165 3.692554 6.066439 6.075956 3.385902 7.234362-3.975168 14.672158-16.43152 16.611371-8.346829 1.301102-16.867444-.201971-22.594343-3.516196-.717049-.414918-1.391017-.859108-2.014601-1.328909l-22.039397 3.428382c-.662284 3.725484-3.979549 7.140693-9.10696 9.395303l6.397216 13.69816c5.325293.336618 10.28695 1.730656 14.044521 3.905502 2.81051 1.626011 4.947053 3.688163 6.057676 6.070102 3.386632 7.235093-3.973707 14.671425-16.43079 16.610638-8.35267 1.299639-16.876206-.203434-22.606026-3.518391-2.811241-1.626743-4.949974-3.69109-6.062787-6.073029-2.535959-5.430527.974806-10.975944 8.149677-14.224309l-6.468044-13.835003c-5.192398-.372475-10.01751-1.754804-13.692568-3.881352-.852135-.492487-1.642203-1.025222-2.359982-1.595277l-71.109786 11.071075c-.958743 5.414429-7.521712 10.178306-17.118631 11.669671-8.356322 1.301102-16.881318-.201971-22.610407-3.516195-2.811971-1.627476-4.949975-3.691091-6.063518-6.073761-3.382251-7.236557 3.979549-14.674353 16.430789-16.610639 8.354131-1.301834 16.875477.201239 22.606027 3.517659.668126.386379 1.299742.797639 1.886817 1.232315l71.666923-11.157426c.838991-3.552052 4.097109-6.780659 9.020067-8.945259l-11.645839-24.918519c-5.2771-.349058-10.187644-1.738706-13.916007-3.895257-2.81051-1.626743-4.948513-3.689627-6.060596-6.071565-3.37714-7.235094 3.974437-14.672158 16.430789-16.612102 8.352671-1.298907 16.876937.204166 22.606026 3.519122 2.811241 1.626744 4.949974 3.69109 6.062788 6.073761 2.549101 5.453945-1.006936 11.021315-8.246793 14.263825l11.683078 25.011455c5.19897.372475 10.027002 1.751146 13.704981 3.879157.666666.386379 1.295361.796175 1.881706 1.229388l22.183975-3.453262c1.028841-5.367595 7.568444-10.06854 17.095995-11.553318 8.353401-1.30037 16.875476.202703 22.603105 3.516927" style="mix-blend-mode:multiply"/></g><path d="M272.316016 189.884661c1.918332-.473871 3.926586-.792963 5.958965-.952143l52.208748-114.634172c-.736189-.33523-1.450446-.694668-2.127418-1.086382-.746425-.432792-1.424128-.884657-2.045539-1.357794l-196.869543 30.685698c-.258069 1.236025-.80491 2.455912-1.649298 3.620783l144.524085 83.72401m25.697898 2.904109c9.162521 5.307205 9.210772 13.916835.103081 19.227708-9.10769 5.310873-23.921394 5.310873-33.083914.002934-6.963457-4.034503-8.658081-9.974759-5.080217-14.926194l-144.524816-83.723277c-8.501632 2.097942-18.728593 1.132595-25.69205-2.901174-9.167638-5.310873-9.21662-13.920503-.10893-19.231376 9.10769-5.310874 23.921395-5.310874 33.089033 0 .788826.456999 1.508201.94334 2.161779 1.446552l196.725522-30.66149c.569505-2.936385 2.777341-5.786945 6.645441-8.041865 9.102573-5.30794 23.916277-5.30794 33.083915.002934 9.16252 5.307205 9.21004 13.917569.107467 19.225508-3.932434 2.292331-8.931502 3.595842-14.075321 3.9098l-52.061803 114.320215c.946738.402717 1.852535.851647 2.710813 1.349725" fill-opacity=".6" fill="#CDD2D9" style="mix-blend-mode:multiply" mask="url(#b)"/><g mask="url(#b)"><g transform="translate(82.828157 27)"><use fill="#2E81FF" xlink:href="#c"/><use fill-opacity=".1" fill="url(#d)" style="mix-blend-mode:multiply" xlink:href="#c"/><use fill-opacity=".17" fill="#000" style="mix-blend-mode:multiply" xlink:href="#c"/></g><g transform="translate(82.828157 27)"><use fill="#2E81FF" xlink:href="#e"/><use fill="url(#f)" style="mix-blend-mode:multiply" xlink:href="#e"/><use fill-opacity=".1" fill="#3B404C" style="mix-blend-mode:multiply" xlink:href="#e"/></g><g transform="translate(82.828157 27)"><use fill="#2E81FF" xlink:href="#g"/><use fill-opacity=".9" fill="url(#h)" style="mix-blend-mode:multiply" xlink:href="#g"/></g><g transform="translate(82.828157 27)"><use fill="#2E81FF" xlink:href="#i"/><use fill-opacity=".1" fill="url(#j)" style="mix-blend-mode:multiply" xlink:href="#i"/><use fill-opacity=".4" fill="#3B404C" style="mix-blend-mode:multiply" xlink:href="#i"/></g><g transform="translate(82.828157 27)"><use fill="#2E81FF" xlink:href="#k"/><use fill-opacity=".1" fill="#3B404C" style="mix-blend-mode:multiply" xlink:href="#k"/><use fill="url(#l)" style="mix-blend-mode:multiply" xlink:href="#k"/></g><g transform="translate(82.828157 27)"><use fill="#2E81FF" xlink:href="#m"/><use fill-opacity=".2" fill="url(#n)" style="mix-blend-mode:multiply" xlink:href="#m"/><use fill-opacity=".1" fill="#3B404C" style="mix-blend-mode:multiply" xlink:href="#m"/></g><g transform="translate(82.828157 27)"><use fill="#2E81FF" xlink:href="#o"/><use fill-opacity=".07" fill="#3B404C" style="mix-blend-mode:multiply" xlink:href="#o"/><use fill-opacity=".3" fill="url(#p)" style="mix-blend-mode:multiply" xlink:href="#o"/></g><g transform="translate(82.828157 27)"><use fill="#2E81FF" xlink:href="#q"/><use fill-opacity=".05" fill="url(#r)" style="mix-blend-mode:multiply" xlink:href="#q"/><use fill-opacity=".05" fill="url(#s)" style="mix-blend-mode:multiply" xlink:href="#q"/></g></g></g></g></svg>