<svg width="576" height="358" xmlns="http://www.w3.org/2000/svg" xmlns:xlink="http://www.w3.org/1999/xlink"><defs><linearGradient x1="0%" y1="50%" y2="50%" id="b"><stop stop-opacity=".1" offset="0%"/><stop stop-color="#FFF" stop-opacity=".1" offset="36.091659%"/><stop stop-opacity=".4" offset="100%"/></linearGradient><path d="M187.810076 124.802703l-.027013 9.575365c-.009982 3.460381-2.284887 6.916064-6.828823 9.557159-9.144833 5.314492-24.010398 5.315079-33.21454 0-4.630258-2.673984-6.942157-6.183698-6.932175-9.688714l.027013-9.574778c-.009983 3.504428 2.301916 7.015317 6.932761 9.688127 9.203556 5.315079 24.069708 5.315079 33.213954 0 4.543936-2.641095 6.81884-6.096191 6.828823-9.557159" id="a"/><linearGradient x1="-2.739293%" y1="45.241389%" y2="43.839575%" id="d"><stop stop-opacity=".237121" offset="0%"/><stop stop-opacity="0" offset="21.864828%"/><stop stop-opacity=".185773" offset="59.881268%"/><stop stop-opacity=".227723" offset="100%"/></linearGradient><path d="M238.645317 23.250741c-.009983 3.459207-2.283125 6.913127-6.823538 9.551873-3.769388 2.19181-8.803115 3.472715-13.71524 3.86092l-.263792-9.575364c4.912713-.38762 10.236656-1.669111 14.006044-3.859746 4.540413-2.639333 6.813555-6.093254 6.823538-9.553048l-.027012 9.575365zm-38.317161.869853l-.027013 9.574777c-.584874-.281904-1.154481-.576142-1.702361-.89211-.599555-.346509-1.158005-.708286-1.675936-1.080636l.0276-9.57419c.517344.371762 1.075793.73354 1.675936 1.07946.547292.317143 1.116899.611381 1.701774.892699z" id="c"/><linearGradient x1="100%" y1="50%" x2="1.280843%" y2="78.47776%" id="f"><stop stop-opacity=".29" offset="0%"/><stop stop-opacity=".5" offset="100%"/></linearGradient><path id="e" d="M197.242898 22.1482l-.024086 9.574778L46.449156 55.059406v-9.575365z"/><linearGradient x1="0%" y1="-20.148995%" y2="89.374185%" id="h"><stop stop-opacity=".407269" offset="0%"/><stop stop-color="#FFF" stop-opacity=".637596" offset="32.728432%"/><stop stop-color="#FFF" stop-opacity=".520041" offset="47.180571%"/><stop stop-opacity=".8" offset="100%"/></linearGradient><path d="M.027071 43.366643c-.009983 3.505016 2.303678 7.01473 6.933936 9.688127 6.835283 3.947254 17.083624 4.960349 25.5003 3.048682l-.028673 9.574778c-8.416089 1.911667-18.663944.898572-25.49864-3.048095C2.30315 59.95615-.009923 56.446436.00006 52.94142l.027012-9.574778z" id="g"/><linearGradient x1="100%" y1="3.814404%" x2="3.996382%" y2="93.354075%" id="j"><stop stop-opacity=".2" offset="0%"/><stop stop-opacity=".5" offset="100%"/></linearGradient><path id="i" d="M218.428031 27.088111l-.027012 9.575365-39.721565 86.925334.027012-9.574191z"/><linearGradient x1="0%" y1="6.818945%" x2="98.936323%" y2="91.901058%" id="l"><stop stop-color="#FFF" stop-opacity=".5" offset="0%"/><stop stop-opacity=".5" offset="100%"/></linearGradient><path id="k" d="M142.422684 119.768765l-.027013 9.575365-110.2571-63.665841.027012-9.574778z"/><linearGradient x1="8.120757%" y1="30.024486%" y2="51.324353%" id="n"><stop stop-color="#FFF" stop-opacity=".5" offset="0%"/><stop stop-opacity=".5" offset="100%"/></linearGradient><radialGradient cx="15.892704%" cy="32.786117%" fx="15.892704%" fy="32.786117%" r="89.671376%" gradientTransform="matrix(.57972 0 0 .6261 .066794 .122587)" id="o"><stop stop-color="#FFF" stop-opacity=".5" offset="0%"/><stop stop-opacity=".5" offset="100%"/></radialGradient><path d="M155.66851 112.364008c1.5673-.35473 3.183926-.607857 4.824042-.762318l39.835486-87.18727c-.584874-.281317-1.154481-.575555-1.701774-.89211-.600142-.346508-1.158592-.708286-1.675936-1.080048L46.74382 45.778103c-.25192.993714-.698796 1.974508-1.33241 2.920651l110.2571 63.665254m25.208921 3.046333c9.204143 5.314492 9.248772 13.928445.103352 19.243524-9.143659 5.315079-24.009811 5.315079-33.213954 0-6.831172-3.944317-8.616331-9.70927-5.344321-14.591508L32.165994 56.397103c-8.416676 1.911667-18.370115.898572-25.20481-3.048095-9.20062-5.31273-9.25347-13.926683-.108637-19.241762 9.144246-5.31508 24.018032-5.31508 33.218651-.00235.641248.370588 1.226123.755858 1.774002 1.154048l150.083192-23.317047c.682354-2.803778 2.879745-5.504778 6.593934-7.663699 9.140722-5.31273 24.013334-5.31273 33.213953 0 9.20473 5.31508 9.253469 13.931381.112747 19.244111-3.769388 2.190635-8.50887 3.472127-13.420995 3.859747l-39.721565 86.926507c.753995.339461 1.480978.703588 2.170965 1.101778" id="m"/></defs><g fill="none" fill-rule="evenodd"><path fill="#D9DEE5" opacity=".5" style="mix-blend-mode:multiply" d="M0 193l288 165 288-165L288 26z"/><path fill="#BDC2C9" d="M288 332v4l288-165v-4z"/><path fill="#D9DEE5" d="M0 171l288 165v-4L0 167z"/><path fill="#FFF" d="M0 167l288 165 288-165L288 0z"/><g><path d="M331.751625 222.718817c-.49-.345362-1.007059-.675964-1.548824-.990036-3.553529-2.058591-8.175294-3.425277-13.167059-3.863326l-7.254117-15.551301c6.975882-3.296578 10.347647-8.789301 7.835294-14.171626-1.12-2.403362-3.271765-4.484386-6.104118-6.125-5.768823-3.342036-14.355882-4.859265-22.763529-3.548073-12.541177 1.955868-19.948824 9.455229-16.545883 16.754458 1.121177 2.402181 3.274118 4.483205 6.105883 6.12441 3.594706 2.082205 8.282941 3.455976 13.340588 3.878084l7.218824 15.471603c-4.532353 2.109361-7.570589 5.140277-8.5 8.472277l-49.802353 7.763843c-.488824-.344771-1.004706-.674193-1.545883-.987675-5.768823-3.342626-14.353529-4.858674-22.764706-3.546891-12.544706 1.954687-19.948235 9.456409-16.545882 16.750325 1.120588 2.404542 3.272941 4.484976 6.105882 6.126181 5.768236 3.342626 14.355294 4.858675 22.765294 3.549253 9.421765-1.47 15.946471-6.068325 17.165883-11.359735l49.305294-7.687687c.606471.452217 1.258235.880229 1.950588 1.281085 3.55353 2.05918 8.176471 3.425277 13.167647 3.863915l3.051765 6.539434c-6.923529 3.300711-10.26 8.772771-7.757059 14.135024 1.121177 2.403952 3.27353 4.484976 6.105882 6.126181 5.768236 3.342036 14.354118 4.857494 22.762353 3.546891 12.540589-1.956458 19.948236-9.455229 16.545883-16.754458-1.121765-2.402771-3.274706-4.483204-6.107059-6.124409-3.619412-2.096374-8.347647-3.475458-13.444706-3.88694l-2.991765-6.414277c4.701765-2.187289 7.794118-5.364614 8.595883-8.841843l9.787647-1.526085c.520588.371928 1.072353.726735 1.651764 1.063241 5.77 3.343217 14.356471 4.859265 22.767059 3.548073 12.540589-1.956458 19.948236-9.45582 16.545294-16.754458-1.12-2.402181-3.272353-4.482024-6.104705-6.123229-5.768824-3.342627-14.355295-4.859856-22.766471-3.547482-9.365294 1.460554-15.867059 6.012241-17.142941 11.264096l-9.917647 1.546157zM461.063807 120.374076c-9.407191-1.46238-18.989514.597791-24.599037 4.787043l-49.38496-7.675288c-.930317-2.4854-3.064228-4.85124-6.40232-6.78243-3.599615-2.08314-8.06784-3.351754-12.7206-3.80584l-6.303-13.49124c7.188065-3.26989 10.699526-8.836122 8.153056-14.289276-1.120142-2.397055-3.271096-4.473128-6.100834-6.10984-5.763499-3.334086-14.34028-4.847706-22.743693-3.537865-12.533126 1.948859-19.929821 9.432736-16.527083 16.712245 1.118966 2.397644 3.268745 4.47313 6.097896 6.10984 3.494418 2.021301 8.023763 3.372958 12.92159 3.833522l6.2648 13.409374c-.793972.35632-1.556796.74562-2.283772 1.16908-6.674421 3.887117-8.454541 9.536393-5.356815 14.376442l-22.500976 13.104294c-8.348169-1.782773-18.072713-.731484-24.745372 3.154454-9.152132 5.330062-9.103354 13.97065.104609 19.298356 9.212077 5.330062 24.097148 5.330062 33.248693 0 6.910673-4.024343 8.573255-9.93865 5.003024-14.889423l21.964413-12.791558c8.539756 2.056049 18.723289 1.071312 25.636313-2.954798.96793-.563632 1.833013-1.164957 2.59525-1.79573l48.47051 7.531583c.811603 2.837595 3.153557 5.457865 6.64445 7.477988 2.827975 1.635533 6.411135 2.877644 10.542024 3.520196 12.554871 1.949448 25.418868-2.371141 28.739917-9.65065 2.222652-4.882454-.410797-9.856197-6.17312-13.190283-2.828563-1.636711-6.412311-2.878822-10.544963-3.520196zM211.760768 124.80626c6.23239.068235 12.373359-1.670589 16.023131-4.92412 4.933756-4.39706 3.690794-10.104122-2.481235-13.680006-.897206-.520589-1.901069-.996471-3.003971-1.415883-8.677877-3.30059-20.294677-1.897648-25.946314 3.140001-3.918172 3.492943-3.937511 7.815886-.683893 11.23824l-19.893249 17.730597c-3.396608-.302353-6.898701-.172353-10.241395.405294l-6.613307-4.771178c4.126211-4.646473 3.422394-10.475887-2.600785-14.821183-.54852-.395883-1.125756-.768236-1.730535-1.118825-8.373144-4.851766-21.84413-5.374708-31.234616-.98-10.069104 4.711767-11.639654 13.289418-3.502679 19.158832.549693.39706 1.128687.771177 1.734638 1.122942 6.077679 3.521178 14.845218 4.760002 22.785288 3.492354l6.864126 4.952944c-1.481474 1.762353-2.280228 3.685884-2.36989 5.626473l-24.449603 5.391767c-.142405-.087059-.286567-.172353-.432488-.257647-6.34139-3.67412-16.02313-5.072355-24.91315-3.111178-12.090308 2.666472-18.143374 10.535887-13.516696 17.574714 1.224795 1.86353 3.074294 3.481178 5.357452 4.804708 6.340219 3.674119 16.020787 5.071178 24.91315 3.111766 8.859546-1.954707 14.475436-6.700592 15.025715-11.867653l25.062-5.526473c2.333557 1.332942 5.055063 2.334707 7.968786 2.990002l2.47303 28.055895c-8.127012 2.321765-13.517868 7.294709-13.022676 12.895299.310008 3.523531 2.893798 6.670592 6.883465 8.981769 4.524123 2.621766 10.855551 4.17059 17.724952 3.978237 12.92774-.362353 22.87202-6.750591 22.210982-14.265889-.310008-3.524119-2.894384-6.670591-6.884051-8.982356-2.311873-1.340001-5.094912-2.399413-8.180927-3.089414l-2.473617-28.019424c1.541249-.437059 3.02331-.980589 4.415708-1.632354 1.349619-.631176 2.547457-1.332353 3.589412-2.086471l26.754444 4.236472c.75949 2.902355 3.119418 5.588826 6.675426 7.650004 2.796517 1.620001 6.333772 2.85353 10.411343 3.50059 12.504629 1.977648 25.365562-2.304707 28.729939-9.567063 2.266164-4.89118-.35396-9.886476-6.126905-13.231771-2.797689-1.621177-6.336702-2.855295-10.417203-3.501178-9.297308-1.472354-18.793864.52-24.434953 4.62412l-26.726901-4.232944c-.508085-1.980589-1.77273-3.920001-3.820892-5.665296l20.098944-17.914714z" fill-opacity=".6" fill="#A3A8AF" style="mix-blend-mode:multiply"/><path d="M304.872756 219.599719c1.56963-.356406 3.188661-.610729 4.831215-.765919l39.89472-87.599096c-.585744-.282647-1.156198-.578274-1.704304-.896325-.601035-.348145-1.160315-.711632-1.678428-1.08515l-150.429861 23.446068c-.252293.998408-.699835 1.983835-1.334391 2.934446l110.421049 63.965976m25.246406 3.060722c9.217829 5.339595 9.262524 13.994235.103505 19.33442-9.157255 5.340185-24.045512 5.340185-33.263341 0-6.84133-3.962948-8.629144-9.755131-5.352269-14.66043l-110.42046-63.965975c-8.429192 1.920696-18.397432.902815-25.24229-3.062493-9.2143-5.337825-9.26723-13.992465-.108798-19.33265 9.157843-5.340185 24.053746-5.340185 33.268046-.00236.642201.372337 1.227946.759427 1.77664 1.159498l150.30636-23.427185c.683369-2.817021 2.884027-5.53078 6.603739-7.699897 9.154314-5.337825 24.049041-5.337825 33.263341 0 9.218417 5.340184 9.267229 13.997185.112915 19.33501-3.774994 2.200982-8.521523 3.488527-13.440952 3.877977l-39.78063 87.337103c.755117.341064 1.48318.706911 2.174194 1.106982" fill-opacity=".6" fill="#CDD2D9" style="mix-blend-mode:multiply"/><g transform="translate(149 82.5)"><use fill="#2E81FF" xlink:href="#a"/><use fill-opacity=".1" fill="#3B404C" style="mix-blend-mode:multiply" xlink:href="#a"/><use fill="url(#b)" style="mix-blend-mode:multiply" xlink:href="#a"/></g><g transform="translate(149 82.5)"><use fill="#2E81FF" xlink:href="#c"/><use fill="url(#d)" style="mix-blend-mode:multiply" xlink:href="#c"/><use fill-opacity=".1" fill="#3B404C" style="mix-blend-mode:multiply" xlink:href="#c"/></g><g transform="translate(149 82.5)"><use fill="#2E81FF" xlink:href="#e"/><use fill-opacity=".1" fill="url(#f)" style="mix-blend-mode:multiply" xlink:href="#e"/><use fill-opacity=".17" fill="#000" style="mix-blend-mode:multiply" xlink:href="#e"/></g><path d="M195.716925 137.559641c-.252506.993127-.698796 1.97392-1.33241 2.920064l.027012-9.574778c.633614-.946143 1.080491-1.926936 1.33241-2.92065l-.027012 9.575364z" fill="#2E81FF"/><g transform="translate(149 82.5)"><use fill="#2E81FF" xlink:href="#g"/><use fill-opacity=".07" fill="#3B404C" style="mix-blend-mode:multiply" xlink:href="#g"/><use fill-opacity=".3" fill="url(#h)" style="mix-blend-mode:multiply" xlink:href="#g"/></g><g transform="translate(149 82.5)"><use fill="#2E81FF" xlink:href="#i"/><use fill-opacity=".1" fill="url(#j)" style="mix-blend-mode:multiply" xlink:href="#i"/><use fill-opacity=".4" fill="#3B404C" style="mix-blend-mode:multiply" xlink:href="#i"/></g><g transform="translate(149 82.5)"><use fill="#2E81FF" xlink:href="#k"/><use fill-opacity=".2" fill="url(#l)" style="mix-blend-mode:multiply" xlink:href="#k"/><use fill-opacity=".1" fill="#3B404C" style="mix-blend-mode:multiply" xlink:href="#k"/></g><g transform="translate(149 82.5)"><use fill="#2E81FF" xlink:href="#m"/><use fill-opacity=".05" fill="url(#n)" style="mix-blend-mode:multiply" xlink:href="#m"/><use fill-opacity=".05" fill="url(#o)" style="mix-blend-mode:multiply" xlink:href="#m"/></g></g></g></svg>