<?xml version="1.0" encoding="UTF-8"?><!DOCTYPE svg PUBLIC "-//W3C//DTD SVG 1.1//EN" "http://www.w3.org/Graphics/SVG/1.1/DTD/svg11.dtd"><svg xmlns="http://www.w3.org/2000/svg"><symbol id="icon-logo" viewBox="0 0 68 68">
    <path d="M0 0h68v68H0V0z"/>
    <path fill="currentColor" d="M40.383 41.04L21.632 30.52c.176-.254.315-.514.417-.778l26.178-4.041c.067.04.133.08.203.12.497.28 1.038.52 1.608.723L43.45 40.67c-1.032.02-2.06.144-3.067.37m20.92-22.526c-3.577-2.018-9.36-2.019-12.915 0-1.267.719-2.077 1.597-2.437 2.52l-26.179 4.042c-.067-.04-.132-.08-.202-.12-3.578-2.017-9.36-2.018-12.916 0-3.555 2.018-3.536 5.29.042 7.308 2.68 1.511 6.595 1.89 9.886 1.139l18.75 10.52c-1.294 1.859-.606 4.06 2.062 5.564 3.578 2.017 9.361 2.017 12.916 0 3.556-2.019 3.536-5.29-.042-7.308a10.224 10.224 0 0 0-1.609-.723l6.588-14.126c2.219-.048 4.41-.55 6.099-1.509 3.555-2.018 3.536-5.29-.043-7.307"/>
    <path fill-opacity=".5" d="M40.383 41.04L21.632 30.52c.176-.254.315-.514.417-.778l26.178-4.041c.067.04.133.08.203.12.497.28 1.038.52 1.608.723L43.45 40.67c-1.032.02-2.06.144-3.067.37m20.92-22.526c-3.577-2.018-9.36-2.019-12.915 0-1.267.719-2.077 1.597-2.437 2.52l-26.179 4.042c-.067-.04-.132-.08-.202-.12-3.578-2.017-9.36-2.018-12.916 0-3.555 2.018-3.536 5.29.042 7.308 2.68 1.511 6.595 1.89 9.886 1.139l18.75 10.52c-1.294 1.859-.606 4.06 2.062 5.564 3.578 2.017 9.361 2.017 12.916 0 3.556-2.019 3.536-5.29-.042-7.308a10.224 10.224 0 0 0-1.609-.723l6.588-14.126c2.219-.048 4.41-.55 6.099-1.509 3.555-2.018 3.536-5.29-.043-7.307"/>
</symbol></svg>