<svg width="954" height="590" xmlns="http://www.w3.org/2000/svg" xmlns:xlink="http://www.w3.org/1999/xlink"><defs><path id="a" d="M0 0h623v330H0z"/><linearGradient x1="100%" y1="50%" x2="1.280843%" y2="78.47776%" id="d"><stop stop-opacity=".29" offset="0%"/><stop stop-opacity=".5" offset="100%"/></linearGradient><path id="c" d="M314.745427 27.621908l-.034926 12.296743L60.185576 79.355565 60.2205 67.05788z"/><linearGradient x1="-2.739293%" y1="45.241389%" y2="43.839575%" id="f"><stop stop-opacity=".237121" offset="0%"/><stop stop-opacity="0" offset="21.864828%"/><stop stop-opacity=".185773" offset="59.881268%"/><stop stop-opacity=".227723" offset="100%"/></linearGradient><path d="M319.801003 30.75788l-.034926 12.297685c-.950547-.431829-1.872775-.892886-2.746863-1.396371-.963762-.556286-1.838794-1.137086-2.641143-1.746172l.034926-12.296743c.802348.608143 1.67738 1.188943 2.641142 1.745229.874088.503486 1.796317.965486 2.746864 1.396371zm48.710105-1.36619c-.013216 4.443686-2.935652 8.879829-8.774861 12.2694-5.07745 2.947372-11.668453 4.621886-18.310011 5.025429l.034926-12.296743c6.641558-.403543 13.232561-2.079 18.310011-5.025428 5.839209-3.390515 8.761645-7.826658 8.773916-12.270343l-.033981 12.297685z" id="e"/><linearGradient x1="127.175672%" y1="50%" x2="50%" y2="100%" id="h"><stop stop-opacity=".345675" offset="0%"/><stop stop-opacity=".5" offset="100%"/></linearGradient><path id="g" d="M56.636364 67.885714h3.775758v8.485714h-3.775758z"/><linearGradient x1="100%" y1="3.814404%" x2="3.996382%" y2="93.354075%" id="j"><stop stop-opacity=".2" offset="0%"/><stop stop-opacity=".5" offset="100%"/></linearGradient><path id="i" d="M341.597508 34.386001l-.034926 12.296743-67.220756 146.941457.034926-12.297686z"/><linearGradient x1="0%" y1="50%" y2="50%" id="l"><stop stop-opacity=".1" offset="0%"/><stop stop-color="#FFF" stop-opacity=".1" offset="36.091659%"/><stop stop-opacity=".4" offset="100%"/></linearGradient><path d="M286.789555 195.505193l-.033982 12.296743c-.013215 4.444629-2.938484 8.8836-8.780525 12.274114-11.759596 6.827229-30.88664 6.827229-42.717033.003772-5.953426-3.432-8.923059-7.940743-8.910788-12.441l.034926-12.297686c-.013215 4.5012 2.958306 9.009 8.910788 12.441943 11.830392 6.822514 30.957436 6.822514 42.717033-.003772 5.842985-3.391457 8.767309-7.829485 8.779581-12.274114" id="k"/><linearGradient x1="0%" y1="6.818945%" x2="98.936323%" y2="91.901058%" id="n"><stop stop-color="#FFF" stop-opacity=".5" offset="0%"/><stop stop-opacity=".5" offset="100%"/></linearGradient><path id="m" d="M228.733506 188.591255l-.034926 12.297686L41.745018 93.090174l.033981-12.296743z"/><linearGradient x1="0%" y1="-20.148995%" y2="89.374185%" id="p"><stop stop-opacity=".407269" offset="0%"/><stop stop-color="#FFF" stop-opacity=".637596" offset="32.728432%"/><stop stop-color="#FFF" stop-opacity=".520041" offset="47.180571%"/><stop stop-opacity=".8" offset="100%"/></linearGradient><path d="M0 77.100253l.034926-12.297686c-.013215 4.5012 2.962082 9.009943 8.919283 12.445715 8.991023 5.184771 22.195791 6.425571 33.172862 3.729l-.033982 12.296742C31.11413 95.970596 17.910306 94.73074 8.919283 89.545967 2.986558 86.124312.012221 81.638485 0 77.15574v-.055487z" id="o"/><linearGradient x1="8.120757%" y1="30.024486%" y2="51.324353%" id="r"><stop stop-color="#FFF" stop-opacity=".5" offset="0%"/><stop stop-opacity=".5" offset="100%"/></linearGradient><radialGradient cx="15.892704%" cy="32.786117%" fx="15.892704%" fy="32.786117%" r="89.671376%" gradientTransform="matrix(.579 0 0 .6261 .066909 .122587)" id="s"><stop stop-color="#FFF" stop-opacity=".5" offset="0%"/><stop stop-opacity=".5" offset="100%"/></radialGradient><path d="M244.696465 179.800029c2.476897-.609086 5.069899-1.019229 7.69405-1.223829l67.410488-147.344057c-.950547-.430886-1.872776-.892886-2.746864-1.396372-.963762-.556285-1.838794-1.137085-2.641142-1.745228l-254.192496 39.4416c-.33321 1.588714-1.039277 3.156686-2.129527 4.653943l186.605491 107.613943m33.180414 3.732771c11.830392 6.821571 11.892692 17.887886.133095 24.714171-11.759597 6.826286-30.886641 6.826286-42.717033.003772-8.991023-5.185714-11.179074-12.820972-6.559435-19.185257l-186.606435-107.613c-10.977071 2.696571-24.18184 1.455771-33.172862-3.729-11.837-6.826286-11.900244-17.8926-.140647-24.718886 11.759597-6.826286 30.886641-6.826286 42.723641 0 1.01851.5874 1.947347 1.212514 2.791229 1.859314L308.33497 15.45343c.735329-3.774258 3.586026-7.4382 8.580409-10.336543 11.75299-6.822515 30.880034-6.822515 42.717034.003771 11.830392 6.821572 11.891748 17.888829.138759 24.711343-5.07745 2.946429-11.532108 4.621886-18.173665 5.025429l-67.220756 146.940514c1.222401.517628 2.391942 1.094657 3.500127 1.734857" id="q"/></defs><g fill="none" fill-rule="evenodd"><path fill="#D9DEE5" opacity=".5" style="mix-blend-mode:multiply" d="M0 313.833251L477 589l477-275.917203L476.396562 39z"/><path fill="#BDC2C9" d="M477 550.994676V557l477-275.994676V275z"/><path fill="#D9DEE5" d="M0 282l477 275v-6L0 276z"/><path fill="#FFF" d="M0 275.833251L477 551l477-275.917203L476.396562 1z"/><g transform="translate(149 122)"><mask id="b" fill="#fff"><use xlink:href="#a"/></mask><g fill-opacity=".6" mask="url(#b)" fill="#A3A8AF"><path d="M222.882214 57.929709c9.940626 5.732571 11.940834 14.883943 3.998528 21.928971-6.712353 5.9532-18.650355 8.741229-30.070134 7.671086l-34.895551 30.946457c3.131047 2.485372 4.967953 5.303572 5.567354 8.178343l55.82552 8.795914c7.194706-5.523257 19.72267-8.247171 31.982555-6.312428 5.262462.828771 9.822633 2.410886 13.430369 4.491771 7.435411 4.289057 10.81377 10.694829 7.896053 16.966715-4.339289 9.311657-20.912977 14.802857-37.019415 12.2628-5.25963-.829715-9.81697-2.410886-13.422818-4.489886-4.767838-2.750314-7.867735-6.370886-8.705953-10.267714l-55.85667-8.799686c-1.453666 1.107857-3.165972 2.137457-5.124647 3.051086-2.02475.945685-4.208082 1.710342-6.47448 2.308114l4.656453 52.551086c4.276989.8778 8.127318 2.297742 11.292347 4.123114 5.136918 2.961514 8.465248 6.992228 8.866423 11.506628.852377 9.643543-11.955937 17.8332-28.623075 18.2952-8.852263.246086-17.008843-1.741457-22.839557-5.102742-5.13975-2.964343-8.469968-6.998829-8.870199-11.514172-.65415-7.354286 6.650053-13.86 17.548778-16.742314l-4.664005-52.609543c-4.086314-.8448-7.896997-2.208171-11.11583-4.0656l-53.029571 11.361429c-.448372 6.781028-7.747855 13.068-19.398899 15.625971-11.451873 2.5146-23.922256.725057-32.094883-3.987343-2.94226-1.6962-5.327594-3.774257-6.906805-6.1644-5.960977-9.0222 1.838794-19.115486 17.420402-22.5324 11.452816-2.515543 23.917536-.721286 32.087332 3.991114.407781.233829.804236.476143 1.18842.725058l51.777907-11.3652c-.021711-2.7984 1.109129-5.581715 3.348153-8.094429l-19.355477-13.898657c-10.439026 1.844228-22.129716.294171-30.169247-4.3428-.77875-.4488-1.524462-.926829-2.229585-1.433143-10.489055-7.524943-8.465249-18.524314 4.51203-24.566143 12.099415-5.637343 29.462236-4.966971 40.254296 1.255886.776862.4488 1.519742.925886 2.223921 1.431257 7.93853 5.699571 8.702177 13.387629 2.975297 19.4106l18.975069 13.624286c4.813147-.931543 9.917972-1.125772 14.834008-.626057l34.717147-30.792772c-7.391989-5.718428-8.253806-13.718571-1.140279-20.030057 9.096744-8.070857 27.814118-10.323343 41.792917-5.032971 1.776494.672257 3.39063 1.433142 4.835801 2.267571M612.419306 90.371193c7.407093 4.272085 10.791115 10.643914 7.925315 16.896-4.260942 9.322028-20.791209 14.858485-36.916525 12.356143-5.312491-.822172-9.918915-2.411829-13.55497-4.508743-4.656453-2.685257-7.723312-6.202115-8.644597-9.998057l-90.697473-14.0448c-1.141222 1.025828-2.481616 1.998857-4.026845 2.894571-9.118455 5.294143-22.670593 6.480257-33.817573 3.564l-44.631342 25.905943c5.081225 6.436886 3.077242 14.281457-6.041212 19.574657-11.759597 6.826286-30.886641 6.826286-42.717034.003771-11.837-6.825342-11.898356-17.8926-.138759-24.717942 8.741823-5.074458 21.559576-6.370886 32.421486-3.896829l45.433691-26.371714c-4.311915-6.277543-2.11348-13.697829 6.63495-18.775115 1.161046-.674142 2.402326-1.283228 3.696467-1.825371l-13.52382-28.854257c-6.580201-.519514-12.685601-2.2836-17.352438-4.975457-3.634166-2.095972-6.398021-4.753886-7.834696-7.824772-4.371384-9.317314 5.137862-18.903343 21.240524-21.402857 10.797722-1.673571 21.817271.262114 29.223419 4.5342 3.634167 2.095029 6.398966 4.755772 7.838473 7.825714 3.355705 7.159115-1.480097 14.464372-11.18285 18.604458l13.588952 28.982485c6.214897.5214 12.219295 2.168572 17.022059 4.937743 4.381766 2.5278 7.151285 5.634514 8.298171 8.894914l92.068073 14.259772c7.117303-5.637343 19.746268-8.463086 32.13736-6.548143 5.311547.823114 9.91514 2.412771 13.551194 4.509686M468.127391 234.483952c3.636055 2.096914 6.401797 4.757657 7.842249 7.828543 4.377047 9.321085-5.138806 18.904285-21.241468 21.402857-10.790171 1.6764-21.805-.260229-29.208317-4.530429-.926948-.5346-1.798204-1.106914-2.604329-1.712228l-28.490922 4.417285c-.856153 4.800086-5.14447 9.2004-11.772813 12.105343l8.269854 17.649343c6.88415.433714 13.298218 2.229857 18.15573 5.032029 3.633223 2.095028 6.395189 4.752 7.830921 7.821 4.377991 9.322028-5.136918 18.903343-21.240524 21.401914-10.797723 1.674514-21.816327-.262114-29.22342-4.533257-3.634167-2.095972-6.398965-4.755772-7.837529-7.824772-3.278301-6.996942 1.260159-14.141914 10.535308-18.327257l-8.361415-17.825657c-6.712353-.479914-12.949905-2.260971-17.700752-5.000914-1.101577-.634543-2.122919-1.320943-3.050812-2.055429l-91.925538 14.264486c-1.239392 6.9762-9.723519 13.1142-22.129715 15.035743-10.802442 1.6764-21.822935-.260229-29.229083-4.530429-3.635111-2.096914-6.398965-4.755771-7.838473-7.825714-4.372327-9.323914 5.14447-18.907114 21.240524-21.401914 10.799611-1.677343 21.815384.259285 29.22342 4.532314.863704.497829 1.680212 1.027714 2.439139 1.587771l92.645764-14.375742c1.084586-4.576629 5.296444-8.736515 11.660483-11.525486l-15.054889-32.106172c-6.82185-.449742-13.169843-2.240228-17.989597-5.018828-3.633223-2.095972-6.397077-4.753886-7.834697-7.822886-4.36572-9.322028 5.137862-18.904286 21.240524-21.4038 10.797723-1.673571 21.817271.263057 29.22342 4.5342 3.634167 2.095972 6.398965 4.755772 7.837529 7.825714 3.295292 7.027115-1.301693 14.200372-10.660852 18.378172l15.10303 32.225914c6.720849.479914 12.962176 2.256257 17.716799 4.998086.861817.497828 1.674548 1.025828 2.432532 1.584l28.677823-4.449343c1.33001-6.915857 9.783931-12.972771 22.100453-14.885829 10.798666-1.675457 21.815383.261172 29.219643 4.531372" style="mix-blend-mode:multiply"/></g><path d="M352.305556 243.914314c2.476897-.609085 5.069899-1.019228 7.69405-1.223828l67.410488-147.344057c-.950547-.430886-1.872776-.892886-2.746864-1.396372-.963762-.556286-1.838794-1.137086-2.641142-1.745228l-254.192496 39.4416c-.33321 1.588714-1.039277 3.156685-2.129527 4.653942l186.605491 107.613943m33.180414 3.732772c11.830392 6.821571 11.892692 17.887885.133095 24.714171s-30.886641 6.826286-42.717033.003772c-8.991023-5.185715-11.179074-12.820972-6.559435-19.185258l-186.606435-107.613c-10.977071 2.696572-24.181839 1.455772-33.172862-3.729-11.837-6.826285-11.900244-17.8926-.140647-24.718885 11.759597-6.826286 30.886641-6.826286 42.723641 0 1.018511.5874 1.947347 1.212514 2.791229 1.859314l254.006539-39.410486c.735329-3.774257 3.586026-7.4382 8.580409-10.336543 11.75299-6.822514 30.880034-6.822514 42.717034.003772 11.830392 6.821571 11.891748 17.888828.138759 24.711343-5.07745 2.946428-11.532108 4.621885-18.173666 5.025428L381.985842 245.91223c1.222402.517628 2.391943 1.094657 3.500128 1.734857" fill-opacity=".6" fill="#CDD2D9" style="mix-blend-mode:multiply" mask="url(#b)"/><g mask="url(#b)"><g transform="translate(107.609091 34)"><use fill="#2E81FF" xlink:href="#c"/><use fill-opacity=".1" fill="url(#d)" style="mix-blend-mode:multiply" xlink:href="#c"/><use fill-opacity=".17" fill="#000" style="mix-blend-mode:multiply" xlink:href="#c"/></g><g transform="translate(107.609091 34)"><use fill="#2E81FF" xlink:href="#e"/><use fill="url(#f)" style="mix-blend-mode:multiply" xlink:href="#e"/><use fill-opacity=".1" fill="#3B404C" style="mix-blend-mode:multiply" xlink:href="#e"/></g><g transform="translate(107.609091 34)"><use fill="#2E81FF" xlink:href="#g"/><use fill-opacity=".9" fill="url(#h)" style="mix-blend-mode:multiply" xlink:href="#g"/></g><g transform="translate(107.609091 34)"><use fill="#2E81FF" xlink:href="#i"/><use fill-opacity=".1" fill="url(#j)" style="mix-blend-mode:multiply" xlink:href="#i"/><use fill-opacity=".4" fill="#3B404C" style="mix-blend-mode:multiply" xlink:href="#i"/></g><g transform="translate(107.609091 34)"><use fill="#2E81FF" xlink:href="#k"/><use fill-opacity=".1" fill="#3B404C" style="mix-blend-mode:multiply" xlink:href="#k"/><use fill="url(#l)" style="mix-blend-mode:multiply" xlink:href="#k"/></g><g transform="translate(107.609091 34)"><use fill="#2E81FF" xlink:href="#m"/><use fill-opacity=".2" fill="url(#n)" style="mix-blend-mode:multiply" xlink:href="#m"/><use fill-opacity=".1" fill="#3B404C" style="mix-blend-mode:multiply" xlink:href="#m"/></g><g transform="translate(107.609091 34)"><use fill="#2E81FF" xlink:href="#o"/><use fill-opacity=".07" fill="#3B404C" style="mix-blend-mode:multiply" xlink:href="#o"/><use fill-opacity=".3" fill="url(#p)" style="mix-blend-mode:multiply" xlink:href="#o"/></g><g transform="translate(107.609091 34)"><use fill="#2E81FF" xlink:href="#q"/><use fill-opacity=".05" fill="url(#r)" style="mix-blend-mode:multiply" xlink:href="#q"/><use fill-opacity=".05" fill="url(#s)" style="mix-blend-mode:multiply" xlink:href="#q"/></g></g></g></g></svg>