<svg width="1136" height="696" xmlns="http://www.w3.org/2000/svg" xmlns:xlink="http://www.w3.org/1999/xlink"><defs><path id="a" d="M0 0h741.753131v394.246869H0z"/><linearGradient x1="100%" y1="50%" x2="1.280843%" y2="78.47776%" id="d"><stop stop-opacity=".29" offset="0%"/><stop stop-opacity=".5" offset="100%"/></linearGradient><path id="c" d="M374.740619 32.999548l-.041583 12.690765L71.657848 92.8051l.041583-12.69189z"/><linearGradient x1="-2.739293%" y1="45.241389%" y2="43.839575%" id="f"><stop stop-opacity=".237121" offset="0%"/><stop stop-opacity="0" offset="21.864828%"/><stop stop-opacity=".185773" offset="59.881268%"/><stop stop-opacity=".227723" offset="100%"/></linearGradient><path d="M380.718281 49.437945c-1.131736-.5159-2.229755-1.06672-3.270457-1.668228-1.14747-.664587-2.189296-1.358462-3.144584-2.086129l.041583-12.690765c.955288.726541 1.997114 1.420415 3.144584 2.085003 1.040702.601508 2.138721 1.153454 3.270457 1.668228l-.041583 12.69189zm58.036563-16.32406c-.015734 5.308815-3.495231 10.60862-10.447481 14.658098-6.045288 3.521188-13.892635 5.52171-21.800173 6.003817l.041583-12.690765c7.907538-.482108 15.754885-2.483755 21.800173-6.003817 6.95225-4.050605 10.431747-9.350409 10.446357-14.659225l-.040459 12.691891z" id="e"/><linearGradient x1="127.175672%" y1="50%" x2="50%" y2="100%" id="h"><stop stop-opacity=".345675" offset="0%"/><stop stop-opacity=".5" offset="100%"/></linearGradient><path id="g" d="M67.432103 81.102213h4.495474V91.23999h-4.495474z"/><linearGradient x1="100%" y1="3.814404%" x2="3.996382%" y2="93.354075%" id="j"><stop stop-opacity=".2" offset="0%"/><stop stop-opacity=".5" offset="100%"/></linearGradient><path id="i" d="M406.711109 41.080525l-.041584 12.690765-80.034038 175.54912.041583-12.691892z"/><linearGradient x1="0%" y1="50%" y2="50%" id="l"><stop stop-opacity=".1" offset="0%"/><stop stop-color="#FFF" stop-opacity=".1" offset="36.091659%"/><stop stop-opacity=".4" offset="100%"/></linearGradient><path d="M341.41548 246.258372c-.015735 5.309942-3.498603 10.613126-10.454224 14.663731-14.001152 8.156404-36.774097 8.156404-50.85954.004505-7.088238-4.100167-10.623928-9.486706-10.609317-14.863107l.041583-12.691891c-.015734 5.377527 3.522203 10.76294 10.609317 14.864233 14.085443 8.150773 36.858388 8.150773 50.85954-.004505 6.956745-4.051732 10.43849-9.353789 10.4531-14.663731l-.040459 12.690765z" id="k"/><linearGradient x1="0%" y1="6.818945%" x2="98.936323%" y2="91.901058%" id="n"><stop stop-color="#FFF" stop-opacity=".5" offset="0%"/><stop stop-opacity=".5" offset="100%"/></linearGradient><path id="m" d="M272.333538 223.307612l-.041583 14.691891L49.702243 109.213665l.04046-12.690764z"/><linearGradient x1="0%" y1="-20.148995%" y2="89.374185%" id="p"><stop stop-opacity=".407269" offset="0%"/><stop stop-color="#FFF" stop-opacity=".637596" offset="32.728432%"/><stop stop-color="#FFF" stop-opacity=".520041" offset="47.180571%"/><stop stop-opacity=".8" offset="100%"/></linearGradient><path d="M.041583 77.418816c-.015734 5.377527 3.5267 10.764066 10.619432 14.86874 10.704847 6.19418 26.426642 7.676549 39.496107 4.454989l-.04046 12.690765c-13.071712 3.22156-28.792383 1.740318-39.49723-4.453864C3.555841 100.891638.01455 95.532476 0 90.176997l.041583-12.75818z" id="o"/><linearGradient x1="8.120757%" y1="30.024486%" y2="51.324353%" id="r"><stop stop-color="#FFF" stop-opacity=".5" offset="0%"/><stop stop-opacity=".5" offset="100%"/></linearGradient><radialGradient cx="15.892704%" cy="32.786117%" fx="15.892704%" fy="32.786117%" r="89.671376%" gradientTransform="matrix(.58098 0 0 .6261 .066594 .122587)" id="s"><stop stop-color="#FFF" stop-opacity=".5" offset="0%"/><stop stop-opacity=".5" offset="100%"/></radialGradient><path d="M291.339276 214.804844c2.949031-.727667 6.036297-1.21766 9.160651-1.462093l80.259937-176.0301c-1.131736-.514775-2.229755-1.06672-3.270457-1.668228-1.14747-.664588-2.189296-1.358462-3.144584-2.085003L71.699431 80.679806c-.396726 1.898017-1.23738 3.771253-2.535447 5.560007l222.175292 128.565031m39.505098 4.459495c14.085442 8.149646 14.159617 21.370433.158465 29.525711-14.001152 8.155278-36.774097 8.155278-50.85954.004506-10.704846-6.195308-13.309973-15.317054-7.809761-22.920387L50.157122 97.310265c-13.069465 3.22156-28.79126 1.739192-39.496107-4.45499-14.093309-8.155278-14.168608-21.376065-.167456-29.531343 14.001152-8.155278 36.774097-8.155278 50.867407 0 1.212654.70176 2.31854 1.448576 3.323279 2.2213l302.42399-47.083214c.875493-4.509058 4.269576-8.886325 10.215963-12.348939 13.993285-8.150772 36.76623-8.150772 50.85954.004506 14.085442 8.149646 14.158494 21.37156.165208 29.522332-6.045288 3.520061-13.730299 5.521709-21.637837 6.003817L326.67707 217.191727c1.455409.618404 2.847882 1.307773 4.167304 2.072612" id="q"/></defs><g fill="none" fill-rule="evenodd"><path fill="#D9DEE5" opacity=".5" style="mix-blend-mode:multiply" d="M0 367.001351L568 695.5 1135 367 568 39z"/><path fill="#BDC2C9" d="M568 657.5v6L1135 335v-6z"/><path fill="#D9DEE5" d="M0 335l568 328.5v-6L0 329z"/><path fill="#FFF" d="M0 329.001351L568 657.5 1135 329 568 1z"/><g transform="translate(177.817531 145.286225)"><mask id="b" fill="#fff"><use xlink:href="#a"/></mask><g fill-opacity=".6" mask="url(#b)" fill="#A3A8AF"><path d="M265.366903 69.207898c11.835457 6.848632 14.216935 17.78166 4.760706 26.198268-7.991828 7.112213-22.205391 10.443036-35.801951 9.16455l-41.547166 36.971345c3.727871 2.969242 5.914919 6.33611 6.628575 9.770564l66.4667 10.508369c8.566125-6.598567 23.482106-9.852793 38.078909-7.54138 6.265566.990123 11.694974 2.880255 15.990399 5.366263 8.852711 5.124083 12.875036 12.776978 9.401159 20.269921-5.166423 11.124521-24.899304 17.684789-44.07587 14.650214-6.262195-.991249-11.688231-2.880255-15.981409-5.36401-5.676659-3.285766-9.367442-7.611218-10.365438-12.26671l-66.503787-10.512874c-1.730757 1.323543-3.769455 2.553593-6.101482 3.645094-2.410697 1.129798-5.010205 2.043325-7.708613 2.757475l5.544043 62.782124c5.092248 1.048697 9.676507 2.745085 13.444837 4.925833 6.116092 3.538084 10.078852 8.353528 10.556496 13.746825 1.014853 11.52102-14.234917 21.305101-34.079061 21.857047-10.539637.293995-20.250984-2.080497-27.193119-6.096183-6.119463-3.541464-10.084471-8.361413-10.560991-13.755837-.778841-8.786073 7.917652-16.558368 20.893837-20.001833l-5.553034-62.851962c-4.865226-1.009272-9.402283-2.638075-13.234674-4.857122l-63.137802 13.573357c-.533837 8.10121-9.224711 15.612176-23.096619 18.668152-13.63477 3.004161-28.482196.866217-38.212649-4.763628-3.503097-2.026429-6.343113-4.509058-8.223344-7.364532-7.09723-10.778709 2.189295-22.837031 20.74099-26.919176 13.635896-3.005288 28.476578-.861711 38.203658 4.768134.485511.279352.957536.568842 1.41495.866217l61.647553-13.577862c-.025849-3.343214 1.320545-6.668405 3.986361-9.670313l-23.044921-16.604552c-12.42886 2.203277-26.34797.351443-35.919957-5.188288-.927192-.536176-1.815048-1.107271-2.654577-1.712158-12.488426-8.989955-10.078852-22.130767 5.37209-29.348864 14.405745-6.734863 35.07818-5.933978 47.927367 1.500391.924944.536176 1.809429 1.106144 2.647834 1.709905 9.451733 6.809207 10.360943 15.994033 3.542433 23.189601l22.592003 16.276764c5.730605-1.112903 11.808485-1.344945 17.661591-.747943l41.334755-36.787738c-8.801013-6.831735-9.827105-16.389406-1.357633-23.929659 10.83072-9.642152 33.115906-12.333168 49.759273-6.012828 2.11512.803137 4.036935 1.712158 5.757578 2.70904M729.155598 107.965333c8.818995 5.103807 12.848064 12.716151 9.435999 20.185439-5.073142 11.136911-24.754325 17.751247-43.953368 14.76173-6.325132-.982238-11.809609-2.881382-16.13875-5.386539-5.544043-3.208043-9.195491-7.409588-10.292387-11.944554l-107.985769-16.779146c-1.358757 1.225544-2.95465 2.388009-4.794423 3.458108-10.856568 6.324846-26.991947 7.741882-40.263708 4.257866l-53.138745 30.949506c6.049783 7.690066 3.663811 17.061878-7.192758 23.385598-14.001152 8.155278-36.774097 8.155278-50.859539.004505-14.09331-8.154151-14.166361-21.376065-.165209-29.530217 10.408145-6.06239 25.669154-7.611217 38.601507-4.655492l54.094033-31.505957c-5.133831-7.499702-2.516341-16.364624 7.899671-22.430394 1.382358-.80539 2.860245-1.533057 4.401069-2.180748l-16.101663-34.47182c-7.834486-.620657-15.103667-2.728189-20.660072-5.944117-4.326893-2.50403-7.61758-5.679407-9.328108-9.348156-5.204634-11.131279 6.117216-22.583587 25.289287-25.569726 12.85593-1.999395 25.975969.313145 34.793841 5.416952 4.326893 2.502905 7.618703 5.68166 9.332603 9.349283 3.995352 8.552904-1.762226 17.280404-13.314469 22.226512l16.179209 34.625013c7.39955.62291 14.548476 2.590765 20.266719 5.89906 5.216997 3.01993 8.514427 6.731484 9.879927 10.626643l109.617626 17.03597c8.473968-6.734863 23.510203-10.110743 38.263223-7.822984 6.324007.983364 11.805113 2.882508 16.134254 5.387665M557.359483 280.135042c4.329141 2.505157 7.622076 5.683914 9.337099 9.352662 5.211378 11.135785-6.118339 22.584714-25.29041 25.569726-12.84694 2.002774-25.96136-.310892-34.775859-5.412446-1.103639-.63868-2.14097-1.322417-3.100753-2.045578l-33.92172 5.277276c-1.019348 5.734602-6.125082 10.991602-14.016886 14.462101l9.846211 21.085449c8.196372.518153 15.833058 2.663983 21.616484 6.011702 4.32577 2.502904 7.614209 5.677155 9.323612 9.34365 5.212502 11.136911-6.116091 22.583588-25.289286 25.5686-12.85593 2.000521-25.974846-.313145-34.793841-5.415826-4.326893-2.504031-7.618704-5.681661-9.331479-9.348156-3.903195-8.359161 1.500364-16.895168 12.543495-21.895345l-9.955226-21.29609c-7.991828-.573347-15.418351-2.701154-21.07478-5.974529-1.311555-.758081-2.52758-1.578114-3.632343-2.455595l-109.447922 17.041602c-1.475639 8.334379-11.576968 15.667371-26.34797 17.963014-12.86155 2.002774-25.982713-.310892-34.800585-5.412446-4.328017-2.505157-7.618703-5.681661-9.332603-9.349283-5.205758-11.139164 6.125083-22.588093 25.289287-25.568599 12.858178-2.003901 25.973722.309765 34.793841 5.414699 1.028339.59475 2.000485 1.227797 2.904076 1.896891l110.305433-17.17452c1.291325-5.467641 6.306026-10.437405 13.883146-13.769354l-17.924576-38.356841c-8.122197-.537302-15.680212-2.676373-21.418684-5.995932-4.325769-2.504031-7.616456-5.679407-9.328107-9.345903-5.197892-11.136911 6.117215-22.584714 25.289286-25.570852 12.85593-1.999395 25.97597.314271 34.793841 5.416952 4.326893 2.504031 7.618704 5.68166 9.331479 9.349283 3.923425 8.395205-1.549814 16.965006-12.692969 21.956171l17.981894 38.499896c8.001943.573348 15.43296 2.695523 21.093885 5.971151 1.026092.594749 1.993743 1.225544 2.896209 1.892385l34.144245-5.315574c1.583531-8.262288 11.648896-15.498408 26.313131-17.783913 12.857054-2.001648 25.973722.312018 34.789345 5.413572" style="mix-blend-mode:multiply"/></g><path d="M419.460271 291.401378c2.949031-.727667 6.036298-1.217659 9.160652-1.462092l80.259936-176.030101c-1.131735-.514774-2.229755-1.06672-3.270457-1.668228-1.147469-.664587-2.189295-1.358462-3.144584-2.085002L199.820426 157.27634c-.396725 1.898017-1.237379 3.771253-2.535447 5.560008l222.175292 128.56503m39.505098 4.459496c14.085442 8.149646 14.159618 21.370433.158465 29.525711-14.001152 8.155278-36.774097 8.155278-50.859539.004505-10.704847-6.195307-13.309974-15.317054-7.809762-22.920386L178.278117 173.9068c-13.069465 3.22156-28.79126 1.739192-39.496106-4.45499-14.09331-8.155278-14.168609-21.376065-.167457-29.531343 14.001153-8.155278 36.774098-8.155278 50.867407 0 1.212654.701759 2.318541 1.448575 3.323279 2.221299l302.42399-47.083214c.875493-4.509058 4.269576-8.886324 10.215963-12.348938 13.993286-8.150773 36.766231-8.150773 50.85954.004506 14.085443 8.149646 14.158494 21.371559.165209 29.522332-6.045288 3.520061-13.7303 5.521709-21.637838 6.003816l-80.034039 175.547993c1.455409.618405 2.847882 1.307774 4.167304 2.072613" fill-opacity=".6" fill="#CDD2D9" style="mix-blend-mode:multiply" mask="url(#b)"/><g mask="url(#b)"><g transform="translate(128.120995 42.356419)"><use fill="#2E81FF" xlink:href="#c"/><use fill-opacity=".1" fill="url(#d)" style="mix-blend-mode:multiply" xlink:href="#c"/><use fill-opacity=".17" fill="#000" style="mix-blend-mode:multiply" xlink:href="#c"/></g><g transform="translate(128.120995 42.356419)"><use fill="#2E81FF" xlink:href="#e"/><use fill="url(#f)" style="mix-blend-mode:multiply" xlink:href="#e"/><use fill-opacity=".1" fill="#3B404C" style="mix-blend-mode:multiply" xlink:href="#e"/></g><g transform="translate(128.120995 42.356419)"><use fill="#2E81FF" xlink:href="#g"/><use fill-opacity=".9" fill="url(#h)" style="mix-blend-mode:multiply" xlink:href="#g"/></g><g transform="translate(128.120995 42.356419)"><use fill="#2E81FF" xlink:href="#i"/><use fill-opacity=".1" fill="url(#j)" style="mix-blend-mode:multiply" xlink:href="#i"/><use fill-opacity=".4" fill="#3B404C" style="mix-blend-mode:multiply" xlink:href="#i"/></g><g transform="translate(128.120995 42.356419)"><use fill="#2E81FF" xlink:href="#k"/><use fill-opacity=".1" fill="#3B404C" style="mix-blend-mode:multiply" xlink:href="#k"/><use fill="url(#l)" style="mix-blend-mode:multiply" xlink:href="#k"/></g><g transform="translate(128.120995 42.356419)"><use fill="#2E81FF" xlink:href="#m"/><use fill-opacity=".2" fill="url(#n)" style="mix-blend-mode:multiply" xlink:href="#m"/><use fill-opacity=".1" fill="#3B404C" style="mix-blend-mode:multiply" xlink:href="#m"/></g><g transform="translate(128.120995 42.356419)"><use fill="#2E81FF" xlink:href="#o"/><use fill-opacity=".07" fill="#3B404C" style="mix-blend-mode:multiply" xlink:href="#o"/><use fill-opacity=".3" fill="url(#p)" style="mix-blend-mode:multiply" xlink:href="#o"/></g><g transform="translate(128.120995 42.356419)"><use fill="#2E81FF" xlink:href="#q"/><use fill-opacity=".05" fill="url(#r)" style="mix-blend-mode:multiply" xlink:href="#q"/><use fill-opacity=".05" fill="url(#s)" style="mix-blend-mode:multiply" xlink:href="#q"/></g></g></g></g></svg>