<svg width="108" height="81" xmlns="http://www.w3.org/2000/svg" xmlns:xlink="http://www.w3.org/1999/xlink"><defs><linearGradient x1="0%" y1="21.658954%" y2="15.252451%" id="b"><stop stop-color="#8A939C" stop-opacity=".386238" offset="0%"/><stop stop-color="#E1E7EC" stop-opacity=".790393" offset="17.028061%"/><stop stop-color="#EDF2F7" stop-opacity=".88035" offset="44.296078%"/><stop stop-color="#6A7179" stop-opacity=".693076" offset="85.945472%"/><stop stop-color="#3E454C" stop-opacity=".613989" offset="100%"/></linearGradient><path d="M107.989429 36.256712c-.022497 7.932007-5.249413 15.850552-15.689746 21.90239-21.014151 12.178466-55.20433 12.178466-76.357966 0C5.292907 52.02799-.022498 43.982305 0 35.950083l.0105-3.65713C-.0135 40.325175 5.303406 46.873605 15.952215 53.006215c21.152136 12.178465 55.342315 12.178465 76.357966-.001496 10.440333-6.050343 15.665749-12.47313 15.689746-20.405137l-.010499 3.65713z" id="a"/><linearGradient x1="100%" y1="0%" x2="0%" y2="100%" id="d"><stop stop-opacity="0" offset="0%"/><stop stop-opacity=".1" offset="100%"/></linearGradient><path d="M92.0601 9.89096c21.155817 12.1055 21.266816 31.734758.248998 43.838773-21.017818 12.106989-55.211521 12.106989-76.365838.001487-21.164816-12.109961-21.266815-31.733273-.248997-43.84026 21.017817-12.105502 55.20102-12.109962 76.365837 0" id="c"/><radialGradient cx="47.222246%" fx="47.222246%" fy="50%" r="145.7971%" gradientTransform="matrix(.4913 .51068 -.19896 .58618 .339698 -.034245)" id="f"><stop stop-color="#FFF" offset="0%"/><stop stop-color="#CCC" stop-opacity="0" offset="100%"/></radialGradient><linearGradient x1="0%" y1="100%" y2="0%" id="g"><stop stop-color="#FFF" stop-opacity="0" offset="0%"/><stop stop-color="#FFF" stop-opacity=".2" offset="100%"/></linearGradient><path d="M37.991813 28.534672c2.761624 1.575413 7.218921 1.561502 9.941847 0 2.744035-1.57889 2.75107-4.128067-.010554-5.706957-2.761624-1.575413-7.21892-1.56498-9.962955.01391-2.722926 1.56498-2.729962 4.114157.031662 5.693047M88.48908 38.70356c.640275.365162.724706.994631-.010554 1.418915l-20.15458 11.57389c-.738779.427761-1.850464.379073-2.501293.006956-.225151-.128676-.401051-.302563-.478447-.504271l-1.864536-5.282675-5.15386 2.963028c-1.248887.716412-3.31043.716412-4.569872 0L22.692063 31.149926c-1.009664-.577303-1.639385-1.34936-1.758997-2.180537l-1.913788-13.61532c-.277921-1.895363 2.487221-3.484686 5.829314-3.345577l23.778113 1.053753c1.459967.062599 2.800322.420805 3.813504.998109l31.067393 17.729475c1.255924.71989 1.26296 1.895364-.010554 2.625687l-5.132751 2.949117 9.206587 1.067663c.372907.038255.68249.13911.918196.271263" id="e"/></defs><g fill="none" fill-rule="evenodd"><path d="M92.0601 28.080799c21.155817 12.105501 21.266816 31.734759.248998 43.838774-21.017818 12.106988-55.211521 12.106988-76.365838.001487-21.164816-12.109962-21.266815-31.733273-.248997-43.840261 21.017817-12.105502 55.20102-12.109962 76.365837 0" fill="#D9DEE5" style="mix-blend-mode:multiply" opacity=".4"/><g transform="translate(0 .18984)"><use fill="#D9DEE5" xlink:href="#a"/><use fill-opacity=".4" fill="url(#b)" xlink:href="#a"/></g><g transform="translate(0 .18984)"><use fill="#FFF" xlink:href="#c"/><use fill-opacity=".2" fill="url(#d)" style="mix-blend-mode:multiply" xlink:href="#c"/></g><g><use fill="#F58235" xlink:href="#e"/><use fill-opacity=".3" fill="url(#f)" style="mix-blend-mode:screen" xlink:href="#e"/><use fill="url(#g)" style="mix-blend-mode:screen" xlink:href="#e"/></g></g></svg>