<svg xmlns="http://www.w3.org/2000/svg" xmlns:xlink="http://www.w3.org/1999/xlink" width="122" height="122">
    <defs>
        <text id="b" fill="#F7F9FB" fill-opacity=".88" font-family="Roboto-Medium, Roboto" font-size="22" font-weight="400" letter-spacing="-.14">
            <tspan x="35.611" y="157.7">Efficient</tspan>
        </text>
        <filter id="a" width="134.5%" height="330.8%" x="-17.2%" y="-115.4%" filterUnits="objectBoundingBox">
            <feOffset in="SourceAlpha" result="shadowOffsetOuter1"/>
            <feGaussianBlur in="shadowOffsetOuter1" result="shadowBlurOuter1" stdDeviation="10"/>
            <feColorMatrix in="shadowBlurOuter1" values="0 0 0 0 1 0 0 0 0 1 0 0 0 0 1 0 0 0 0.5 0"/>
        </filter>
        <linearGradient id="d" x1="100%" x2="15.68%" y1="0%" y2="80.787%">
            <stop offset="0%" stop-opacity="0"/>
            <stop offset="100%" stop-opacity=".3"/>
        </linearGradient>
        <path id="e" d="M82.053 93.94c-18.683 18.746-49.077 18.746-67.881.002-18.813-18.75-18.904-49.135-.222-67.881 18.683-18.744 49.068-18.751 67.881 0 18.805 18.744 18.904 49.137.222 67.879z"/>
        <filter id="c" width="150%" height="150%" x="-25%" y="-25%" filterUnits="objectBoundingBox">
            <feGaussianBlur in="SourceGraphic" stdDeviation="8"/>
        </filter>
        <radialGradient id="g" r="76.63%" fx="50%" fy="50%" gradientTransform="rotate(-40.661 .659 .441) scale(1 .76483)">
            <stop offset="0%" stop-color="#DAD5B5" stop-opacity="0"/>
            <stop offset="99.972%" stop-opacity=".2"/>
        </radialGradient>
        <linearGradient id="h" x1="50%" x2="50%" y1="100%" y2="0%">
            <stop offset="0%" stop-color="#F2EEDA" stop-opacity=".076"/>
            <stop offset="100%" stop-opacity=".3"/>
        </linearGradient>
        <radialGradient id="i" cy="61.43%" r="48.411%" fx="50%" fy="61.43%" gradientTransform="matrix(1 0 0 .83714 0 .1)">
            <stop offset="0%" stop-color="#FFF" stop-opacity=".3"/>
            <stop offset="100%" stop-color="#FFF" stop-opacity="0"/>
        </radialGradient>
        <circle id="f" cx="48" cy="48" r="48"/>
        <radialGradient id="k" cy="71.245%" r="71.245%" fx="50%" fy="71.245%" gradientTransform="matrix(0 -.99998 1.03662 0 -.239 1.212)">
            <stop offset="0%" stop-color="#FFF"/>
            <stop offset="100%" stop-color="#CCC" stop-opacity="0"/>
        </radialGradient>
        <path id="j" d="M50.259 42.984l13.63-13.635v-5.51L74.23 13.5v8.27h8.27l-10.34 10.34h-5.51L53.016 45.741a5.848 5.848 0 1 1-2.756-2.758zm23.517-6.98l.322-.322a29.05 29.05 0 0 1 2.876 12.581c0 16.146-13.089 29.237-29.237 29.237C31.59 77.5 18.5 64.41 18.5 48.263c0-16.15 13.09-29.239 29.237-29.239 4.51 0 8.765 1.051 12.579 2.873l-.325.325v3.876a25.176 25.176 0 0 0-12.254-3.175c-13.97 0-25.34 11.367-25.34 25.34 0 13.97 11.37 25.338 25.34 25.338s25.34-11.367 25.34-25.338c0-4.448-1.16-8.623-3.18-12.259h3.879zm-43.581 12.26c0-9.69 7.855-17.546 17.542-17.546 2.706 0 5.26.634 7.545 1.724l-2.976 2.982a13.436 13.436 0 0 0-4.57-.806c-7.522 0-13.642 6.12-13.642 13.645 0 7.523 6.12 13.643 13.643 13.643 7.525 0 13.645-6.12 13.645-13.643a13.55 13.55 0 0 0-.806-4.57l2.979-2.98a17.477 17.477 0 0 1 1.724 7.55c0 9.687-7.855 17.542-17.542 17.542-9.687 0-17.542-7.855-17.542-17.542z"/>
    </defs>
    <g xmlns="http://www.w3.org/2000/svg" fill="none" fill-rule="evenodd" transform="translate(13,0)">
        <path d="M0 0h174v202H0z"/>

        <g filter="url(#c)" opacity=".4" style="mix-blend-mode:screen">
            <use xmlns:xlink="http://www.w3.org/1999/xlink" fill="url(#d)" fill-opacity=".2" style="mix-blend-mode:lighten" xlink:href="#e"/>
            <use xmlns:xlink="http://www.w3.org/1999/xlink" fill="url(#d)" fill-opacity=".2" style="mix-blend-mode:lighten" xlink:href="#e"/>
            <use xmlns:xlink="http://www.w3.org/1999/xlink" fill="#898E96" fill-opacity=".2" style="mix-blend-mode:lighten" xlink:href="#e"/>
            <use xmlns:xlink="http://www.w3.org/1999/xlink" fill="#54B948" style="mix-blend-mode:overlay" xlink:href="#e"/>
        </g>
        <g style="mix-blend-mode:screen">
            <use xmlns:xlink="http://www.w3.org/1999/xlink" fill="#54B948" xlink:href="#f"/>
            <use xmlns:xlink="http://www.w3.org/1999/xlink" fill="url(#g)" fill-opacity=".2" style="mix-blend-mode:multiply" xlink:href="#f"/>
            <use xmlns:xlink="http://www.w3.org/1999/xlink" fill="url(#h)" fill-opacity=".2" style="mix-blend-mode:multiply" xlink:href="#f"/>
            <use xmlns:xlink="http://www.w3.org/1999/xlink" fill="url(#i)" fill-opacity=".2" style="mix-blend-mode:overlay" xlink:href="#f"/>
        </g>
        <g opacity=".7" style="mix-blend-mode:lighten" transform="translate(0, 1)">
            <use xmlns:xlink="http://www.w3.org/1999/xlink" fill="#FFF" fill-opacity=".7" style="mix-blend-mode:overlay" xlink:href="#j"/>
            <use xmlns:xlink="http://www.w3.org/1999/xlink" fill="url(#k)" fill-opacity=".5" style="mix-blend-mode:screen" xlink:href="#j"/>
        </g>
    </g>
</svg>