<svg xmlns="http://www.w3.org/2000/svg" xmlns:xlink="http://www.w3.org/1999/xlink" width="122" height="122"><defs><text id="b" fill="#F7F9FB" fill-opacity=".88" font-family="Roboto-Medium, Roboto" font-size="22" font-weight="400" letter-spacing="-.14"><tspan x="26.453" y="157.7">Optimized</tspan></text><filter id="a" width="134.5%" height="330.8%" x="-17.2%" y="-115.4%" filterUnits="objectBoundingBox"><feOffset in="SourceAlpha" result="shadowOffsetOuter1"/><feGaussianBlur in="shadowOffsetOuter1" result="shadowBlurOuter1" stdDeviation="10"/><feColorMatrix in="shadowBlurOuter1" values="0 0 0 0 1 0 0 0 0 1 0 0 0 0 1 0 0 0 0.5 0"/></filter><linearGradient id="d" x1="100%" x2="15.68%" y1="0%" y2="80.787%"><stop offset="0%" stop-opacity="0"/><stop offset="100%" stop-opacity=".3"/></linearGradient><path id="e" d="M82.053 93.94c-18.683 18.746-49.077 18.746-67.881.002-18.813-18.75-18.904-49.135-.222-67.881 18.683-18.744 49.068-18.751 67.881 0 18.805 18.744 18.904 49.137.222 67.879z"/><filter id="c" width="150%" height="150%" x="-25%" y="-25%" filterUnits="objectBoundingBox"><feGaussianBlur in="SourceGraphic" stdDeviation="8"/></filter><radialGradient id="g" r="76.63%" fx="50%" fy="50%" gradientTransform="rotate(-40.661 .659 .441) scale(1 .76483)"><stop offset="0%" stop-color="#DAD5B5" stop-opacity="0"/><stop offset="99.972%" stop-opacity=".2"/></radialGradient><linearGradient id="h" x1="50%" x2="50%" y1="100%" y2="0%"><stop offset="0%" stop-color="#F2EEDA" stop-opacity=".076"/><stop offset="100%" stop-opacity=".3"/></linearGradient><radialGradient id="i" cy="61.43%" r="48.411%" fx="50%" fy="61.43%" gradientTransform="matrix(1 0 0 .83714 0 .1)"><stop offset="0%" stop-color="#FFF" stop-opacity=".3"/><stop offset="100%" stop-color="#FFF" stop-opacity="0"/></radialGradient><circle id="f" cx="48" cy="48" r="48"/><radialGradient id="k" cy="71.245%" r="71.245%" fx="50%" fy="71.245%" gradientTransform="matrix(0 -1 .77006 0 -.049 1.212)"><stop offset="0%" stop-color="#FFF"/><stop offset="100%" stop-color="#CCC" stop-opacity="0"/></radialGradient><path id="j" d="M25.727 50.58l6.364 6.691a22.187 22.187 0 0 1 12.823-6.691l4.072-9.636c-8.368-.268-16.863 2.91-23.259 9.636m38.183 6.69l6.364-6.691a31.5 31.5 0 0 0-8.464-6.324l-1.75 9.77a23.314 23.314 0 0 1 3.85 3.245m12.727-13.383L83 37.197c-5.218-5.487-11.295-9.435-17.786-11.944l-1.687 9.435c4.773 2.074 9.228 5.119 13.11 9.2M13 37.197l6.364 6.691c9.163-9.635 21.604-13.65 33.504-12.111l3.787-8.967C41.286 19.933 24.9 24.717 13 37.197m47.41-13.383c-.542 0-1.02.301-1.305.766l-.223.505L42.4 64.063c-.51.97-.827 2.041-.827 3.212 0 3.714 2.863 6.725 6.395 6.725 3.055 0 5.632-2.275 6.237-5.32l.031-.1L62 25.487c0-.937-.7-1.673-1.59-1.673"/></defs><g xmlns="http://www.w3.org/2000/svg" fill="none" fill-rule="evenodd"><g fill="#F7F9FB" fill-opacity=".88" transform="translate(13)"><use xmlns:xlink="http://www.w3.org/1999/xlink" filter="url(#a)" xlink:href="#b"/><use xmlns:xlink="http://www.w3.org/1999/xlink" xlink:href="#b"/></g><g filter="url(#c)" opacity=".4" style="mix-blend-mode:screen" transform="translate(13)"><use xmlns:xlink="http://www.w3.org/1999/xlink" fill="url(#d)" fill-opacity=".2" style="mix-blend-mode:lighten" xlink:href="#e"/><use xmlns:xlink="http://www.w3.org/1999/xlink" fill="url(#d)" fill-opacity=".2" style="mix-blend-mode:lighten" xlink:href="#e"/><use xmlns:xlink="http://www.w3.org/1999/xlink" fill="#898E96" fill-opacity=".2" style="mix-blend-mode:lighten" xlink:href="#e"/><use xmlns:xlink="http://www.w3.org/1999/xlink" fill="#BA30D6" style="mix-blend-mode:overlay" xlink:href="#e"/></g><g style="mix-blend-mode:screen" transform="translate(13)"><use xmlns:xlink="http://www.w3.org/1999/xlink" fill="#BA30D6" xlink:href="#f"/><use xmlns:xlink="http://www.w3.org/1999/xlink" fill="url(#g)" fill-opacity=".2" style="mix-blend-mode:multiply" xlink:href="#f"/><use xmlns:xlink="http://www.w3.org/1999/xlink" fill="url(#h)" fill-opacity=".2" style="mix-blend-mode:multiply" xlink:href="#f"/><use xmlns:xlink="http://www.w3.org/1999/xlink" fill="url(#i)" fill-opacity=".2" style="mix-blend-mode:overlay" xlink:href="#f"/></g><g opacity=".7" style="mix-blend-mode:lighten" transform="translate(13 4)"><use xmlns:xlink="http://www.w3.org/1999/xlink" fill="#FFF" fill-opacity=".7" style="mix-blend-mode:overlay" xlink:href="#j"/><use xmlns:xlink="http://www.w3.org/1999/xlink" fill="url(#k)" fill-opacity=".5" style="mix-blend-mode:screen" xlink:href="#j"/></g></g></svg>