<svg xmlns="http://www.w3.org/2000/svg" width="24" height="24"><defs><filter id="a" filterUnits="userSpaceOnUse" x="0" y="0" width="24" height="24"><feColorMatrix values="1 0 0 0 0 0 1 0 0 0 0 0 1 0 0 0 0 0 1 0"/></filter></defs><mask maskUnits="userSpaceOnUse" x="0" y="0" width="24" height="24" id="b"><path fill="#FFF" d="M0 24V0h24v24z" filter="url(#a)"/></mask><path mask="url(#b)" fill="#BDC2C9" d="M12 0C5.373 0 0 5.508 0 12.304c0 5.436 3.438 10.048 8.206 11.675.6.114.82-.267.82-.592 0-.293-.011-1.263-.016-2.291-3.338.744-4.043-1.452-4.043-1.452-.546-1.422-1.332-1.8-1.332-1.8-1.089-.764.082-.748.082-.748 1.205.087 1.84 1.268 1.84 1.268 1.07 1.881 2.807 1.337 3.492 1.023.108-.795.419-1.338.762-1.645-2.665-.311-5.467-1.366-5.467-6.081 0-1.343.469-2.441 1.236-3.303-.125-.31-.535-1.561.116-3.256 0 0 1.008-.33 3.301 1.261.957-.272 1.983-.409 3.003-.413 1.02.005 2.047.142 3.006.414 2.29-1.592 3.297-1.261 3.297-1.261.653 1.695.242 2.946.118 3.256.769.862 1.235 1.959 1.235 3.303 0 4.726-2.807 5.766-5.479 6.071.43.382.814 1.131.814 2.278 0 1.646-.014 2.971-.014 3.376 0 .328.216.711.824.59 4.765-1.629 8.2-6.239 8.2-11.673C24 5.508 18.627 0 12 0"/></svg>