<svg width="235" height="316" xmlns="http://www.w3.org/2000/svg"><path d="M368 536h210c60.751322 0 110-49.248678 110-110s-49.248678-110-110-110H158C70.73901 316 0 245.26099 0 158S70.73901 0 158 0h420c60.751322 0 110-49.248678 110-110s-49.248678-110-110-110H24c-13.254834 0-24-10.745166-24-24s10.745166-24 24-24h554c87.26099 0 158 70.73901 158 158S665.26099 48 578 48H158C97.248677 48 48 97.248678 48 158s49.248677 110 110 110h420c87.26099 0 158 70.73901 158 158s-70.73901 158-158 158H158c-60.751323 0-110 49.248678-110 110 0 60.75132 49.248677 110 110 110h302c13.254834 0 24 10.74517 24 24s-10.745166 24-24 24H158C70.73901 852 0 781.26099 0 694s70.73901-158 158-158h210z" fill-rule="nonzero" fill="#D9DEE5"/></svg>