<svg xmlns="http://www.w3.org/2000/svg" width="24" height="24"><path fill="none" d="M0 0h24v24H0z"/><circle fill="#2DAAE1" cx="12" cy="12" r="12"/><path fill="#FFF" d="M19.787 7.271c-.567.251-1.177.42-1.817.497.654-.39 1.155-1.008 1.391-1.744-.621.368-1.301.626-2.01.765-.577-.613-1.399-.995-2.309-.995-1.747 0-3.163 1.411-3.163 3.153 0 .247.028.487.082.719C9.33 9.533 6.999 8.277 5.438 6.37c-.272.466-.428 1.008-.428 1.586 0 1.094.559 2.058 1.407 2.624-.502-.016-.994-.151-1.433-.394v.04c0 1.528 1.09 2.801 2.538 3.091-.266.073-.545.111-.834.111-.204 0-.402-.019-.596-.056.403 1.252 1.571 2.163 2.955 2.189-1.083.846-2.447 1.35-3.929 1.35-.255 0-.508-.015-.755-.045 1.4.895 3.063 1.417 4.85 1.417 5.819 0 9.002-4.804 9.002-8.97 0-.137-.003-.273-.01-.408.621-.447 1.156-1 1.582-1.634z"/></svg>